<?xml version="1.0" encoding="utf-8"?>
<!-- Uploaded to: SVG Repo, www.svgrepo.com, Generator: SVG Repo Mixer Tools -->
<svg width="800px" height="800px" viewBox="-10.25 0 450.108 450.108" xmlns="http://www.w3.org/2000/svg"><defs><style>.a{fill:#211715;}.b{fill:#ffffff;}.c{fill:#ffe59c;}.d{fill:#b5886a;}.e{fill:#f4b467;}.f{fill:#ef8561;}.g{fill:#f6c385;}.h{fill:#6dbf6b;}.i{fill:#ad7b59;}.j{fill:#ffda71;}.k{fill:#f2635f;}</style></defs><path class="a" d="M394.587,386.482c4.478-.8,8.957-1.585,13.432-2.4a2.017,2.017,0,0,0,1.4-2.46,2.043,2.043,0,0,0-2.46-1.4c-4.475.813-8.953,1.6-13.431,2.4a2.017,2.017,0,0,0-1.4,2.461,2.044,2.044,0,0,0,2.46,1.4Z"/><path class="a" d="M394.389,398.37q3,.288,5.989.593,1.614.166,3.225.347.743.083,1.486.173l.7.087.262.034c.459.059-.476-.065-.043,0a2.058,2.058,0,0,0,2.46-1.4,2.021,2.021,0,0,0-1.4-2.46c-4.212-.582-8.452-.965-12.684-1.372a2.007,2.007,0,0,0-2,2,2.055,2.055,0,0,0,2,2Z"/><path class="a" d="M391.655,409.1c3.787,2.2,7.574,4.4,11.267,6.75a2.017,2.017,0,0,0,2.736-.718,2.043,2.043,0,0,0-.717-2.736c-3.693-2.354-7.48-4.553-11.267-6.75a2,2,0,1,0-2.019,3.454Z"/><path class="b" d="M112.989,381.727a14.594,14.594,0,0,0-2.647-3.5l-1.33-1.266,4.812,3.93q.725.592,1.454,1.168c8.32,6.573,45.388,32.516,55.515,39.256,4.766,3.172,10.074,5.8,15.011,8.879,4.317,2.691,9.8,7.536,15.19,7.376,6.218-.186,22.167-11.763,27.853-15.554,6.061-4.04,15.626-10.184,20.912-14.754-5.185,3.01-4.582,14.722-8.087,17.518-5.212,4.157-26.656,17.11-31.1,19.821-1.95,1.189-4.21,3.025-6.479,3.429-3.882.69-9.663-3.338-12.626-5.241-4.814-3.092-45.1-29.442-54.3-36.531-4.3-3.31-14.914-10.165-19.1-14.258C115.887,389.874,115.118,385.538,112.989,381.727Z"/><path class="b" d="M115.278,382.06c8.32,6.573,45.388,32.516,55.515,39.256,4.766,3.172,10.074,5.8,15.011,8.879,4.317,2.691,9.8,7.536,15.19,7.376,6.218-.186,22.167-11.763,27.853-15.554,6.549-4.366,17.191-11.188,22.1-15.827,5.743-5.424-.819-10.641-5.695-15.042-7.4-5.423-31.8-20.681-36.054-23.432-8.323-5.385-43.931-29.3-54.314-26.125-5.3,1.618-44.725,23.882-46.959,25.563-7.152,5.382,1.669,10.286,5.9,13.738Q114.549,381.484,115.278,382.06Z"/><path class="c" d="M224.265,392.743c-5.791-5.8-15.9-4.262-23.046-2.749-7.778,1.647-14.875,7.4-12.462,16.058a58.967,58.967,0,0,0,4.038,9.169c1.788,3.653,4.04,6.946,8.3,4.841,3.756-1.856,5.339-5.154,9.673-5.659,2.367-.275,3.218-.06,4.692-1.814,1.38-1.642,1.461-2.609,3.767-3.279,2.916-.847,9.264-.459,10.247-3.532.576-1.8-.554-3.932-1.289-5.357-1.064-2.064-2.122-5.97-3.92-7.678"/><path class="c" d="M176.689,367.675c.835.949,2.067,1.438,2.894,2.459.392.483.874,1.656,1.262,2.177l.153-.043a13.4,13.4,0,0,1,10.9,2.283c.136.158.344.384.344.384,1.276,1.376,2,3.847,2.984,5.349a34.681,34.681,0,0,1,4.2.662c.582.114,1.2.235,1.869.356.172.031.366.057.577.079,2.05.215,5.714.067,7.247.861,1.707.885,4.256,4.18,1.817,6.411a54.461,54.461,0,0,0-11.644,1.856c-5.421,1.57-11.777,6.222-10.555,13.555a8.634,8.634,0,0,0-8.3,1.553c-.918.7-.7,2.629-1.714,2.185-1.835-4.4-5.542-7.4-5.174-12.754a29.564,29.564,0,0,0-3.782-1.019c-1.267,1.535-2.466,1.907-4.564.742a6.048,6.048,0,0,1-2.312-3.11,16.192,16.192,0,0,1-1.023-3.391c-.731.878-4.174-.349-5.48-.15l-.5.075c-1.207,1.55-4.167,1.242-5.137.118a14.6,14.6,0,0,1-2.326-3.651,15.99,15.99,0,0,1-1.286-3.084l-.531.023c-1.339.059-3.36-.619-5.01-.592-.762.9-1.66,2.012-3,1.691a3.5,3.5,0,0,1-2.055-1.691,23.637,23.637,0,0,1-1.136-2.485,21.314,21.314,0,0,1-1.922-4.348c-.489-2.382.588-4.83,2.064-6.761a29.262,29.262,0,0,1,6.7-6.8c2.256-1.451,5.959-3.685,9.43-2.62,3.959,1.214,8.733.543,11.2,2.745,1.436,1.251,1.159,3.413,2.163,5.031,3.7.159,9.474.046,11.623,2.027"/><path class="a" d="M113.864,383.475c8.787,6.928,18.085,13.256,27.229,19.7,9.471,6.671,18.931,13.38,28.578,19.8,4.244,2.823,8.778,5.162,13.157,7.76,3.982,2.363,7.6,5.461,11.843,7.353a13.046,13.046,0,0,0,9.95.735,50.462,50.462,0,0,0,8.754-4.283c5.6-3.273,10.879-7.033,16.261-10.642,6.879-4.612,13.967-9,20.389-14.251,3.085-2.521,6.116-5.632,4.859-9.964-1.174-4.046-5-7.181-8.073-9.815a64.921,64.921,0,0,0-6.272-4.389q-4.095-2.734-8.236-5.395c-8.621-5.572-17.335-11-25.94-16.594-10.339-6.724-20.85-13.36-31.991-18.688-4.92-2.352-10.16-4.742-15.631-5.384-3.467-.406-6.163.885-9.188,2.376-10.026,4.94-19.777,10.485-29.506,15.981-3.8,2.144-7.6,4.286-11.334,6.531a15.016,15.016,0,0,0-3.629,2.733c-2.733,3.058-2.054,6.67.484,9.577,2.336,2.677,5.524,4.668,8.3,6.866a2.063,2.063,0,0,0,2.828,0,2.014,2.014,0,0,0,0-2.829c-2.754-2.184-5.993-4.183-8.3-6.866-.756-.88-1.395-1.936-1.084-2.906a4.8,4.8,0,0,1,1.871-2.163c2.573-1.771,5.41-3.231,8.118-4.781,9.689-5.544,19.444-11,29.337-16.171,1.878-.982,3.762-1.955,5.67-2.878q.995-.483,2-.935c.135-.062.273-.119.409-.178-.593.257-.167.066-.021.012.21-.077.415-.164.628-.231a7.3,7.3,0,0,1,.924-.218c.273-.048-.4.042-.117.018.1-.008.191-.021.287-.024.226-.007.45-.022.676-.022.435,0,.867.034,1.3.07.114.009.23.024.344.038-.08-.009-.4-.06,0,0,.275.043.549.09.823.143a39.8,39.8,0,0,1,6.836,2.085,128.837,128.837,0,0,1,16.455,8.117c5.419,3.051,10.728,6.3,15.977,9.631,7.5,4.767,14.964,9.6,22.463,14.378,5.586,3.558,11.167,7.127,16.681,10.795,1.985,1.321,4.072,2.589,5.941,4.073a45.3,45.3,0,0,1,4.231,3.926c1.207,1.245,2.59,2.725,2.961,4.479.367,1.729-.77,3.012-1.97,4.108s-2.494,2.14-3.8,3.132c-3.367,2.557-6.866,4.937-10.379,7.286-5.37,3.592-10.706,7.244-16.1,10.806-2.9,1.915-5.835,3.784-8.864,5.488a33.014,33.014,0,0,1-7.675,3.481c-.25.065-.5.121-.756.172-.5.1.139.021-.332.046a8.522,8.522,0,0,1-2.65-.282,20.825,20.825,0,0,1-5.8-2.8c-3.848-2.452-7.555-5.018-11.533-7.272-10.666-6.045-20.6-13.2-30.643-20.22-10.1-7.066-20.21-14.137-30.123-21.468q-1.161-.859-2.314-1.729-.456-.344-.909-.691c-.406-.312.248.195-.133-.1-.146-.114-.292-.227-.437-.342a2.063,2.063,0,0,0-2.828,0A2.014,2.014,0,0,0,113.864,383.475Z"/><path class="a" d="M246.209,407.921c-2.11,2.917-2.791,6.676-3.667,10.092a17.36,17.36,0,0,1-1.5,4.409,2.942,2.942,0,0,1-.835.987c-.348.312.236-.172-.175.134-.2.149-.4.3-.607.447-4.736,3.441-9.765,6.5-14.729,9.6q-7.053,4.4-14.165,8.7c-2.592,1.576-5.465,4.43-8.708,3.656-3.437-.82-6.447-3.006-9.373-4.894-7.555-4.876-15.055-9.837-22.549-14.806-9.65-6.4-19.349-12.761-28.755-19.517q-6.8-4.878-13.588-9.758a64.09,64.09,0,0,1-7.995-6.3,10.431,10.431,0,0,1-2.074-3.579c-.722-1.781-1.374-3.593-2.222-5.321a18.057,18.057,0,0,0-3.509-4.955c-1.839-1.805-4.669,1.022-2.828,2.829,2.823,2.771,3.827,6.621,5.385,10.137,1.376,3.105,3.8,5.048,6.425,7.081,5.326,4.121,10.965,7.819,16.364,11.842,8.972,6.682,18.414,12.774,27.726,18.966,8.294,5.514,16.6,11.011,24.965,16.421a62.816,62.816,0,0,0,7.275,4.333,15.875,15.875,0,0,0,5.6,1.668,10.5,10.5,0,0,0,6.155-1.976q6.936-4.319,13.9-8.6c5.507-3.4,11.025-6.8,16.38-10.438,1.88-1.277,4.14-2.544,5.333-4.537,1.786-2.982,2.176-6.713,3.15-10a14.867,14.867,0,0,1,2.08-4.607,2.015,2.015,0,0,0-.717-2.736,2.046,2.046,0,0,0-2.737.717Z"/><path class="a" d="M225.679,391.329C219.167,385,209.094,386.294,201,388c-8.208,1.73-16.017,7.932-14.49,17.128a26.96,26.96,0,0,0,2.531,6.991,58.715,58.715,0,0,0,3.3,6.421,8.566,8.566,0,0,0,4.671,3.969,8.012,8.012,0,0,0,6.377-1.451c1.689-1.094,3.085-2.59,4.794-3.649,1.821-1.128,3.708-.869,5.685-1.4,2.1-.562,3.091-2.225,4.374-3.8.889-1.093,2.436-1.207,3.754-1.381,3.83-.506,9.66-1.024,9.641-6.159-.01-2.471-1.5-4.556-2.391-6.765-.931-2.3-1.782-4.771-3.562-6.571-1.813-1.833-4.641,1-2.829,2.828a13.232,13.232,0,0,1,2.4,4.485c.676,1.675,1.689,3.307,2.2,5.035.428,1.457.145,1.873-1.122,2.324a20.784,20.784,0,0,1-4.338.823,14.99,14.99,0,0,0-4.653,1.076c-1.592.759-2.3,2.146-3.412,3.412-1.038,1.183-2.327.95-3.883,1.189a11.05,11.05,0,0,0-4.951,2.2c-1.97,1.486-5.534,5.618-8.113,3.3a14.434,14.434,0,0,1-2.807-4.5c-.993-2-2.051-3.981-2.847-6.069-1.26-3.3-1.531-6.641.515-9.682,1.836-2.729,5.016-4.443,8.095-5.367a43.832,43.832,0,0,1,11.888-1.776c3.965-.043,8.088.688,11.027,3.547,1.847,1.8,4.678-1.029,2.829-2.828Z"/><path class="a" d="M215.4,395.19a21.077,21.077,0,0,0-10.967,3.858,25.184,25.184,0,0,0-8.205,8.339c-1.262,2.247,2.192,4.266,3.454,2.019a20.874,20.874,0,0,1,6.77-6.9c2.688-1.779,5.894-3.26,8.948-3.312,2.571-.044,2.579-4.044,0-4Z"/><path class="a" d="M219.317,399.52a12.317,12.317,0,0,1-1.6,1.378l.405-.312q-1.016.783-2.077,1.5a10,10,0,0,1-1.534.93l.478-.2a.779.779,0,0,1-.157.051l.532-.071a.2.2,0,0,1-.042,0l.531.072-.007,0a2,2,0,1,0-1.064,3.857c1.169.313,2.269-.5,3.187-1.118,1.075-.723,2.12-1.5,3.127-2.317a9.505,9.505,0,0,0,1.052-.943,2.1,2.1,0,0,0,.586-1.414,2,2,0,0,0-3.414-1.415Z"/><path class="a" d="M210.234,406.184c-.482.277-1,.5-1.5.73-.61.275-1.224.542-1.834.819a2.007,2.007,0,0,0-.919,1.195,2.043,2.043,0,0,0,.2,1.541,2.017,2.017,0,0,0,1.195.919l.532.072a2.007,2.007,0,0,0,1.009-.273c.61-.278,1.223-.544,1.834-.82.506-.228,1.02-.452,1.5-.729a2.066,2.066,0,0,0,.919-1.2,2.043,2.043,0,0,0-.2-1.541,2.017,2.017,0,0,0-1.195-.919,2.1,2.1,0,0,0-1.542.2Z"/><path class="a" d="M213.9,386.987c.311-2.713-1.768-5.617-4.207-6.665-2.15-.924-4.713-.729-7-.876-2.512-.162-5.383-1.122-8.164-1.2a23.989,23.989,0,0,0-8.006,1.4c-4.612,1.513-9.159,3.959-12.146,7.882a13.436,13.436,0,0,0-1.195,14.5c.637,1.247,1.414,2.414,2.142,3.607.739,1.212,1.441,3.628,2.873,4.084a2.635,2.635,0,0,0,3.272-1.849,2.416,2.416,0,0,1,1.937-1.768,2.055,2.055,0,0,0,2-2,2.014,2.014,0,0,0-2-2,7.123,7.123,0,0,0-4.112,1.881,4.057,4.057,0,0,0-1.142,1.432,4.891,4.891,0,0,0-.336.835c-.162.634-.206.079.27-.13l1.009-.273.166.015,1.2.919c-1.483-3.435-4.615-6.472-4.9-10.338-.261-3.507,1.547-6.523,4.131-8.744a24.159,24.159,0,0,1,9.109-4.571,18.79,18.79,0,0,1,5.922-.883,56.475,56.475,0,0,1,6.268,1.009c1.942.3,3.917.161,5.859.425,1.582.215,3.285,1.347,3.061,3.3a2.012,2.012,0,0,0,2,2,2.047,2.047,0,0,0,2-2Z"/><path class="a" d="M193.555,388.824a13.179,13.179,0,0,0-7.736,2.074,19.011,19.011,0,0,0-5.88,5.535,2.013,2.013,0,0,0,.717,2.737,2.051,2.051,0,0,0,2.737-.718c.079-.115.159-.23.24-.343.023-.031.237-.318.1-.14-.155.2.138-.168.169-.2.075-.091.151-.18.228-.269a16.691,16.691,0,0,1,1.195-1.243q.306-.287.624-.558.178-.153.361-.3c.026-.021.317-.246.168-.134-.176.132.218-.156.253-.181.1-.074.206-.146.31-.217q.392-.266.8-.51c.485-.29.985-.548,1.5-.788.136-.065.227-.1.034-.02.143-.058.287-.113.431-.166q.387-.142.783-.258c.289-.084.582-.156.877-.216.117-.024.234-.043.351-.065.385-.07-.154,0,.084-.01a13.341,13.341,0,0,1,1.661,0,2.008,2.008,0,0,0,2-2,2.052,2.052,0,0,0-2-2Z"/><path class="a" d="M193.574,373.365a14.922,14.922,0,0,0-10.546-3.431c-1.852.115-3.581.712-5.447.747a24.555,24.555,0,0,0-6.32.477c-4.022,1.147-7.035,5.155-9.374,8.391a11.286,11.286,0,0,0-2.359,6.49,17.215,17.215,0,0,0,1.557,6.434,7.7,7.7,0,0,0,4.325,4.586,4.939,4.939,0,0,0,5.705-1.531c1.706-1.917-1.113-4.756-2.829-2.828-.372.418-.6.775-1.15.728a2.584,2.584,0,0,1-1.823-1.364,14.456,14.456,0,0,1-1.723-5.306c-.323-2.212.936-4.134,2.219-5.815a27.375,27.375,0,0,1,4.272-4.634c3.187-2.615,7.517-1.153,11.269-2.065,3.072-.746,6.952-.207,9.4,1.949,1.924,1.7,4.763-1.121,2.828-2.828Z"/><path class="a" d="M176.094,382.242c-1.148.582-2.353,1.041-3.51,1.6a12.148,12.148,0,0,0-3.447,2.45,2,2,0,0,0,2.829,2.829,9.394,9.394,0,0,1,.727-.684c.035-.029.122-.129.166-.135-.034,0-.38.283-.153.119.127-.092.254-.183.384-.271a13.053,13.053,0,0,1,1.6-.9c1.129-.543,2.3-.993,3.419-1.56a2.014,2.014,0,0,0,.718-2.736,2.049,2.049,0,0,0-2.737-.718Z"/><path class="a" d="M178.088,366.389c-2.91-2.522-6.914-2.627-10.577-2.783a22.613,22.613,0,0,0-6.489.236,19.756,19.756,0,0,0-5.586,2.466,26.965,26.965,0,0,0-8.467,8.906c-1.182,1.9-2.21,3.923-1.872,6.225a17.142,17.142,0,0,0,2.537,5.986c1.022,1.673,2.229,3.208,4.223,3.66a5.6,5.6,0,0,0,5.442-1.463c1.7-1.925-1.122-4.764-2.828-2.828a1.777,1.777,0,0,1-2.3.1c-1.294-1.16-2.266-3.468-2.861-5.063-.771-2.07.544-3.773,1.658-5.455a25.7,25.7,0,0,1,3.76-4.523c2.8-2.648,6.54-4.592,10.459-4.365,1.936.112,3.884.125,5.813.332a7.758,7.758,0,0,1,4.258,1.393c1.937,1.679,4.778-1.138,2.829-2.828Z"/><path class="a" d="M161.258,376.017a24.455,24.455,0,0,0-6.516,4.934,2,2,0,0,0,2.829,2.828,24.782,24.782,0,0,1,2.751-2.511l-.405.313a21.958,21.958,0,0,1,3.36-2.11,2.015,2.015,0,0,0,.718-2.737,2.048,2.048,0,0,0-2.737-.717Z"/><path class="a" d="M163.908,359.065c-3.059-2.619-7.013-1.918-10.684-2.733a12.292,12.292,0,0,0-6.079-.257,19.244,19.244,0,0,0-5.35,2.471,29.242,29.242,0,0,0-8.437,8.521,10.825,10.825,0,0,0-1.981,5.915c.007,2.217,1.07,4.044,2.031,5.965,1.021,2.041,1.63,4.323,3.869,5.379s4.222-.112,5.688-1.831c1.662-1.948-1.154-4.79-2.828-2.828-.258.3-.943,1.1-1.071,1.083-.709-.1-1.133-1.4-1.362-1.918-.75-1.7-2.117-3.573-2.315-5.452-.192-1.821.849-3.56,1.9-4.956a34.1,34.1,0,0,1,3.975-4.479c2.3-2.144,6.181-4.785,9.494-4.125a50.761,50.761,0,0,0,5.753.931c1.47.123,3.385.128,4.571,1.143,1.946,1.666,4.788-1.151,2.828-2.829Z"/><path class="a" d="M147.945,369.209c-1.149.582-2.354,1.04-3.511,1.605a12.143,12.143,0,0,0-3.446,2.45,2,2,0,0,0,2.423,3.142,3.284,3.284,0,0,0,.925-.765,2.176,2.176,0,0,0,.586-1.415,2.036,2.036,0,0,0-.586-1.414,2.01,2.01,0,0,0-1.414-.586,1.936,1.936,0,0,0-1.414.586c-.007.008-.2.228-.2.223-.017-.038.479-.314.084-.083l2.424,3.141a9.394,9.394,0,0,1,.727-.684c.036-.029.122-.129.166-.135-.034,0-.38.283-.152.119.126-.092.253-.184.384-.271a13.053,13.053,0,0,1,1.6-.9c1.129-.543,2.3-.993,3.419-1.56a2.013,2.013,0,0,0,.717-2.736,2.047,2.047,0,0,0-2.736-.718Z"/><path class="b" d="M111.431,338.158a7.578,7.578,0,0,1-.742-1.452l-.2-.806c4.162,1.7,9.257,1.81,13.389,1.745a33.316,33.316,0,0,0,7.9-.935c.536-.143,1.061-.306,1.569-.493-.187,2.043-1.291,3.531-3.487,4.806a12.45,12.45,0,0,1-6.488,1.675c-3.507.075-6.927-.429-8.651-1.414A9.626,9.626,0,0,1,111.431,338.158Z"/><path class="b" d="M131.779,336.71a33.316,33.316,0,0,1-7.9.935c-5.886.093-13.726-.181-18.042-4.857a6.372,6.372,0,0,1-1.822-5.518,7.747,7.747,0,0,1,3.384-4.3c4.351-3.1,9.481-4.153,14.741-4.153a30.026,30.026,0,0,1,13.568,3.157c2.179,1.164,4.273,3.01,4.577,5.462a6.215,6.215,0,0,1-.561,3.245,10.9,10.9,0,0,1-6.221,5.476A17.556,17.556,0,0,1,131.779,336.71Z"/><path class="a" d="M131.247,334.782a34.375,34.375,0,0,1-8.346.874,45,45,0,0,1-6.855-.363,17.869,17.869,0,0,1-6.527-2.094c-1.8-1.066-3.987-3.066-3.574-5.4s3.488-3.911,5.39-4.836a22.27,22.27,0,0,1,7.84-2.029c5.312-.444,11.158.258,15.851,2.944,2.32,1.327,4.1,3.386,2.816,6.125-1.228,2.621-3.934,4.032-6.595,4.776-2.475.692-1.424,4.552,1.064,3.857a14.607,14.607,0,0,0,8.223-5.361c2.008-2.822,2.479-6.6.365-9.5-1.935-2.654-4.989-4.135-8.016-5.191a33.032,33.032,0,0,0-10.343-1.77,30.549,30.549,0,0,0-10.432,1.531c-3.02,1.056-6.288,2.7-8.35,5.223a7.613,7.613,0,0,0-.165,9.6,14.777,14.777,0,0,0,7.223,4.978,32.786,32.786,0,0,0,10.043,1.49,42.6,42.6,0,0,0,11.452-1C134.8,338,133.747,334.143,131.247,334.782Z"/><path class="a" d="M108.76,337.237a11.4,11.4,0,0,0,4.793,5.679c2.39,1.407,5.437,1.687,8.15,1.774,5.125.165,12.241-1.482,13.493-7.378.533-2.511-3.322-3.584-3.857-1.064-.853,4.016-6.344,4.546-9.636,4.442a14.581,14.581,0,0,1-5.757-1.017,7.185,7.185,0,0,1-2.308-1.871,6.838,6.838,0,0,1-.617-.873c-.087-.143-.17-.29-.248-.439,0,.007-.272-.614-.156-.316a2.059,2.059,0,0,0-2.46-1.4,2.015,2.015,0,0,0-1.4,2.46Z"/><path class="a" d="M120.94,326.288a11.455,11.455,0,0,0-3.444.8c-.88.356-2.131,1.145-1.384,2.1.539.688,1.986.866,2.842.973a32.859,32.859,0,0,0,4.13.045c.5-.022,1.6-.086,2.09-.157.762-.11,3.066-.378,3.1-1.228s-1.859-1.612-2.62-1.887a12.087,12.087,0,0,0-2.327-.583A11.6,11.6,0,0,0,120.94,326.288Z"/><path class="a" d="M120.94,324.288a13.743,13.743,0,0,0-4.588,1.132,3.747,3.747,0,0,0-2.465,3.155c-.013,3.222,4.173,3.657,6.554,3.679a31.607,31.607,0,0,0,6.488-.469,4.862,4.862,0,0,0,2.639-1.246,2.721,2.721,0,0,0-.415-3.963,12.124,12.124,0,0,0-8.213-2.288,2,2,0,0,0,0,4,12.562,12.562,0,0,1,1.669-.006c.079.006.64.066.369.027.265.038.529.1.79.158a12.324,12.324,0,0,1,1.263.368c.131.046.262.094.392.145.059.023.118.048.178.07.215.082-.365-.177-.025,0,.293.148.58.3.862.465.063.037.119.083.18.122-.355-.231-.185-.141-.095-.053.075.073.113.195,0-.02a1.294,1.294,0,0,1-.25-.735,1.926,1.926,0,0,1,.307-.913c.04-.053.274-.343.359-.323,0,0-.527.243-.16.111.323-.117-.184.051-.247.069-.153.045-.308.083-.464.117-.3.066-.594.117-.893.163l-.317.046c-.384.056.523-.049,0,0-.786.067-1.568.111-2.356.126a28.776,28.776,0,0,1-3.2-.014c-.133-.012-.805-.059-.233-.02a4.171,4.171,0,0,1-.47-.073c-.191-.034-.381-.073-.569-.121-.081-.02-.161-.041-.241-.065s-.447-.212-.21-.068-.01-.015-.034-.035c-.21-.166,0-.027.072.057a1.221,1.221,0,0,1,.136,1.275c-.042.091-.3.276-.037.073.185-.143.088-.036-.036.023.186-.089.375-.208.555-.31-.033.019-.378.142-.1.041.174-.063.346-.132.522-.191q.367-.124.744-.223.429-.113.865-.192c.109-.02.218-.04.328-.056-.28.04.363-.029.35-.028a2,2,0,0,0,0-4Z"/><path class="d" d="M211.753,162.006c3.783-2.853,7.144-7.15,7.958-11.4a80.056,80.056,0,0,1-6.335-6.409c-3.757-4.153-7.185-11.077-9.015-18.128-2.735.7-4.88-.682-6.388-1.888-.161-.131-.319-.264-.473-.4a9.369,9.369,0,0,0-3.641,4.234,16.478,16.478,0,0,0-.891,8.609,33.512,33.512,0,0,0,3.509,11.482,45.187,45.187,0,0,1,2.9,5.818c.718,2.055,1.318,5.173.318,7.1-.846,1.618-2.328,3.282-1.855,4.191.327.627,1.064.673,1.773.755,3.882.463,7.082-.773,10.2-2.646A22.583,22.583,0,0,0,211.753,162.006Z"/><path class="b" d="M246.116,54.711c-49.1,0-44.363,43.936-44.363,43.936a6.8,6.8,0,0,0-5.47-1.6,6.446,6.446,0,0,0-4.64,3.08,9.038,9.038,0,0,0-.95,3.67,27.35,27.35,0,0,0,2.78,14.49,17.516,17.516,0,0,0,4.5,5.89c1.508,1.206,3.654,2.586,6.388,1.892,1.831,7.048,5.258,13.971,9.015,18.124,4.125,4.559,9.124,9.754,15.649,12.426-.156,2.087-.425,4.167-.782,6.236-.55,3.11-.38,5.9-4.71,7.46-.28.1-15.31,7.25-16.14,7.53,0,0,5.835,25.755,40.946,25.755,37.777,0,39.357-27.33,39.357-27.33-4.58-2-13.465-5.876-13.681-5.954-4.329-1.563-4.158-4.347-4.7-7.46a39.255,39.255,0,0,1-.74-6.913c12.075-3.329,21.895-17.906,23.147-30.289l.245-.007a9.2,9.2,0,0,0,5.25-1.47,17.359,17.359,0,0,0,4.5-5.9,27.392,27.392,0,0,0,2.78-14.48,9.256,9.256,0,0,0-.96-3.67,6.427,6.427,0,0,0-4.63-3.08,6.833,6.833,0,0,0-5.47,1.59S295.219,54.711,246.116,54.711Z"/><path class="a" d="M194.472,123.632c-3.833,3.957-4.061,9.466-3.284,14.627a33.664,33.664,0,0,0,2.057,7.531c1,2.491,2.385,4.748,3.561,7.149a11.416,11.416,0,0,1,1.381,6.267c-.3,2.082-2.49,3.448-2.427,5.684.08,2.877,3.407,3.2,5.6,3.172a17.373,17.373,0,0,0,7.285-1.834,25.168,25.168,0,0,0,11.788-11.545c1.1-2.314-2.351-4.346-3.454-2.019a21.109,21.109,0,0,1-7.67,8.615,18.531,18.531,0,0,1-5.033,2.364,11.162,11.162,0,0,1-2.7.413,4.466,4.466,0,0,1-2.525-.305l.718.718c.222.3-.178.447.153.075a7.144,7.144,0,0,0,.58-.968,13.437,13.437,0,0,0,1.265-2.323,9.414,9.414,0,0,0,.307-4.651c-.507-3.6-2.349-6.53-3.966-9.71a30.87,30.87,0,0,1-3.159-10.491c-.386-3.488-.217-7.284,2.357-9.941,1.792-1.85-1.034-4.682-2.829-2.828Z"/><path class="e" d="M185.014,300.474c0-.874,0-3.521-.007-5.738-8.914,1.139-17.878-4.109-21.021-14.126a44.4,44.4,0,0,1-2.113-15.714c.593-12,1.483-20.555,2.95-32.3,1.186-9.481,4.554-27.173,14.165-37.8,8.695-9.619,22.583-17.843,27.85-18.5l2.074-.259,1.076.7c8.328,5.447,24,10.859,38.641,10.9,14.022.035,33.256-5.78,39.074-11.378,4.833.326,21.205,7.663,30.125,17.53a59.327,59.327,0,0,1,7.085,10.963c6.767,13.186,8.287,22.674,10.5,36.307,1.731,10.677,4.2,30.156,2.315,41.768-1.867,9.038-10.015,13.125-18.554,13.889a63.84,63.84,0,0,1-8.564.186c-.02,2.21-.041,4.474-.041,5.046"/><path class="a" d="M266.6,156.536a75.272,75.272,0,0,0,.948,7.863c.323,2.144.8,4.275,2.444,5.827a8.959,8.959,0,0,0,3.5,2.021c.152.045-.59-.254-.127-.053l.8.346q2.729,1.184,5.454,2.374L286.686,178a2.066,2.066,0,0,0,2.737-.718,2.014,2.014,0,0,0-.718-2.736q-5.764-2.513-11.53-5.026c-1.048-.455-2.133-.863-3.162-1.355a3.913,3.913,0,0,1-1.861-1.635,3.3,3.3,0,0,1-.346-.962c-.117-.446-.2-.9-.273-1.355a64.814,64.814,0,0,1-.938-7.674c-.115-2.564-4.115-2.578-4,0Z"/><path class="a" d="M207.925,179.773c1.357-.483,2.664-1.18,3.967-1.788q3.3-1.536,6.582-3.092c1.761-.83,3.52-1.664,5.283-2.489.193-.091.388-.177.58-.27a1.673,1.673,0,0,0,.155-.071c.122-.077.757-.49-.427.18a9,9,0,0,1,.886-.357,7.876,7.876,0,0,0,3.83-3.216,12.414,12.414,0,0,0,1.253-4.433c.374-2.438.763-4.863.969-7.322a2.016,2.016,0,0,0-2-2,2.041,2.041,0,0,0-2,2c-.166,1.982-.455,3.934-.77,5.9a14.389,14.389,0,0,1-.77,3.619,3.773,3.773,0,0,1-.765,1,5.907,5.907,0,0,1-1.7.956c-.427.177-.844.368-1.263.564-3.726,1.743-7.439,3.512-11.165,5.255-.9.42-1.8.841-2.7,1.255-.31.142-.621.282-.932.423-.632.285.226-.074-.076.033a2.05,2.05,0,0,0-1.4,2.46,2.016,2.016,0,0,0,2.46,1.4Z"/><path class="a" d="M288.089,178.292c-.435-.058-.028,0,.16.041s.4.084.6.131c.5.117.989.256,1.478.405,1.125.345,2.23.751,3.322,1.189A68.387,68.387,0,0,1,301.744,184c5.839,3.286,11.909,7.348,15.968,12.78a57.619,57.619,0,0,1,5.474,8.974c1.138,2.309,4.589.284,3.454-2.019A47.638,47.638,0,0,0,314.1,187.546a75.551,75.551,0,0,0-18.457-10.966,30.016,30.016,0,0,0-7.553-2.288,2.01,2.01,0,0,0-2,2,2.052,2.052,0,0,0,2,2Z"/><path class="a" d="M208.978,178.464a64.9,64.9,0,0,0,14.237,6.651,84.987,84.987,0,0,0,18.341,4.109c11.272,1.236,22.845-.658,33.537-4.289,4.736-1.608,9.646-3.549,13.528-6.784,1.979-1.65-.864-4.466-2.829-2.828-2.81,2.342-6.827,3.99-10.391,5.275a90.093,90.093,0,0,1-15.465,4.024,71.286,71.286,0,0,1-33.476-2.648A62.913,62.913,0,0,1,211,175.01c-2.166-1.405-4.173,2.057-2.019,3.454Z"/><path class="a" d="M206.306,174.364a22.532,22.532,0,0,0-6.61,2.391,69.054,69.054,0,0,0-8.675,5.138c-6.182,4.236-12.212,9.221-16.543,15.4-7.865,11.214-10.443,25.284-12.061,38.606-1.171,9.641-2.059,19.3-2.544,29-.128,2.572,3.872,2.566,4,0q.625-12.519,2.066-24.966a159.265,159.265,0,0,1,2.967-18.836,67.9,67.9,0,0,1,7.161-18.883c3.637-6.175,9.042-11.11,14.783-15.313a75.84,75.84,0,0,1,9.646-6.073,21.7,21.7,0,0,1,6.873-2.6,2.012,2.012,0,0,0,1.4-2.46,2.052,2.052,0,0,0-2.46-1.4Z"/><path class="a" d="M298.447,230.951c.1,3.876.245,7.782.07,11.657a49.306,49.306,0,0,1-2.084,11.95c-.734,2.473,3.125,3.529,3.857,1.063a53.8,53.8,0,0,0,2.206-12.582c.212-4.016.055-8.07-.049-12.088-.066-2.569-4.067-2.579-4,0Z"/><path class="a" d="M173.531,191.533c7.481-6.145,14.96-12.294,22.53-18.328,7.778-6.2,15.965-11.811,23.943-17.745q8.3-6.174,16.416-12.594a2.012,2.012,0,0,0,0-2.828,2.051,2.051,0,0,0-2.829,0c-9.941,7.818-20.089,15.332-30.4,22.662-7.028,5-13.655,10.609-20.338,16.051q-6.091,4.96-12.156,9.953c-1.99,1.635.854,4.451,2.829,2.829Z"/><path class="a" d="M181.531,204.459c6.718-6.846,14.043-13.159,21.106-19.641,10-9.176,20.023-18.323,29.961-27.563,3.23-3,6.519-5.971,9.6-9.13,1.8-1.844-1.027-4.675-2.828-2.828-6.979,7.156-14.585,13.762-21.94,20.523-9.908,9.107-19.852,18.174-29.727,27.315-3.023,2.8-6.113,5.554-9,8.5-1.8,1.839,1.022,4.67,2.829,2.829Z"/><path class="b" d="M206.556,219.866c.066-2.423.127-6.468.2-9.43a6.5,6.5,0,0,0,1.48-1.168,48.967,48.967,0,0,0,3.426-4.735,21.454,21.454,0,0,0,2.908-4.155c.716-1.708.472-3.68.665-5.537.365-3.516,3.028-5.271,5.69-7.353,1.145-.9,3.769-2.066,4.088-3.677.284-1.438-1.08-3.163-2.4-3.747l.612-.891a4.638,4.638,0,0,0-.259-5.552l-1.666-1.687,1.254-.208c2.2-.365,3.8-3.436,1.895-5.347-1.614-1.62-5.246-1.524-7.469-1.425l-.99-.958c2.7-.061,3.836-4.033,1.475-5.821-2.12-1.606-6.09-1.056-8.428-.7-5.711.862-12.967,3.473-17.273,7.524-1.793,2.435-3.013,7.171-3.19,10.722-.179,3.573-1.377,19.036-1.633,23.176-.23,3.728.889,9.638.537,13.35-.4,1.448-.89,2.88-1.436,4.3Z"/><path class="a" d="M215.975,166a5.186,5.186,0,0,0,4.6-6.5c-.862-3.5-4.632-4.467-7.793-4.4a37.3,37.3,0,0,0-19.766,6.344,11.131,11.131,0,0,0-3.657,3.6,21.44,21.44,0,0,0-1.893,4.935,41.356,41.356,0,0,0-1.033,7.849c-.345,5.225-.75,10.445-1.129,15.667-.173,2.386-.458,4.806-.4,7.2.1,3.847.879,7.7.559,11.556-.212,2.565,3.789,2.551,4,0a59.02,59.02,0,0,0-.431-9.183,43.281,43.281,0,0,1,.034-6.258c.317-4.547.663-9.093.992-13.64.308-4.276.257-8.741,1.473-12.879a15.268,15.268,0,0,1,1.441-3.51,9.522,9.522,0,0,1,3.334-2.715,33.994,33.994,0,0,1,8.559-3.637,27.437,27.437,0,0,1,9.164-1.306c.968.07,2.466.287,2.688,1.441.1.54-.165,1.4-.742,1.439-2.552.187-2.572,4.188,0,4Z"/><path class="a" d="M199.873,174.025a3.859,3.859,0,0,1,.192-.366c.188-.331-.138.136.13-.178a11.687,11.687,0,0,1,1.012-1.028,21.25,21.25,0,0,1,2.835-2.16,18.138,18.138,0,0,1,7.652-2.852,32.886,32.886,0,0,1,9.234-.419c.707.106,2.043.308,2.311,1.115s-.526,1.5-1.231,1.66c-2.513.556-1.45,4.413,1.063,3.857,3.892-.86,5.72-6.125,2.566-8.883-2.831-2.474-7.492-1.965-10.948-1.67-4.094.35-7.893.941-11.488,3.016a28.8,28.8,0,0,0-4.406,3.137,8.613,8.613,0,0,0-2.376,2.752,2.064,2.064,0,0,0,.718,2.736,2.015,2.015,0,0,0,2.736-.717Z"/><path class="a" d="M208.38,179.329c.066-.128.146-.244.219-.367.248-.417-.162.15.129-.165.265-.288.519-.584.792-.865q.907-.931,1.9-1.771c.159-.134.319-.267.483-.394-.241.187-.1.074.063-.033a7.021,7.021,0,0,1,.879-.481,10.731,10.731,0,0,1,2.939-.66c.961-.088,1.933-.095,2.9-.109a6.642,6.642,0,0,1,2.345.226c-.026-.011.545.328.342.17a1.108,1.108,0,0,1,.314.346,2.516,2.516,0,0,1,.157.283q-.085-.216.039.133c.016.055.137.621.1.343a2.891,2.891,0,0,1-.5,2.179,2,2,0,0,0,3.454,2.019,6.605,6.605,0,0,0-.571-7.976c-1.978-2-5.052-1.775-7.629-1.676a12.771,12.771,0,0,0-7.532,2.31,15.358,15.358,0,0,0-4.279,4.469,2.046,2.046,0,0,0,.717,2.736,2.021,2.021,0,0,0,2.737-.717Z"/><path class="a" d="M214.107,186.234c1.649-1.788,3.915-4.285,6.5-4.519a2.2,2.2,0,0,1,2.426,1.784c-.019-.317.095-.1-.112.081-.227.2-.427.423-.668.61-.577.447-1.227.8-1.831,1.2-2.562,1.727-5.37,3.875-6.573,6.811a16.537,16.537,0,0,0-.768,5.462,7.412,7.412,0,0,1-2.008,4.386c-1.305,1.618-2.337,3.418-3.615,5.048-1.344,1.715-3.2,2.281-5.06,3.263-2.278,1.2-.259,4.654,2.019,3.453,1.969-1.037,3.975-1.729,5.5-3.443,1.465-1.648,2.484-3.624,3.86-5.339,1.412-1.761,2.774-3.468,3.134-5.764.306-1.951-.124-4.19.823-5.984,1.662-3.146,5.392-4.291,7.8-6.66,3.245-3.187.4-8.177-3.627-8.82-4.235-.677-7.985,2.728-10.635,5.6-1.742,1.89,1.079,4.726,2.829,2.828Z"/><path class="a" d="M208.539,219.866c.083-3.028.16-6.058.341-9.082a2.012,2.012,0,0,0-2-2,2.046,2.046,0,0,0-2,2c-.181,3.024-.258,6.054-.341,9.082a2.018,2.018,0,0,0,2,2,2.04,2.04,0,0,0,2-2Z"/><path class="a" d="M185.535,211.712c-.4,1.458-.9,2.889-1.436,4.3a2.008,2.008,0,0,0,.2,1.541,2,2,0,0,0,2.737.717l.4-.312a2,2,0,0,0,.515-.883c.541-1.412,1.034-2.842,1.436-4.3a2.071,2.071,0,0,0-.2-1.541,2,2,0,0,0-2.736-.718,2.086,2.086,0,0,0-.919,1.195Z"/><path class="a" d="M173.283,250.612c2.283-11.664,6.256-22.95,9.482-34.37l-1.929,1.468c.623.079,1.859.26,2.84.414q1.958.306,3.911.641c2.956.5,5.906,1.031,8.856,1.564,4.557.825,9.11,1.762,13.695,2.421l-1.468-1.929c.058.508.13,1.013.2,1.519.029.2.06.408.087.613-.061-.455.054.468.07.615.223,2.07.309,4.155.382,6.235a152.852,152.852,0,0,1-.206,15.584,126.361,126.361,0,0,1-5,27.917,33.882,33.882,0,0,1-4.4,9.637,26.013,26.013,0,0,1-8.244,7.467,17.331,17.331,0,0,1-18.451-.433c-7.939-5.3-9.507-16.277-9.233-25.079.081-2.575-3.92-2.573-4,0-.282,9.067,1.379,19.724,8.307,26.232a21.2,21.2,0,0,0,20.991,4.722c7.7-2.541,13.857-8.925,17-16.269a69.2,69.2,0,0,0,3.548-11.6,144.269,144.269,0,0,0,2.885-16.085,141.8,141.8,0,0,0,.888-18.736c-.046-2.907-.127-5.825-.384-8.721-.073-.824-.172-1.643-.285-2.462q-.054-.384-.109-.768a2.529,2.529,0,0,1-.049-.384c-.091-.789-.551-1.8-1.469-1.928-10.163-1.46-20.172-3.892-30.365-5.183a2.006,2.006,0,0,0-1.928,1.469c-3.226,11.42-7.2,22.706-9.482,34.37-.492,2.515,3.363,3.591,3.857,1.063Z"/><path class="a" d="M183,294.832c0,1.881.011,3.762.011,5.642a2,2,0,0,0,4,0c0-1.88-.011-3.761-.011-5.642a2,2,0,0,0-4,0Z"/><path class="b" d="M229.736,231.461a6.673,6.673,0,0,1,1.15-1.084c.111-4.222,6.381-8.05,9.333-8.444,4.507-.6,12.037-1.334,15.184.85,2.633,1.827,4.26,1.792,7.333,2.222,2.6.365,5.171,3.113,6.445,5.556,1.873,3.59,2.785,6.876,1.833,10.779-2.94,4.44-13.066,5.352-21.56,5.456-6.84.084-16.955-2.113-21.459-4.673l-.534-.928C225.256,238.879,227.61,233.909,229.736,231.461Z"/><path class="b" d="M226.61,240.911c2.943,3.033,15.222,5.982,23.128,5.885,8.761-.108,19.259-1.074,21.82-5.885.21,4.922-.739,10.9-3.558,15a20.439,20.439,0,0,1-13.164,8.228,29.529,29.529,0,0,1-22.733-5.4c-5.649-4.265-6.35-11.187-5.493-17.833"/><path class="a" d="M225.2,242.325c1.919,1.9,4.739,2.874,7.251,3.684a60.364,60.364,0,0,0,10.49,2.3,59.366,59.366,0,0,0,10.828.371,54.664,54.664,0,0,0,11.093-1.451c3.209-.831,6.722-2.274,8.427-5.307,1.263-2.247-2.191-4.266-3.454-2.019-1.08,1.921-3.6,2.808-5.709,3.382a46.753,46.753,0,0,1-9.774,1.366,58.063,58.063,0,0,1-19.214-2.007,32.827,32.827,0,0,1-4.417-1.526,15.329,15.329,0,0,1-1.682-.864c-.216-.13-.431-.264-.634-.413-.275-.2.192.152-.055-.044a4.332,4.332,0,0,1-.322-.3c-1.832-1.812-4.662,1.015-2.828,2.828Z"/><path class="a" d="M224.61,240.911c-.605,4.859-.417,10.029,1.96,14.428,2.573,4.764,7.738,7.694,12.685,9.453,10.1,3.593,22.8,2.036,29.7-6.831,3.7-4.751,4.818-11.155,4.6-17.05-.094-2.566-4.095-2.578-4,0,.164,4.476-.439,9.3-2.779,13.2a17.835,17.835,0,0,1-10.595,7.672,26.329,26.329,0,0,1-13.925-.234c-4.14-1.161-8.993-3.356-11.5-7.021-2.722-3.978-2.723-9.014-2.15-13.619a2.011,2.011,0,0,0-2-2,2.049,2.049,0,0,0-2,2Z"/><path class="a" d="M229.158,239.78a1.747,1.747,0,0,1-.293-1.353,7.434,7.434,0,0,1,.624-2.363,11.122,11.122,0,0,1,2.8-4.043c-.175.154-.272.341.3-.23a2.105,2.105,0,0,0,.514-.882c.13-.472.08-.894.242-1.359a5.9,5.9,0,0,1,1.3-2.009,13.269,13.269,0,0,1,4.57-3.169,15.763,15.763,0,0,1,4.774-.837,39.461,39.461,0,0,1,6.7-.139,12.462,12.462,0,0,1,2.563.452,12.041,12.041,0,0,1,2.453,1.311,16.89,16.89,0,0,0,6.322,1.714c2.589.353,4.414,2.321,5.625,4.537a13.459,13.459,0,0,1,1.885,8.619,2.06,2.06,0,0,0,1.4,2.46,2.015,2.015,0,0,0,2.46-1.4,17.932,17.932,0,0,0-3.878-14.028,10.809,10.809,0,0,0-5.455-3.883c-1.886-.479-3.886-.329-5.7-1.141-.821-.368-1.508-.958-2.308-1.36a10.757,10.757,0,0,0-2.6-.9,25.7,25.7,0,0,0-5.919-.453c-3.513.079-7.37.211-10.6,1.713-3.681,1.713-7.517,5.028-7.766,9.341l.99-1.727c-3.755,2.767-7.443,9.835-3.83,13.959,1.7,1.94,4.519-.9,2.828-2.829Z"/><path class="a" d="M241.336,234.977c-.011-.11.021-.414-.033,0-.071.538.137-.228-.065.249s-.013,0,.032,0c0,0-.424.443-.123.176.059-.052.119-.108.175-.163.229-.23-.423.286-.138.107.153-.095.3-.194.46-.28.1-.052.193-.1.292-.148.074-.036.414-.179.062-.035s.039-.013.111-.04.175-.064.262-.095a10.271,10.271,0,0,1,1-.292c.135-.031.271-.055.407-.083.27-.055-.62.063-.255.035.094-.008.187-.017.281-.023q.308-.016.617-.007c.109,0,.218.008.327.016.075,0,.564.071.18.009s.05.011.126.025c.129.024.258.052.386.084.211.053.418.155.629.2-.447-.095-.292-.13-.1-.025.089.048.172.1.259.155.309.182-.322-.317-.1-.072a1.947,1.947,0,0,0,.581.47,2.04,2.04,0,0,0,2.222-.156,2,2,0,0,0,.716-2.1,2.1,2.1,0,0,0-.206-.493q-.6-.774-.047-.071a2,2,0,1,0-3.454,2.019,4.573,4.573,0,0,0,.36.476l-.514-.883,0,.015,2.938-2.258q.464.379.229.155-.069-.066-.144-.126a5.831,5.831,0,0,0-.646-.482,6.07,6.07,0,0,0-1.035-.479,8.056,8.056,0,0,0-1.938-.417,8.284,8.284,0,0,0-3.032.2,10.009,10.009,0,0,0-2.815,1.138,3.641,3.641,0,0,0-2.014,3.211,2.164,2.164,0,0,0,.586,1.414,2,2,0,0,0,3.414-1.414Z"/><path class="b" d="M286.9,257.181c-.926,1.945-1.964,4.707-2.809,6.677-1.516,3.54-5,9.662-7.421,15.616l-.393-.319c-2.17-1.935-7.668-5.869-10.249-6.966l-.83-.421c-2.432.669-7.089,2.1-9.449,2.326-4.877.466-9.585.928-14.417.116s-9.316-2.754-12.111-6.777a23.467,23.467,0,0,1-3.678-8.239c-.266-1.261.289-3.039,3.659-3.684,3.273-.626,4.5,1.727,6.3,3.867,5.571,6.64,16.188,7.281,23.4,3.334l-.089-.009c-6.541-.777-4.5-5.855.4-7.55,2.088-.722,4.4-.71,6.278-1.854,2.144-1.306,3.088-3.986,5.492-5.02,6.014-2.589,8.456,3.174,11.376,5.8,1.195.7,2.9,2.229,4.365,2.637"/><path class="b" d="M276.281,279.155c-2.414-2.152-8.945-6.778-11-7.222"/><path class="a" d="M277.7,277.741a57.878,57.878,0,0,0-6.039-4.565c-1.033-.7-2.083-1.376-3.17-1.986A10.568,10.568,0,0,0,265.812,270a2,2,0,1,0-1.063,3.857,3.858,3.858,0,0,1,.445.134c.073.027.145.064.22.086-.641-.192-.247-.1-.074-.023.419.2.827.416,1.229.644,1.051.6,2.067,1.252,3.068,1.928q1.594,1.078,3.132,2.237l.319.242.208.159-.2-.156c.085.186.5.392.668.529.375.3.745.609,1.1.928a2,2,0,0,0,2.829-2.828Z"/><path class="b" d="M286.725,256.71c-1.46-.408-3.17-1.936-4.365-2.637-2.92-2.621-5.362-8.384-11.376-5.8-2.4,1.034-3.348,3.714-5.492,5.02-1.877,1.144-4.19,1.132-6.278,1.854-4.9,1.695-6.941,6.773-.4,7.55,4.63.55,9.12-2.479,13.739-1.96"/><path class="a" d="M287.257,254.782a12.153,12.153,0,0,1-4.864-3.575,25.532,25.532,0,0,0-3.761-3.882c-3.773-2.86-8.707-1.775-11.685,1.686a17.624,17.624,0,0,1-2.052,2.27,7.7,7.7,0,0,1-3.4,1.258,13.921,13.921,0,0,0-6.352,2.644c-2.816,2.331-3.546,6.669.155,8.574,5.742,2.955,11.435-1.54,17.253-1.015a2.016,2.016,0,0,0,2-2,2.042,2.042,0,0,0-2-2,19.97,19.97,0,0,0-7,.953c-2.13.578-4.357,1.3-6.594,1.027a4.8,4.8,0,0,1-2.081-.668c.124.084-.351-.457-.173-.177-.126-.2-.049-.1-.033-.137-.088.187.094-.391.026-.222.063-.155.29-.541.286-.537a4.953,4.953,0,0,1,1.482-1.285c1.734-1.046,3.782-1.114,5.686-1.678a10.43,10.43,0,0,0,5.179-3.655c1.171-1.4,2.338-2.615,4.277-2.733a4.571,4.571,0,0,1,3.411,1.552c1.2,1.151,2.165,2.515,3.314,3.712a16.03,16.03,0,0,0,2.455,1.885,12.878,12.878,0,0,0,3.4,1.86c2.452.805,3.5-3.057,1.064-3.857Z"/><path class="a" d="M265.876,269.536c-1.9.4-3.761,1.041-5.636,1.547a39.121,39.121,0,0,1-7.154,1.259c-6.16.536-13.046.778-18.523-2.59a14.977,14.977,0,0,1-5.377-6.287,19.684,19.684,0,0,1-1.516-3.979c.01.041-.337-1.3-.173-.632-.017-.069.03-.627-.027-.192a.781.781,0,0,1,.368-.559,3.961,3.961,0,0,1,2.834-.661,4.526,4.526,0,0,1,2.186,1.816,20.907,20.907,0,0,0,5.661,5.206,22.3,22.3,0,0,0,17.567,1.606c2.449-.763,1.4-4.626-1.063-3.857-5.245,1.635-11.452,1.264-15.943-2.157-2.182-1.662-3.388-4.377-5.751-5.8a7.428,7.428,0,0,0-8.32,1.016c-2.209,2.048-1.48,4.832-.541,7.33a22.175,22.175,0,0,0,5.32,8.516c5.106,4.727,12.534,5.751,19.218,5.5a53.028,53.028,0,0,0,10.548-1.222c2.473-.606,4.894-1.475,7.385-2,2.517-.531,1.452-4.388-1.063-3.857Z"/><path class="a" d="M323.186,205.757a88.315,88.315,0,0,1,7.405,20.128c1.514,6.484,2.538,13.1,3.506,19.686.924,6.281,1.641,12.6,2.033,18.938.2,3.278.316,6.566.26,9.851a38.627,38.627,0,0,1-.756,8.643c-3.406,13.543-21.71,12.837-32.422,11.206a88.15,88.15,0,0,1-22-6.787c-1.308-.568-2.918-1.075-3.89-2.17-.185-.209-.322-.591-.525-.757-.243-.2.028.267-.014.289.316-.168.62-1.565.746-1.924a87.361,87.361,0,0,1,4.3-9.845c1.323-2.669,2.751-5.3,3.943-8.03.709-1.626,1.343-3.284,2.028-4.921.1-.229,1.753-3.669,1.72-3.695.076.06-.5.39-.541.408-.247.111-.5-.088-.162.056a18.981,18.981,0,0,0,1.849.545c1.046.319,2.105.6,3.163.876,2.662.7,5.334,1.357,7.993,2.07.975.262,1.952.526,2.913.838,2.454.8,3.5-3.064,1.063-3.857-5-1.624-10.2-2.7-15.255-4.153a3.945,3.945,0,0,0-3.668.3,8.084,8.084,0,0,0-1.932,3.226c-1.4,3.069-2.531,6.24-4.032,9.265-1.675,3.378-3.426,6.72-4.959,10.167-.8,1.806-1.559,3.634-2.215,5.5-.473,1.344-1.243,2.6-.773,4.063,1.124,3.5,5.184,4.743,8.185,6.1a83.226,83.226,0,0,0,11.781,4.308,74.059,74.059,0,0,0,25.134,2.725c6.4-.459,13.168-2.352,17.546-7.355,4.484-5.123,4.768-11.871,4.793-18.362a171.706,171.706,0,0,0-1.5-21.552c-.838-6.82-1.9-13.624-3.149-20.382a99.217,99.217,0,0,0-6.368-21.621c-.85-1.961-1.774-3.887-2.746-5.79-1.17-2.293-4.623-.272-3.454,2.019Z"/><path class="d" d="M301.182,71.172c-.241-1.55-.5-2.961-.743-4.177-4.75-23.476-28.218-42.12-52.824-40.758C223.009,24.875,199.541,43.519,194.791,67c-1.287,6.328-1.13,17.165.041,22.214l2.1,7.775a6.45,6.45,0,0,1,5.86,2.94c9.238-7.289,25.863-17.976,34.035-25-.7,4.36-3.2,11.775-.054,11.013,13.13-3.04,25.714-9.171,33.323-18.737,1.6,5.649,4.255,13.278,6.2,16.612,2.474,4.237,9.077,13.348,15.507,16.237.943-.817,1.625-1.405,1.625-1.405a6.845,6.845,0,0,1,5.473-1.594,6.58,6.58,0,0,1,1.636.467C303.206,89.947,302.378,78.855,301.182,71.172Z"/><path class="a" d="M289.788,121.326c.411,5.9-1.413,11.791-4.2,16.936a34.593,34.593,0,0,1-12.455,13.56,19.471,19.471,0,0,1-9.116,2.815c-2.566.094-2.578,4.095,0,4,14.01-.516,24.677-13.965,28.407-26.442a30.792,30.792,0,0,0,1.36-10.869c-.178-2.553-4.179-2.573-4,0Z"/><path class="a" d="M203.167,97.233a8.893,8.893,0,0,0-11.591-.126c-3.379,2.916-3.278,8.3-2.769,12.365a28.042,28.042,0,0,0,4.617,12.655c2.332,3.3,6.029,6.568,10.359,6.06a2.061,2.061,0,0,0,2-2,2.012,2.012,0,0,0-2-2c-2.974.349-5.439-1.952-7.023-4.249a24.95,24.95,0,0,1-4.163-14.176,10.089,10.089,0,0,1,.773-4.626c1.332-2.455,4.929-2.8,6.969-1.075,1.955,1.651,4.8-1.165,2.828-2.828Z"/><path class="a" d="M200.971,115.756a48.68,48.68,0,0,0,6.937,24.229,45.718,45.718,0,0,0,6.774,8.549,49.1,49.1,0,0,0,8.911,7.508,27.786,27.786,0,0,0,13.214,4.34c2.57.158,2.561-3.843,0-4-7.429-.458-13.5-4.815-18.577-9.939a44.008,44.008,0,0,1-6.306-7.547,47.007,47.007,0,0,1-4.767-10.391,40.733,40.733,0,0,1-2.186-12.749c.014-2.574-3.986-2.577-4,0Z"/><path class="a" d="M294.847,100.051a4.749,4.749,0,0,1,6.782.789,8.1,8.1,0,0,1,.945,4.266,24.443,24.443,0,0,1-.286,4.917,25.369,25.369,0,0,1-3.3,9.048,12.817,12.817,0,0,1-2.866,3.422,7.1,7.1,0,0,1-4.161,1.154c-2.564.112-2.578,4.113,0,4a11.791,11.791,0,0,0,5.97-1.531,15.512,15.512,0,0,0,4.292-4.676,28.927,28.927,0,0,0,4.226-12.621c.406-3.967.376-9.067-2.986-11.823a8.887,8.887,0,0,0-11.446.227c-1.975,1.655.867,4.472,2.828,2.828Z"/><path class="a" d="M196.761,88.678a43.161,43.161,0,0,1-.839-8.234,73.468,73.468,0,0,1,.326-9.784,43.3,43.3,0,0,1,5.83-17.1,52.119,52.119,0,0,1,28.354-22.98,46.875,46.875,0,0,1,9.145-2.083c3.222-.38,6.426-.251,9.657-.316A47.481,47.481,0,0,1,267.627,31.6a52.03,52.03,0,0,1,27.025,24.723,53.552,53.552,0,0,1,4.8,16.745c.895,6.341,1.385,13.068.292,19.414a28.835,28.835,0,0,1-1.138,4.5c-.839,2.439,3.024,3.487,3.857,1.063,2.263-6.577,2.113-13.954,1.474-20.792-.585-6.258-1.544-12.612-3.854-18.488A55.528,55.528,0,0,0,273.526,29.9a53.111,53.111,0,0,0-19.468-5.57,95.134,95.134,0,0,0-10.034-.152,50.66,50.66,0,0,0-10.222,1.3,56.158,56.158,0,0,0-32.609,22.086,50.047,50.047,0,0,0-8.148,18.044,62.4,62.4,0,0,0-.783,20.024,36.769,36.769,0,0,0,.642,4.11c.565,2.51,4.422,1.448,3.857-1.063Z"/><path class="a" d="M268.362,68.414c1.69,5.773,3.481,11.984,6.654,17.146a53.785,53.785,0,0,0,10.445,12.619,19.168,19.168,0,0,0,7.991,4.524c2.506.567,3.577-3.289,1.063-3.857-3.026-.685-5.562-2.777-7.747-4.884a52.531,52.531,0,0,1-6.472-7.656c-4-5.7-6.136-12.325-8.076-18.956-.722-2.465-4.583-1.416-3.858,1.064Z"/><path class="a" d="M268.814,65.616a47.3,47.3,0,0,1-16.165,12.63,68.706,68.706,0,0,1-9.872,3.968q-2.642.843-5.337,1.5c-.1.024-1.2.282-1.2.287-.023-.12.68.173.725.208.134.106.4.391.308.36-.111-.036-.048-.248-.05-.442-.032-2.916,1.055-5.822,1.532-8.679a2.018,2.018,0,0,0-3.343-1.946C224.322,83,211.492,90.269,200.17,99.478a2.012,2.012,0,0,0,0,2.828,2.046,2.046,0,0,0,2.828,0c11.323-9.209,24.147-16.469,35.243-25.971L234.9,74.389c-.52,3.114-1.6,6.223-1.673,9.4a4.415,4.415,0,0,0,1.108,3.42c1.371,1.268,3.183.622,4.767.219a70.065,70.065,0,0,0,22.7-9.931,45.8,45.8,0,0,0,9.838-9.051,2.062,2.062,0,0,0,0-2.828,2.014,2.014,0,0,0-2.829,0Z"/><path class="a" d="M224.263,105.669c-.744,2.42-.259,7.985,4.325,8.459,6.058-.036,6.38-6.765,4.341-9.929C231.259,101.608,226.349,100.531,224.263,105.669Z"/><path class="a" d="M272.776,105.669c.744,2.42.259,7.985-4.324,8.459-6.058-.037-6.381-6.766-4.342-9.929C265.78,101.608,270.69,100.531,272.776,105.669Z"/><path class="a" d="M238.413,136.711c2.564,2.51,6.631,3.234,10.071,3.231s7.507-.72,10.073-3.231c1.843-1.8-.987-4.632-2.828-2.829-.084.082-.505.44-.263.248.225-.179-.319.213-.445.29-.225.138-.456.265-.691.384-.158.079-.319.155-.481.226.268-.117-.031.009-.148.051a15.232,15.232,0,0,1-5.217.861,14.858,14.858,0,0,1-5.125-.826c-.016-.006-.6-.244-.242-.086-.136-.06-.27-.123-.4-.188-.262-.129-.518-.268-.767-.422-.19-.117-.369-.249-.554-.375.5.345-.029-.042-.152-.163-1.841-1.8-4.672,1.024-2.828,2.829Z"/><path class="a" d="M248.045,117.693a41.479,41.479,0,0,1,.975,4.458l-.072-.532a2.646,2.646,0,0,1,.017.616l.072-.532a1.556,1.556,0,0,1-.068.277l.2-.478a1.183,1.183,0,0,1-.1.178l.313-.405a.946.946,0,0,1-.146.144l.405-.313a2.978,2.978,0,0,1-.353.187l.477-.2a2.571,2.571,0,0,1-.595.174l.532-.071a2.43,2.43,0,0,1-.559,0l.532.071c-.211-.029-.417-.081-.628-.109a2.209,2.209,0,0,0-1.541.2,2,2,0,0,0-.718,2.736,1.915,1.915,0,0,0,1.2.919c.454.061.894.178,1.356.2a4.3,4.3,0,0,0,1.967-.463,2.777,2.777,0,0,0,1.557-1.838,4.736,4.736,0,0,0-.021-2.011c-.243-1.436-.575-2.86-.944-4.269a2,2,0,0,0-3.858,1.064Z"/><path class="a" d="M255.6,132.346c1.472,2.66,2.1,6.106,4.98,7.708A2,2,0,1,0,262.6,136.6c-.078-.043-.336-.27-.409-.259.063-.01.449.367.149.108-.052-.045-.1-.091-.154-.139-.112-.106-.219-.218-.321-.334-.057-.065-.108-.135-.166-.2.413.449.2.262.1.126a11.642,11.642,0,0,1-1.052-1.841c-.586-1.234-1.03-2.539-1.692-3.736a2.02,2.02,0,0,0-2.736-.718,2.042,2.042,0,0,0-.718,2.737Z"/><path class="e" d="M97.849,42.249c-.529,2.167.623,6.926,1.691,8.908a15.24,15.24,0,0,0,3.826,4.362c1.276-1.1,3.346-3.125,3.976-5.18a19.342,19.342,0,0,0,6.175,4.307c2.186.771,7.88,1.593,10.779.289a11.66,11.66,0,0,0-2.981-7.132,30.888,30.888,0,0,0-4.447-3.958l-1.156-.8,1.532.365c2.966.707,8.271-.478,10.733-2.159,4.919-3.357,7.133-7.542,7.323-8.645a30.308,30.308,0,0,0-6.708-3.725,19.983,19.983,0,0,0-7.943-1.042l-.5.126.418-.25c1.043-.622,4.216-5.868,5.214-8.632,1.371-3.795,1.55-11.212.431-13.444-3.4-.9-9.441,1.94-11.9,3.812-3.065,2.33-5.762,4.921-6.7,6.9l-.259.544.051-.6c.183-2.124-.831-4.772-1.972-6.831-1.072-1.936-3.753-6.088-6.714-7.483-3.9,4.034-6.351,9.848-6.415,14.482a59.275,59.275,0,0,0,.525,6.156c-1.866-3.129-8.866-6.626-11.916-6.215a9.164,9.164,0,0,0,.05,5.75,17.9,17.9,0,0,0,3.383,6.338,22.132,22.132,0,0,0,4.051,4.124l.545.393-.108-.017c-1.047-.16-3.346,1.584-4.243,2.111a17.2,17.2,0,0,0-2.7,2.422c.974,1.811,5.439,4.236,7.289,4.809,2.381.736,6.07,1.136,8.338.477"/><path class="e" d="M44.214,135.383c-2.122-.688-6.954.108-9.009,1.026a15.245,15.245,0,0,0-4.634,3.493c1,1.353,2.868,3.568,4.871,4.349a19.337,19.337,0,0,0-4.753,5.838c-.931,2.124-2.173,7.74-1.087,10.728a11.658,11.658,0,0,0,7.333-2.444,30.94,30.94,0,0,0,4.278-4.141l.885-1.094-.478,1.5c-.925,2.905-.137,8.283,1.357,10.863,2.984,5.155,6.992,7.673,8.079,7.945a30.326,30.326,0,0,0,4.211-6.414,19.985,19.985,0,0,0,1.629-7.844l-.089-.5.218.435c.543,1.087,5.539,4.639,8.221,5.84,3.684,1.649,11.067,2.377,13.375,1.427,1.155-3.327-1.234-9.56-2.918-12.153-2.1-3.23-4.481-6.111-6.382-7.2l-.523-.3.591.1c2.105.339,4.821-.475,6.959-1.46,2.009-.926,6.349-3.292,7.96-6.142-3.734-4.187-9.35-7.063-13.967-7.471a59.329,59.329,0,0,0-6.178.067c3.259-1.629,7.265-8.35,7.081-11.422a9.162,9.162,0,0,0-5.737-.376,17.9,17.9,0,0,0-6.572,2.9,22.116,22.116,0,0,0-4.413,3.734l-.432.514.025-.107c.237-1.032-1.332-3.454-1.791-4.388a17.3,17.3,0,0,0-2.214-2.877c-1.879.837-4.629,5.111-5.336,6.913-.912,2.32-1.583,5.969-1.094,8.28"/><path class="f" d="M89.743,90.644c-1.422.992-3.2,4.359-3.593,6.063a11.842,11.842,0,0,0-.012,4.512,10.238,10.238,0,0,0,4.982-.977,15.012,15.012,0,0,0,1.386,5.686c.878,1.574,3.775,4.981,6.136,5.71a9.059,9.059,0,0,0,1.929-5.69,24,24,0,0,0-.558-4.595l-.262-1.062.706,1a13.083,13.083,0,0,0,7.368,4.259c4.595.571,8.037-.73,8.715-1.276a23.56,23.56,0,0,0-2-5.621,15.542,15.542,0,0,0-4.1-4.691l-.353-.181.372.069c.928.174,5.475-1.254,7.478-2.352,2.751-1.509,6.668-5.741,7.163-7.618-1.519-2.277-6.5-3.723-8.9-3.9-2.985-.217-5.89-.093-7.456.575l-.431.183.337-.321a10.339,10.339,0,0,0,2.362-5c.37-1.68.942-5.48-.068-7.816a17.853,17.853,0,0,0-11.186,5.147,45.938,45.938,0,0,0-2.859,3.86c.52-2.785-1.763-8.423-3.753-9.751a7.125,7.125,0,0,0-2.927,3.379,13.921,13.921,0,0,0-1.286,5.435,17.217,17.217,0,0,0,.242,4.487l.116.509-.055-.065c-.528-.632-2.765-.8-3.559-.951a13.458,13.458,0,0,0-2.823.022c-.363,1.557.994,5.267,1.778,6.551A13.228,13.228,0,0,0,89.257,90.8"/><path class="a" d="M3.357,161.125c4.6-5.174,9.15-10.391,13.93-15.4,4.757-4.985,9.754-9.742,14.573-14.669,4.857-4.967,9.92-9.718,14.81-14.647a76.4,76.4,0,0,0,8.907-10.836c4.417-6.5,8.636-13.126,12.983-19.668,3.891-5.855,8.073-11.893,12.212-17.251C83.8,64.74,86.818,60.82,89.8,56.869c2.447-3.247,4.982-6.481,7.147-9.927,1.374-2.186-2.086-4.2-3.454-2.019-1.893,3.014-4.09,5.852-6.223,8.7q-4.049,5.4-8.186,10.734c-4.172,5.411-8.26,10.994-12.106,16.734-4.629,6.908-9.13,13.9-13.742,20.817a79.7,79.7,0,0,1-6.658,8.769c-4.378,4.933-9.415,9.29-14.044,13.987-5.477,5.557-11.053,11.025-16.5,16.609-5.361,5.493-10.4,11.289-15.5,17.025-1.7,1.919,1.115,4.758,2.829,2.829Z"/><path class="a" d="M60.489,97.639C64.5,96.992,68.465,96,72.445,95.184a111.881,111.881,0,0,1,15.72-1.622c2.557-.158,2.575-4.159,0-4a118.578,118.578,0,0,0-16.518,1.711c-4.069.831-8.12,1.847-12.222,2.509a2.016,2.016,0,0,0-1.4,2.46,2.049,2.049,0,0,0,2.461,1.4Z"/><path class="a" d="M95.92,41.717a16.78,16.78,0,0,0,6.032,15.216,2.062,2.062,0,0,0,2.829,0,14.615,14.615,0,0,0,4.49-6.063l-3.343.883a17.293,17.293,0,0,0,8.549,5.231c3.214.716,7.228,1.187,10.35-.121a2.063,2.063,0,0,0,1.469-1.928,14.292,14.292,0,0,0-3.252-8.189,32.475,32.475,0,0,0-6.323-5.43l-1.541,3.655c4.561,1.088,9.79.659,13.806-1.995a24.377,24.377,0,0,0,5.964-5.636,11.342,11.342,0,0,0,2.279-4.2,2.1,2.1,0,0,0-.919-2.259,25.675,25.675,0,0,0-9.09-4.481,16.72,16.72,0,0,0-7.6-.362l1.541,3.656c2.526-1.507,4.1-4.851,5.369-7.387a24.37,24.37,0,0,0,2.392-10.189,25.491,25.491,0,0,0-.291-5.294,7.877,7.877,0,0,0-.416-1.562,2.713,2.713,0,0,0-2.651-1.744c-3.568-.367-7.43,1.3-10.458,3.036a30.248,30.248,0,0,0-5.311,4.062,17.6,17.6,0,0,0-4.174,5.269l3.727,1.009c.3-3.458-1.109-6.763-2.91-9.649-1.679-2.691-3.82-5.534-6.716-6.988A2.055,2.055,0,0,0,97.3.566a26.219,26.219,0,0,0-6.312,11.172c-.966,3.625-.654,7.209-.164,10.88l3.727-1.009a15.616,15.616,0,0,0-6.232-5.152c-2.177-1.118-4.9-2.317-7.411-2.054a2.114,2.114,0,0,0-1.929,1.469c-1.28,3.562-.01,7.651,1.731,10.829a24.93,24.93,0,0,0,7.217,8.034l1.542-3.656c-1.943-.3-3.553.777-5.116,1.8a18.567,18.567,0,0,0-3.887,3.232,2.062,2.062,0,0,0-.312,2.423c1.512,2.553,4.768,4.21,7.412,5.319a17.214,17.214,0,0,0,10.473.886c2.487-.655,1.433-4.515-1.063-3.857a13.428,13.428,0,0,1-7.875-.69c-1.781-.722-4.567-2.114-5.493-3.677L83.3,38.938a12.763,12.763,0,0,1,2.647-2.325c.572-.368,1.132-.754,1.719-1.1a5.715,5.715,0,0,0,.811-.439c.2-.174.41-.067-.067-.141a2.01,2.01,0,0,0,1.541-3.655,20.5,20.5,0,0,1-5.58-6.238c-1.365-2.367-2.5-5.4-1.53-8.108L80.909,18.4c1.8-.188,3.753.666,5.392,1.508,1.729.887,3.735,2.03,4.8,3.717.955,1.517,4.007,1.094,3.727-1.01-.419-3.138-.841-6.343-.072-9.455a21.97,21.97,0,0,1,5.376-9.769l-2.424.313c2.305,1.157,3.946,3.411,5.281,5.552,1.456,2.334,2.6,4.831,2.364,7.631-.167,1.947,2.888,2.77,3.727,1.01,1.518-3.184,4.678-5.876,7.663-7.669a22.126,22.126,0,0,1,4.529-2.088,8.533,8.533,0,0,1,4.417-.577l-1.2-.919c-.15-.324.129.463.171.64a9.02,9.02,0,0,1,.169,1,23.8,23.8,0,0,1,.114,3.148,24.881,24.881,0,0,1-.8,6.189,21.955,21.955,0,0,1-2.426,5.141,30.122,30.122,0,0,1-1.651,2.563c-.15.2-.243.316-.446.551a3.387,3.387,0,0,1-.281.281c.346-.312.067-.083-.2.077a2.009,2.009,0,0,0,1.541,3.655c.2-.051.424-.121.634-.155-.337.054-.036.008.137.012.5.008.993,0,1.491.035a20.651,20.651,0,0,1,3.548.55,23.148,23.148,0,0,1,7.8,4l-.919-2.259a4.365,4.365,0,0,1-.149.5c-.086.253.221-.449-.028.056-.059.119-.117.238-.179.356a14.788,14.788,0,0,1-1.24,1.964,19.555,19.555,0,0,1-4.809,4.573,13.862,13.862,0,0,1-5.231,1.876,12.756,12.756,0,0,1-5.492-.284A2.01,2.01,0,0,0,114.7,44.77c3.623,2.513,7.168,5.491,7.593,10.165l1.468-1.929c-2.507,1.051-5.635.7-8.224.121a13.612,13.612,0,0,1-6.783-4.2,2.021,2.021,0,0,0-3.343.882,11.012,11.012,0,0,1-3.462,4.3h2.829a12.37,12.37,0,0,1-4.1-5.4c-.581-1.757-1.269-4.172-.9-5.92.528-2.512-3.327-3.585-3.857-1.064Z"/><path class="a" d="M44.745,133.455c-2.552-.738-5.571-.25-8.094.381a16.151,16.151,0,0,0-7.494,4.652,2.017,2.017,0,0,0-.313,2.423c1.5,2,3.242,4.057,5.589,5.067l-.405-3.141a17.172,17.172,0,0,0-5.76,8.09c-.981,3.2-1.677,7.175-.594,10.421a2.052,2.052,0,0,0,1.928,1.469,13.918,13.918,0,0,0,8.093-2.524,32.32,32.32,0,0,0,5.817-5.74l-3.343-1.946a17.777,17.777,0,0,0,1.194,14.1,23.808,23.808,0,0,0,5.063,6.113,11.684,11.684,0,0,0,4.1,2.559,1.971,1.971,0,0,0,1.946-.514,26.891,26.891,0,0,0,5.367-8.987,16.608,16.608,0,0,0,.9-7.719L55.08,159.7a8.461,8.461,0,0,0,2.576,2.78,42.641,42.641,0,0,0,4.448,3.07,24.391,24.391,0,0,0,10.006,3.066,22.851,22.851,0,0,0,5.014.11A8.919,8.919,0,0,0,79,168.376a2.641,2.641,0,0,0,1.774-2.369c.638-3.665-.742-7.629-2.3-10.9a30.059,30.059,0,0,0-3.688-5.575,17.538,17.538,0,0,0-4.969-4.524l-1.542,3.656c3.666.591,7.068-.472,10.309-2.168,2.845-1.488,5.781-3.449,7.46-6.257a2.05,2.05,0,0,0-.313-2.424,26.2,26.2,0,0,0-10.64-7.032c-3.542-1.247-7.22-1.174-10.919-.958l1.009,3.727c2.377-1.26,4.174-3.638,5.549-5.888,1.29-2.111,2.6-4.718,2.523-7.261a1.978,1.978,0,0,0-.991-1.727c-6.834-3.046-15.212,1.893-19.577,7.089l3.343,1.946c.428-1.863-.661-3.653-1.53-5.225a18.616,18.616,0,0,0-2.965-4.093,2.058,2.058,0,0,0-2.424-.313c-2.553,1.268-4.523,4.457-5.738,6.933a17.545,17.545,0,0,0-1.611,10.518c.469,2.528,4.325,1.457,3.857-1.063a11.028,11.028,0,0,1,.19-4.042,19.657,19.657,0,0,1,.562-2.2,6.683,6.683,0,0,1,.57-1.417c.926-1.8,2.314-4.34,4.189-5.271l-2.424-.313a12.592,12.592,0,0,1,2.092,2.835c.324.6.675,1.181.967,1.8a6.23,6.23,0,0,1,.274.633c.138.4.018.666.133.163-.414,1.8,1.976,3.573,3.343,1.946a21.5,21.5,0,0,1,6.63-5.269c2.253-1.148,5.623-2.3,8.1-1.194l-.991-1.727c.05,1.662-1.029,3.691-1.977,5.243a11.792,11.792,0,0,1-4.114,4.453,2.014,2.014,0,0,0,1.01,3.726c3.227-.188,6.406-.335,9.51.7a22.006,22.006,0,0,1,9.221,6.121l-.313-2.423c-1.274,2.13-3.636,3.545-5.771,4.688-2.25,1.2-4.885,2.317-7.48,1.9-2.108-.341-3.651,2.449-1.541,3.655,3.052,1.744,5.467,5.17,7.024,8.262,1.283,2.547,2.783,6.259,1.88,9.129l1.4-1.4a11.824,11.824,0,0,1-4.968.253,25.586,25.586,0,0,1-6.305-1.271,21.593,21.593,0,0,1-4.93-2.789,26.56,26.56,0,0,1-2.262-1.7c-.279-.239-.539-.489-.8-.746-.194-.19-.161-.238-.019,0-.1-.169-.183-.352-.271-.528a1.989,1.989,0,0,0-2.5-.819,2.035,2.035,0,0,0-1.158,2.36c.016.089.058.839.049.276,0,.17,0,.338,0,.507a11.163,11.163,0,0,1-.121,1.265,22.664,22.664,0,0,1-.824,3.544,21.957,21.957,0,0,1-4.338,7.223l1.945-.515c-.424-.12.3.187-.127-.04-.235-.124-.468-.249-.7-.389a12.494,12.494,0,0,1-1.622-1.2,20.567,20.567,0,0,1-4.325-5.208,13.066,13.066,0,0,1-1.523-5.387,13.563,13.563,0,0,1,.732-5.627c.58-1.821-2.066-3.522-3.342-1.946-2.918,3.6-6.153,7.012-11.082,7.093l1.929,1.468c-.865-2.592-.185-5.756.594-8.295a14.262,14.262,0,0,1,4.731-6.325,2.006,2.006,0,0,0-.4-3.141,10.747,10.747,0,0,1-4.154-3.632l-.313,2.424a12.221,12.221,0,0,1,5.729-3.622c1.833-.46,4.113-.919,5.968-.382,2.478.716,3.536-3.143,1.063-3.857Z"/><path class="a" d="M88.734,88.917c-3.733,2.838-5.2,7.82-4.6,12.3a2.056,2.056,0,0,0,2,2,12.059,12.059,0,0,0,5.991-1.25l-3.009-1.727a13.969,13.969,0,0,0,2.338,7.73c1.7,2.324,3.873,4.629,6.653,5.595a2.042,2.042,0,0,0,2.258-.919c2.82-3.892,2.4-8.458,1.311-12.889L98.024,101.3a14.437,14.437,0,0,0,9.134,6.159,19.034,19.034,0,0,0,6.7-.134A9.347,9.347,0,0,0,117.55,106a2.1,2.1,0,0,0,.919-2.258,20.417,20.417,0,0,0-3.037-7.417,13.419,13.419,0,0,0-4.328-4.272l-1.541,3.655c2.415.452,5.04-.623,7.251-1.516a19.461,19.461,0,0,0,6.972-4.952,18.769,18.769,0,0,0,2.579-3.311c.868-1.5.94-2.759-.338-4.064-1.965-2.005-5.068-3.062-7.76-3.593a19.169,19.169,0,0,0-10.955.741l2.423,3.142a12.532,12.532,0,0,0,3.383-7.063c.454-2.587.75-5.515-.237-8.017a2.056,2.056,0,0,0-1.929-1.469,20.74,20.74,0,0,0-9.958,3.483,23.337,23.337,0,0,0-5.814,6.514l3.655,1.541a12.708,12.708,0,0,0-1-6.64,11.64,11.64,0,0,0-3.675-5.369,1.982,1.982,0,0,0-2.019,0c-5.257,2.924-5.966,10.828-4.774,16.069l3.343-1.946c-.922-1.1-2.634-1.244-3.948-1.444a14.025,14.025,0,0,0-3.9-.136,2.061,2.061,0,0,0-1.928,1.468c-.443,2.484.54,5.173,1.606,7.388a13.765,13.765,0,0,0,5.707,5.987c2.289,1.167,4.316-2.283,2.019-3.454a10.16,10.16,0,0,1-4.16-4.325,13.723,13.723,0,0,1-.9-2.379,10.677,10.677,0,0,1-.347-1.419,5.97,5.97,0,0,0-.064-.735L82.862,81.68a13.6,13.6,0,0,1,2.6-.043,11.258,11.258,0,0,1,2.426.451c1.364,1.632,3.751-.151,3.343-1.945-.784-3.447-.627-9.57,2.936-11.552H92.144c-.2-.141.346.365.411.444a6.44,6.44,0,0,1,.488.719A13.228,13.228,0,0,1,94.1,71.881a9.812,9.812,0,0,1,.874,4.2,2.011,2.011,0,0,0,3.656,1.541,18.34,18.34,0,0,1,4.379-5.08,16.672,16.672,0,0,1,7.939-2.936l-1.929-1.468a11.038,11.038,0,0,1,.238,5.891,9.2,9.2,0,0,1-2.354,5.3c-1.774,1.694.476,3.972,2.424,3.141A11.736,11.736,0,0,1,113,81.893a19.848,19.848,0,0,1,4.2.238c1.911.377,4.953,1.06,6.177,2.76l-.2-1.542c-.059.194.014.077-.207.456-.178.307-.368.606-.574.895a16.432,16.432,0,0,1-1.323,1.587,18.4,18.4,0,0,1-3.658,3.2,17.513,17.513,0,0,1-3.991,1.687c-.668.213-1.343.413-2.027.567-.1.023-.918.272-.536.115a2.142,2.142,0,0,1-.289.008q.588.081.051-.011c-2.087-.39-3.692,2.553-1.541,3.656,3.116,1.6,4.768,5.955,5.527,9.3l.919-2.259a5.448,5.448,0,0,1-2.256.822,14.607,14.607,0,0,1-5.084.223,10.254,10.254,0,0,1-6.713-4.311,2.01,2.01,0,0,0-3.655,1.541,23.115,23.115,0,0,1,.742,4.951,7.666,7.666,0,0,1-1.65,4.855l2.259-.919c-1.775-.617-3.376-2.5-4.426-3.985a10.132,10.132,0,0,1-1.628-5.483,2.022,2.022,0,0,0-3.01-1.727,8.039,8.039,0,0,1-3.972.7l2,2a9.753,9.753,0,0,1,2.615-8.848,2.065,2.065,0,0,0,.717-2.736,2.012,2.012,0,0,0-2.736-.718Z"/><path class="a" d="M34.4,129.865a42.3,42.3,0,0,1,5.037,4.741,2,2,0,0,0,3.414-1.414,2.222,2.222,0,0,0-.586-1.414,42.22,42.22,0,0,0-5.037-4.741,2.142,2.142,0,0,0-1.414-.586,2.032,2.032,0,0,0-1.414.586,2.01,2.01,0,0,0-.586,1.414,1.96,1.96,0,0,0,.586,1.414Z"/><path class="b" d="M311.774,435.468q-.018-.357-.008-.736a68,68,0,0,0,20.477,1.424,52.347,52.347,0,0,0,7.89-1.179c.524,4.5-1.293,5.539-4.751,6.365a38.217,38.217,0,0,1-8.95,1.242C321.1,442.658,312.15,442.58,311.774,435.468Z"/><path class="b" d="M279.6,413.052c-2.693-3.838-5.072-8.151-5.785-11.889,2.981,4.825,7.938,8.271,13.759,10.9,12.623,5.71,27.876,6.591,41.6,6.364q1.485-.026,2.958-.1c17.365-.843,32.8-3.234,44.025-17.994-3.482,21.194-24.168,34.412-43.912,35.815-16.339,1.162-30.862-2.441-44.07-13.26A56.808,56.808,0,0,1,279.6,413.052Z"/><path class="b" d="M332.13,418.335q-1.473.071-2.958.1c-13.723.227-28.976-.654-41.6-6.364-9.671-4.374-16.954-10.992-16.761-22.447.174-10.311,8.074-18.523,17.568-23.683,12.024-6.535,26.053-8.892,39.626-8.086,12.878.765,27.4,4.027,37.7,12.169,1.784,1.411,3.477,2.936,5.13,4.5,6.692,6.322,10.21,20.606,2.987,28.654C362.828,415.418,348.32,417.549,332.13,418.335Z"/><path class="b" d="M332.13,418.335q-1.473.071-2.958.1c-13.723.227-28.976-.654-41.6-6.364-9.671-4.374-16.954-10.992-16.761-22.447.174-10.311,8.074-18.523,17.568-23.683,12.024-6.535,26.053-8.892,39.626-8.086,12.878.765,27.4,4.027,37.7,12.169,1.784,1.411,3.477,2.936,5.13,4.5,6.692,6.322,10.21,20.606,2.987,28.654C362.828,415.418,348.32,417.549,332.13,418.335Z"/><path class="g" d="M371.374,392.683a14.694,14.694,0,0,1,1.21,4.025c.3,3.1-.883,7.36-2.5,8.537,0,0-1.043,1.521-2.4,3.516-10.025,7.367-22.216,8.927-35.547,9.574q-1.473.071-2.958.1c-13.723.227-28.976-.654-41.6-6.364a43.357,43.357,0,0,1-6.254-3.421c-.627-1.207-1.106-2.142-1.2-2.371-1.146-2.782-2.212-5.922-1.441-8.831a22.572,22.572,0,0,1,4.083-8.245,43.464,43.464,0,0,1,16.319-12.391c10.286-4.475,21.848-4.639,33.066-4.639,17.772,0,29.185,7.478,35.14,13.8A26.086,26.086,0,0,1,371.374,392.683Z"/><path class="a" d="M272.005,402.259c1.039,4.317,3.4,8.3,5.937,11.9a61.447,61.447,0,0,0,7.708,9.158,52.806,52.806,0,0,0,11.5,8.01,58.218,58.218,0,0,0,14.167,5.351c18.093,4.221,38.245.923,52.571-11.346a41.543,41.543,0,0,0,14.338-25.345,2.066,2.066,0,0,0-1.4-2.46,2.014,2.014,0,0,0-2.46,1.4c-2.447,16.853-16.247,28.98-32.109,33.447A60.9,60.9,0,0,1,316,433.546a56.264,56.264,0,0,1-26.072-11.791,45.28,45.28,0,0,1-7.587-8.313c-2.727-3.675-5.391-7.745-6.474-12.247-.6-2.5-4.46-1.442-3.857,1.064Z"/><path class="a" d="M309.788,435.647a8.494,8.494,0,0,0,3.81,6.6,16.076,16.076,0,0,0,7.271,2.165,43.308,43.308,0,0,0,8.043.051,32.418,32.418,0,0,0,9.159-1.852c3.153-1.267,4.351-3.928,4.108-7.229-.188-2.552-4.19-2.573-4,0,.081,1.092.078,2.332-.495,2.9a6.667,6.667,0,0,1-2.834,1.129,41.044,41.044,0,0,1-9.891,1.181c-3.723,0-10.71-.033-11.171-4.948a2.055,2.055,0,0,0-2-2,2.016,2.016,0,0,0-2,2Z"/><path class="a" d="M347.882,388.611a10.386,10.386,0,0,1,7.085,1.452,7.526,7.526,0,0,1,2.063,2c.067.106.124.216.187.324.27.465-.014-.18.067.148.1.4.229.784.319,1.185.021.109.04.217.057.326-.031-.252-.032-.261,0-.024s.044.47.056.706c.022.43.022.862,0,1.292-.012.253-.033.506-.057.758s-.029.254,0,.041c-.019.127-.039.254-.062.381a12.113,12.113,0,0,1-.361,1.5c-.076.244-.16.486-.252.724-.221.567.169-.322-.1.218a8.554,8.554,0,0,1-.757,1.274c.237-.321-.216.236-.269.291a5.638,5.638,0,0,1-.526.487c.32-.258-.265.159-.334.2a6.024,6.024,0,0,1-.656.32,2.014,2.014,0,0,0-.717,2.737,2.052,2.052,0,0,0,2.736.717c3.791-1.617,5.293-6.214,5.367-10.024a11.277,11.277,0,0,0-1-5.16,10.6,10.6,0,0,0-4.665-4.4,15.145,15.145,0,0,0-9.246-1.328,2.014,2.014,0,0,0-1.4,2.461,2.053,2.053,0,0,0,2.461,1.4Z"/><path class="a" d="M353.542,398.818a4.959,4.959,0,0,1,1.858,2.846,2.874,2.874,0,0,1-1.034,2.275c-1.657,1.584-4.183,2.265-6.333,2.851a61.708,61.708,0,0,1-7.008,1.453,23.362,23.362,0,0,1-6.611.316,2.058,2.058,0,0,0-2.46,1.4,2.016,2.016,0,0,0,1.4,2.46,28,28,0,0,0,9.073-.368,54.662,54.662,0,0,0,8.516-1.951c2.837-.926,6.043-2.292,7.59-5.019,1.874-3.3.385-6.679-2.16-9.088-1.869-1.769-4.7,1.054-2.828,2.828Z"/><path class="a" d="M371.5,406.66c1.493-1.2,2.244-3.331,2.668-5.131a14.127,14.127,0,0,0,.172-6.378,24.748,24.748,0,0,0-5.637-10.6,44.5,44.5,0,0,0-17.824-11.319c-9.62-3.415-19.93-3.363-30-2.853-10.579.536-21.157,2.618-30.026,8.713-8.278,5.689-19.287,17.578-12.455,28.194,1.389,2.158,4.853.154,3.454-2.019-2.541-3.948-1.382-8.436.771-12.281a32.194,32.194,0,0,1,9.069-9.6c7.764-5.723,16.984-8.121,26.488-8.838,4.869-.367,9.776-.426,14.658-.372a53.3,53.3,0,0,1,13.157,1.729,42.913,42.913,0,0,1,17.58,9.236,23.205,23.205,0,0,1,6.064,8.519,10.266,10.266,0,0,1,.951,5.16c-.142,1.626-.563,3.928-1.916,5.013a2.014,2.014,0,0,0,0,2.829,2.049,2.049,0,0,0,2.829,0Z"/><path class="a" d="M337.919,384.654q.146.308.021.018c.046.121.089.243.128.366.084.263.152.532.21.8a8.248,8.248,0,0,1,.2,1.5,21.462,21.462,0,0,1-.036,3.411c-.008.079-.107.88-.041.417-.057.394-.121.788-.186,1.182q-.171,1.053-.365,2.1c-.295,1.6-.634,3.187-1.027,4.764-.621,2.5,3.235,3.564,3.857,1.063a60.79,60.79,0,0,0,1.779-9.735,15.321,15.321,0,0,0-1.088-7.909,2.019,2.019,0,0,0-2.736-.718,2.04,2.04,0,0,0-.718,2.736Z"/><path class="a" d="M332.13,416.335a126.545,126.545,0,0,1-29.256-1.674c-8.053-1.532-16.733-4.2-23.068-9.642a19.375,19.375,0,0,1-6.465-19.448c1.917-7.751,8.363-13.518,15.049-17.349,16.43-9.413,37.01-10.479,55.149-6.126,8.879,2.131,17.04,5.856,23.871,11.984a23.872,23.872,0,0,1,6.514,8.57,23.262,23.262,0,0,1,1.845,10.536,14.851,14.851,0,0,1-4.183,9.456,38.07,38.07,0,0,1-9.7,7.4c-7.141,3.817-15.3,5.214-23.288,5.88-2.155.18-4.313.308-6.472.415-2.563.126-2.578,4.127,0,4,8.945-.441,18.134-1.218,26.559-4.474a43.868,43.868,0,0,0,11.455-6.487c3.454-2.73,6.694-5.944,8.334-10.1,2.894-7.332.994-16.49-3.419-22.83-2.608-3.747-6.388-6.831-10.086-9.451a53.457,53.457,0,0,0-12.749-6.483,86.693,86.693,0,0,0-28.609-4.809,77.022,77.022,0,0,0-30.889,5.924c-8.32,3.555-16.607,9.044-21.008,17.2-3.982,7.381-3.968,16.848.738,23.92,4.74,7.123,13.035,11.169,20.96,13.675,9.929,3.141,20.506,3.975,30.868,4.037,2.615.016,5.233,0,7.846-.124C334.693,420.217,334.707,416.217,332.13,416.335Z"/><path class="b" d="M289.659,390.769c-2.208-4.889-4.846-8.416-6.963-12.6-2.215-4.373-4.5-10.6-9.949-10.545-.959-3.529,3.674-6.9,6.6-7.874,4.876-1.611,6.83-.506,9.337,3.653,4.113,6.822,7.349,12.46,11.526,19.279"/><path class="a" d="M291.386,389.76a87.794,87.794,0,0,0-4.569-8.327c-1.369-2.3-2.571-4.657-3.756-7.053-2.11-4.264-5.039-8.69-10.314-8.754l1.928,1.468c-.552-2.427,3.112-4.618,4.952-5.324,2.375-.913,4.4-1.195,6.049.763a32.663,32.663,0,0,1,2.789,4.389q1.664,2.782,3.311,5.574c2.217,3.745,4.439,7.486,6.71,11.2,1.341,2.192,4.8.185,3.454-2.019-2.113-3.454-4.185-6.933-6.248-10.418-1.981-3.345-3.831-6.841-6.036-10.045-1.5-2.183-3.407-3.914-6.15-4.142a13.386,13.386,0,0,0-8.064,2.417c-2.892,1.941-5.466,4.969-4.624,8.671a2.029,2.029,0,0,0,1.929,1.468c4.043.049,5.93,4.848,7.416,7.914,2.363,4.873,5.513,9.311,7.769,14.239a2.015,2.015,0,0,0,2.736.717,2.047,2.047,0,0,0,.718-2.736Z"/><path class="a" d="M291.266,393.96c.051-.243.144-.469.2-.708.046-.187-.079.219-.095.222a.9.9,0,0,0,.071-.149c.064-.112.12-.226.188-.336.058-.094.124-.181.183-.274.177-.281-.3.321,0,.013.171-.178.334-.359.517-.525.086-.078.177-.15.263-.227.245-.22-.35.243.016-.013.216-.152.432-.3.656-.442.467-.292.952-.554,1.444-.8a38.127,38.127,0,0,0,5.933-3.082,7.554,7.554,0,0,0,2.678-3.378,2.009,2.009,0,0,0-1.4-2.461,2.057,2.057,0,0,0-2.46,1.4c-.122.313.217-.375.034-.1-.065.1-.114.215-.178.317s-.123.171-.175.26c-.094.161.146-.195.152-.2-.036.008-.111.133-.138.162-.163.172-.325.34-.5.5-.084.074-.175.14-.257.216-.151.139.175-.155.179-.138a1.416,1.416,0,0,1-.187.136,20.3,20.3,0,0,1-2.838,1.566,22.952,22.952,0,0,0-6.093,3.5,6.713,6.713,0,0,0-2.05,3.483,2,2,0,1,0,3.857,1.063Z"/><path class="a" d="M318.474,386.214c-4.079,2.064-3.222,8.367-.263,11a5.441,5.441,0,0,0,3.5,1.463,2.018,2.018,0,0,0,2-2,2.04,2.04,0,0,0-2-2c-.271-.009-.384-.152.135.037-.094-.035-.208-.04-.306-.067a3.05,3.05,0,0,0-.3-.1c.356.155.443.19.262.107-.048-.022-.094-.046-.141-.071-.094-.051-.182-.11-.273-.164-.4-.236.31.286.079.071-.142-.132-.289-.256-.422-.4-.078-.083-.148-.172-.224-.257-.216-.24.324.462.054.059a6.736,6.736,0,0,1-.366-.6c-.056-.106-.106-.214-.159-.321-.148-.3.2.529.027.062a6.745,6.745,0,0,1-.211-.645c-.06-.219-.1-.439-.146-.661-.065-.34.062.592.013.089-.011-.117-.019-.235-.023-.352-.009-.232,0-.461.017-.692.029-.488-.1.431-.015.113.024-.094.037-.191.061-.284s.049-.185.079-.276c.017-.051.035-.1.053-.153q.11-.279-.109.255a2.919,2.919,0,0,0,.315-.55q-.354.447-.168.218c.034-.04.069-.08.105-.118.073-.078.156-.145.231-.22.21-.213-.48.293-.077.071.1-.055.193-.114.294-.165a2.013,2.013,0,0,0,.717-2.736,2.048,2.048,0,0,0-2.736-.718Z"/><path class="a" d="M293.146,394.553a12.344,12.344,0,0,0-5.2,5.83,6.686,6.686,0,0,0,.476,6.052,7.546,7.546,0,0,0,4.349,2.954,40.673,40.673,0,0,0,5.49,1.222c2.165.336,4.608.728,6.762.109a2,2,0,1,0-1.063-3.857c-.142.041-.284.07-.428.1-.415.1.5-.032-.065.011-.375.028-.749.044-1.126.04-.854-.008-1.7-.105-2.544-.193-.321-.033.5.075-.008,0l-.31-.046c-.207-.031-.413-.064-.62-.1q-.692-.115-1.379-.254-1.263-.252-2.513-.576c-.62-.161-1.24-.332-1.844-.546-.093-.033-.184-.073-.278-.1-.24-.075.522.265.212.088-.185-.1-.376-.194-.557-.309-.076-.048-.148-.108-.226-.152-.148-.083.308.29-.008-.015-.139-.134-.269-.269-.4-.407-.195-.2.019.094.082.113a1.082,1.082,0,0,1-.137-.2q-.117-.213-.235-.425c-.181-.322.078.148.06.145-.036-.006-.1-.289-.112-.345-.026-.093-.152-.688-.082-.331s0-.206,0-.292a2.9,2.9,0,0,0,.029-.574c.026.025-.1.507-.014.143.03-.132.054-.263.087-.394.059-.225.137-.442.212-.662.04-.116.17-.292-.035.079.072-.129.128-.268.2-.4q.181-.341.395-.662c.059-.089.122-.175.181-.263.231-.346-.218.231.09-.116a13.2,13.2,0,0,1,1.169-1.2q.177-.153.358-.3c.264-.219-.041.023.131-.1.3-.214.609-.42.925-.616a2,2,0,1,0-2.019-3.454Z"/><path class="h" d="M328.8,406.507c1.483-1.765,1.689-4.114,1.419-6.4-1.172-2.606-2.721-5.145-5.521-6.027-1.8-.567-5.049-.855-5.989,1.337-3.077-2.225-6.273-1.554-9.42.368-1.334.814-1.531,1.508-2.976,2.453-.878.574-3.278,1.055-5.965,2.25-3.662,3.175-.31,9.142,4.05,8.155-.646,2.439,1.414,3.894,3.836,4.125a14.6,14.6,0,0,0,4.648-.275c1.158-.3,1.808-1.207,2.83-1.692,4.048,5.242,11.464,1.86,12.885-4.068C328.669,406.661,328.737,406.585,328.8,406.507Z"/><path class="a" d="M330.216,407.921a10.114,10.114,0,0,0,2.047-7.407c-.212-2.32-2.038-5.006-3.78-6.507-2.917-2.515-9.376-3.884-11.5.4l2.736-.717c-3.589-2.451-7.891-1.889-11.438.368-1.141.726-2.158,2.11-3.3,2.629-1.746.8-3.715,1.066-5.423,1.978-2.884,1.538-3.338,5.535-2.039,8.232a6.686,6.686,0,0,0,7.408,3.674l-2.461-2.46c-.721,3.322,1.479,5.929,4.722,6.516a15.753,15.753,0,0,0,5.109.009,6.865,6.865,0,0,0,2.3-.693c.751-.408,1.368-1.01,2.123-1.415l-2.424-.313a8.355,8.355,0,0,0,9.374,2.668,11.026,11.026,0,0,0,6.855-7.618l-.515.882.2-.229c1.7-1.921-1.118-4.76-2.829-2.828-.942,1.064-1.063,2.582-1.94,3.738a6.867,6.867,0,0,1-2.655,2.124,4.551,4.551,0,0,1-5.664-1.565,2.019,2.019,0,0,0-2.424-.313,17.29,17.29,0,0,1-2.352,1.491,9.25,9.25,0,0,1-3.176.262c-.978-.033-3.162-.2-2.848-1.653a2.027,2.027,0,0,0-2.46-2.46,2.763,2.763,0,0,1-3-2.231,2.422,2.422,0,0,1,.241-1.837c.574-.965,2.245-1.2,3.256-1.529a15.1,15.1,0,0,0,2.881-1.105,27.363,27.363,0,0,0,2.718-2.281c2.353-1.79,5.253-2.284,7.738-.587a2.012,2.012,0,0,0,2.737-.718c.626-1.264,2.836-.761,3.91-.355,2.14.809,3.255,3.1,4.146,5.046l-.273-1.01c.174,1.651.254,3.594-.834,4.983a2.065,2.065,0,0,0,0,2.828A2.014,2.014,0,0,0,330.216,407.921Z"/><path class="a" d="M310.641,405.034a3.368,3.368,0,0,1,.481-.459l-.405.312a3.369,3.369,0,0,1,.653-.377l-.478.2a3.913,3.913,0,0,1,.956-.254l-.532.071a6.465,6.465,0,0,1,1.679.028l-.532-.072c.276.039.549.088.822.146a2.125,2.125,0,0,0,1.541-.2,2,2,0,0,0,.718-2.736,2,2,0,0,0-1.2-.919,9.283,9.283,0,0,0-3-.249,7.71,7.71,0,0,0-1.079.179,6.414,6.414,0,0,0-1.03.4,4.413,4.413,0,0,0-1.426,1.1,2.131,2.131,0,0,0-.585,1.414,2.036,2.036,0,0,0,.585,1.414,2.014,2.014,0,0,0,1.415.586,1.974,1.974,0,0,0,1.414-.586Z"/><path class="a" d="M319.956,407.3a5.98,5.98,0,0,1,.634-.321l-.477.2a6.638,6.638,0,0,1,1.632-.447l-.532.072a6.527,6.527,0,0,1,1.693-.01l-.531-.072a6.147,6.147,0,0,1,.63.123,2.09,2.09,0,0,0,1.541-.2,2,2,0,0,0-.478-3.656,8.3,8.3,0,0,0-6.131.858,2.069,2.069,0,0,0-.919,1.195,2,2,0,0,0,2.938,2.258Z"/><path class="a" d="M308.646,389.78c-.041-.149-.074-.3-.1-.45.1.508.012-.063.012-.189,0-.167.016-.332.022-.5q.022-.223-.015.114c.014-.084.031-.167.051-.25.044-.195.107-.382.164-.573.116-.387-.163.224.068-.145.089-.143.17-.291.258-.433-.175.281-.011.009.106-.11a3.821,3.821,0,0,1,1.518-.849,13.122,13.122,0,0,1,1.914-.381,4.8,4.8,0,0,0,2.991-2.006c.2-.242.429-.458.65-.684.285-.292-.194.082.15-.121.168-.1.329-.208.5-.292-.309.149.187-.048.258-.071.425-.137-.175-.015.232-.023q.363.022.043-.019a2.289,2.289,0,0,1,.283.069c.131.044.125.034-.016-.028a3.251,3.251,0,0,1,.355.2,2,2,0,0,0,2.019-3.453,5.543,5.543,0,0,0-6.658.91,9.313,9.313,0,0,0-1.433,1.6q-.237.213.137-.084a1.8,1.8,0,0,1-.191.12c.164-.065.4-.109.1-.062s-.587.1-.882.145A8.019,8.019,0,0,0,305.9,385a6.847,6.847,0,0,0-1.114,5.846,2,2,0,1,0,3.858-1.064Z"/><path class="i" d="M345.911,368.232a17.609,17.609,0,0,1,2.891,2.982c.9.942,2.014,1.707,2.9,2.669,1.905,2.063,3.423,5.337,2.726,8.151-1.361,5.5-5.482,10.254-11.452,10.344-2.938.044-5.053-3.064-7.522-4.371-2.329-1.234-5.309-.857-7.709-1.966-7.344-3.393-2.011-10.889,1.416-15.021,2.221-2.677,4.515-4.984,8.2-5.415,3.189-.373,6.371,1.159,8.937,2.9"/><path class="a" d="M344.9,369.959a25.8,25.8,0,0,1,2.8,2.977,23.956,23.956,0,0,1,3.338,3.3,7.2,7.2,0,0,1,.779,7.411,11.468,11.468,0,0,1-4.339,5.395c-1.819,1.134-4.339,1.93-6.293.732-2.308-1.416-3.959-3.491-6.661-4.262-2.5-.715-5.591-.384-7.575-2.356-2.643-2.627,1.04-7.436,2.786-9.674,1.612-2.065,3.454-4.438,5.97-5.423,3.4-1.329,6.763.3,9.583,2.178,2.147,1.434,4.152-2.03,2.019-3.453-3.33-2.223-7.192-3.793-11.246-2.982-3.284.657-5.846,2.9-7.952,5.382-3.1,3.647-7.6,9.246-5.575,14.373,1.265,3.2,4.552,4.723,7.763,5.234a11.746,11.746,0,0,1,4.855,1.372c1.31.865,2.412,2.015,3.727,2.881,5.787,3.81,13.078-1,15.876-6.3a15.4,15.4,0,0,0,1.774-5.185,10.569,10.569,0,0,0-1.237-5.983,15.583,15.583,0,0,0-3.949-4.734c-1.574-1.366-2.7-3.133-4.42-4.335-2.114-1.478-4.115,1.988-2.019,3.454Z"/><path class="a" d="M284.482,372.151c1.485,2.631,2.6,5.515,4.492,7.9a2,2,0,0,0,1.414.586,2.037,2.037,0,0,0,1.415-.586,2.013,2.013,0,0,0,.585-1.414,2.319,2.319,0,0,0-.585-1.414c-.2-.253.262.36.145.187-.039-.058-.082-.112-.122-.169q-.129-.182-.25-.368c-.179-.275-.349-.556-.514-.84-.375-.643-.724-1.3-1.068-1.961-.683-1.313-1.331-2.647-2.059-3.936a2,2,0,1,0-3.453,2.019Z"/><path class="a" d="M336.539,375.286c.1-.052.208-.1.313-.149-.215.089-.217.093,0,.01.16-.049.317-.107.48-.151s.324-.072.488-.107c-.476.1.1,0,.223,0,.2,0,.406.006.609.02-.365-.025.057.013.193.042a9.023,9.023,0,0,1,1.232.387c.1.039.551.24.113.037.14.065.279.127.416.2a7.715,7.715,0,0,1,.9.544c-.277-.19-.08-.063.072.073.119.107.233.219.344.334.231.243.445.5.68.742.421.433.869.839,1.3,1.26.228.222.454.448.669.684.088.1.172.2.259.3.292.333-.234-.366,0,0,.076.121.157.236.226.361.03.051.058.1.084.157q.135.29-.064-.158a1.934,1.934,0,0,0,.1.327c.109.366.013-.441-.019-.083-.049.553.132-.29,0,.055l-.033.121c-.071.2-.051.164.057-.108a2.3,2.3,0,0,0-.211.382c-.124.178-.115.174.029-.009-.075.093-.152.183-.232.271a2,2,0,0,0,2.828,2.829,5.643,5.643,0,0,0,1.466-2.661,4.657,4.657,0,0,0-.464-2.985,14.613,14.613,0,0,0-3.066-3.47,15.767,15.767,0,0,0-2-1.872,10.524,10.524,0,0,0-2.537-1.238,7.99,7.99,0,0,0-6.462.411,2.011,2.011,0,0,0-.717,2.736,2.051,2.051,0,0,0,2.736.718Z"/><path class="b" d="M342.715,390.57c-2.646,2.329-6.381,5.89-6.127,10.567a7.071,7.071,0,0,0,2.384,4.548c5.014,4.436,14.948,4.556,22.063-.594a11.037,11.037,0,0,0,4.473-10.814,10.834,10.834,0,0,0-6.964-7.683C353.024,384.919,345.926,387.744,342.715,390.57Z"/><path class="a" d="M341.3,389.156c-4.108,3.63-8.509,9.073-5.973,14.843,2.409,5.481,9.49,7.307,14.952,6.94,6.133-.412,13.333-3.3,16.083-9.19a12.623,12.623,0,0,0,.951-8.524,12.91,12.91,0,0,0-5.94-7.554c-6.157-3.561-15-.865-20.073,3.485-1.957,1.679.883,4.5,2.829,2.828,3.415-2.929,9.1-4.748,13.52-3.564a8.722,8.722,0,0,1,5.27,4.473,7.863,7.863,0,0,1,.238,6.2c-1.567,4.591-6.821,6.9-11.261,7.658-3.92.672-9.333.162-12.11-3.077a5.34,5.34,0,0,1-1.218-2.64c.1.63.007-.332.007-.286a6.762,6.762,0,0,1,.052-.965,7.452,7.452,0,0,1,.575-1.939c1.049-2.36,3.027-4.183,4.927-5.862C346.063,390.277,343.225,387.456,341.3,389.156Z"/><path class="j" d="M349.225,393.283a6.228,6.228,0,0,0-2.651,3.41,3.023,3.023,0,0,0-.175,1.352,2.827,2.827,0,0,0,.387,1.016c2.6,4.455,11.538,2.6,11.138-2.919-.189-2.613-2.287-3.946-4.755-3.939A7.471,7.471,0,0,0,349.225,393.283Z"/><path class="a" d="M348.215,391.556a8.594,8.594,0,0,0-3.381,4.1,5.082,5.082,0,0,0-.33,3.1,5.876,5.876,0,0,0,1.28,2.312,7.777,7.777,0,0,0,6.241,2.478,8.779,8.779,0,0,0,6.265-2.753,6.5,6.5,0,0,0,.647-7.768c-2.376-3.441-7.392-3.479-10.722-1.468a2,2,0,0,0,2.019,3.454c.165-.1.33-.2.5-.283-.031.016.536-.231.289-.137s.349-.113.308-.1q.282-.089.569-.155c.129-.03.259-.054.389-.079.6-.118-.355,0,.267-.029a9.711,9.711,0,0,1,1.079-.009,1.683,1.683,0,0,1,.306.028c-.51-.148-.049,0,.061.029.132.029.613.1.7.206l-.212-.095c.086.038.171.079.255.122s.165.088.244.136a1.4,1.4,0,0,1,.347.231c-.28-.359-.1-.062.013.045.071.07.248.21.278.306-.085-.271-.155-.232-.067-.067.065.123.14.247.21.369.208.366-.013-.251-.006-.007a2.1,2.1,0,0,0,.107.362c0,.018.1.519.051.2-.05-.3.006.13.009.179.006.138.007.275,0,.412a1.155,1.155,0,0,0-.019.285c-.111-.118.109-.5,0-.091q-.068.262-.141.523c-.143.5.209-.349-.046.107-.1.184-.221.357-.327.538-.187.322.268-.288.09-.113-.062.06-.115.134-.174.2-.12.13-.252.247-.379.37-.369.358.322-.19-.1.084-.183.119-.363.24-.554.345s-.364.177-.544.269c-.234.121.5-.165.117-.053-.106.031-.21.076-.316.111-.21.068-1,.393-1.207.287.054.028.481-.044.194-.027-.112.007-.225.022-.338.029-.188.013-.377.018-.565.016s-.374-.017-.562-.026c-.434-.022.016.073.088.019a1.47,1.47,0,0,1-.329-.058c-.18-.036-.359-.079-.536-.131-.106-.031-.708-.267-.378-.117s-.213-.109-.3-.156c-.189-.1-.36-.235-.544-.345-.216-.128.37.352.109.08-.087-.09-.188-.168-.276-.257-.064-.064-.124-.132-.186-.2s-.1-.111-.14-.168c.186.247.236.309.147.185-.041-.081-.106-.155-.154-.232s-.252-.533-.2-.351l.034.069c-.055-.228-.064-.234-.029-.017q.017-.365-.027-.054a2.857,2.857,0,0,1,.066-.288c.04-.155.1-.3.142-.456q.126-.328,0-.02c.035-.08.073-.16.113-.238a8.011,8.011,0,0,1,.532-.878c.173-.258-.312.311.053-.052.137-.136.262-.283.4-.415.1-.1.2-.183.309-.272-.359.3.185-.116.263-.167a2,2,0,1,0-2.019-3.454Z"/><path class="b" d="M245.2,354.251a187.808,187.808,0,0,1-19.588-1.155c-10.566-1.47-30.779-5.967-30.779-18.668,0-9.179,12.79-14.434,22.094-16.742,9.008-2.234,17.174-2.695,28.073-2.695,10.993,0,22.785,2.309,31.18,5.966,7.581,3.3,14.791,6.457,14.791,14.241,0,7.968-11.025,13.764-18.389,15.931C264.59,353.481,255.083,354.251,245.2,354.251Z"/><path class="a" d="M245.2,352.251c-12.343-.021-24.928-.781-36.515-5.4-4.465-1.78-9.824-4.732-11.378-9.477-1.885-5.754,2.51-10.141,7.219-12.842,6.151-3.528,13.32-5.319,20.277-6.389a103.892,103.892,0,0,1,12.37-1.041,132.646,132.646,0,0,1,13.816.109,75.3,75.3,0,0,1,24.526,5.624c5.391,2.347,13.482,5.291,13.456,12.364-.011,2.894-1.884,5.3-3.934,7.164A30.963,30.963,0,0,1,276.5,347.6c-7.509,3.255-16,4.139-24.09,4.5-2.4.107-4.8.149-7.2.152-2.574,0-2.579,4,0,4,9.664-.013,19.761-.507,29.016-3.537,6.443-2.109,14.019-5.84,17.332-12.1a12.047,12.047,0,0,0,.363-10.522c-1.457-3.331-4.432-5.675-7.517-7.431a74.412,74.412,0,0,0-24.463-8.375,118.606,118.606,0,0,0-29.067-.836,76.864,76.864,0,0,0-23.74,5.375c-6.143,2.6-13.268,6.926-14.188,14.187-.8,6.308,3.362,11.448,8.419,14.618,5.415,3.393,11.829,5.2,18.046,6.438a128.435,128.435,0,0,0,20.348,2.067c1.816.068,3.633.114,5.451.117C247.777,356.255,247.78,352.255,245.2,352.251Z"/><path class="c" d="M215.846,326.032c3.839-7.541,12.371-16,28.806-16,21.122,0,28.972,19.054,29.619,26.435l.15,1.7c-5.1,3.068-16.837,5.557-33.816,5.557-10.316,0-22.072-3.308-27.461-6.589l.067-2.087A22.889,22.889,0,0,1,215.846,326.032Z"/><path class="a" d="M280.032,346.075c-.449.4.189-.09-.3.237-.307.206-.61.416-.92.617-.9.578-1.819,1.121-2.744,1.653-2.124,1.221-4.287,2.379-6.488,3.457a21.225,21.225,0,0,1-4.534,1.863,46.06,46.06,0,0,1-7.2.936c-5.484.44-10.965.478-16.463.5-5.78.026-11.573-.017-17.217-1.383a64.338,64.338,0,0,1-8.35-2.584,26.017,26.017,0,0,1-3.57-1.7,14.8,14.8,0,0,1-1.256-.8,6.462,6.462,0,0,1-.5-.435c-.055-.053-.56-.622-.344-.337a2.065,2.065,0,0,0-2.737-.717,2.013,2.013,0,0,0-.717,2.736,14.037,14.037,0,0,0,5.579,4.06,55.328,55.328,0,0,0,7.968,2.879,64.993,64.993,0,0,0,17.251,2.271c6.086.075,12.2.056,18.273-.342,2.888-.189,5.783-.436,8.64-.9a21.253,21.253,0,0,0,5.495-1.79c2.584-1.178,5.1-2.515,7.572-3.913a30,30,0,0,0,5.384-3.482c1.917-1.725-.919-4.547-2.829-2.828Z"/><path class="a" d="M215.211,335.048c.013-.321.045-.639.07-.959.044-.554-.044.223.015-.128.04-.235.077-.469.121-.7a22.588,22.588,0,0,1,.659-2.571q.218-.685.473-1.358a12.587,12.587,0,0,1,.5-1.2,28.546,28.546,0,0,1,1.6-3.017,26.644,26.644,0,0,1,12.086-10.46,33.683,33.683,0,0,1,21.661-1.61,26.482,26.482,0,0,1,14.335,10.167,34.271,34.271,0,0,1,3.97,7.281,30.167,30.167,0,0,1,1.106,3.487c.12.483.228.969.317,1.459.045.247.084.494.121.742-.076-.516.007.109.023.287a2.054,2.054,0,0,0,2,2,2.014,2.014,0,0,0,2-2,33.332,33.332,0,0,0-20.157-26.4c-7.583-2.954-16.745-2.654-24.388-.053a31.07,31.07,0,0,0-15.369,11.33,26.146,26.146,0,0,0-5.146,13.707c-.1,2.575,3.9,2.57,4,0Z"/><path class="h" d="M240.481,312.7c-.171-3.78-3.064-4.72-5.433-4.165-1.368.52-3.692,1.376-3.6,4.515.054,1.87,2.8,4.186,5.572,3.622A4.01,4.01,0,0,0,240.481,312.7Z"/><path class="h" d="M255.777,314.628c-.171-3.78-3.064-4.72-5.433-4.165-1.368.52-3.691,1.376-3.6,4.515.054,1.87,2.8,4.186,5.572,3.622A4.009,4.009,0,0,0,255.777,314.628Z"/><path class="h" d="M247.925,310c-.171-3.781-3.064-4.721-5.432-4.166-1.369.52-3.692,1.376-3.6,4.516.053,1.869,2.8,4.185,5.571,3.622A4.009,4.009,0,0,0,247.925,310Z"/><path class="a" d="M242.481,312.7a7.126,7.126,0,0,0-1.132-3.762,5.977,5.977,0,0,0-2.968-2.225,7.1,7.1,0,0,0-5.816.749,6.066,6.066,0,0,0-2.991,6.547,6.162,6.162,0,0,0,2.476,3.378,6.944,6.944,0,0,0,4.14,1.371c3.3-.025,6.386-2.628,6.291-6.058a2,2,0,0,0-4,0c0,.137,0,.272,0,.408,0,.449.12-.441,0-.02-.027.1-.047.2-.077.3-.075.247-.172.166.055-.082a2.67,2.67,0,0,0-.317.563c-.1.23.335-.366.065-.083-.107.111-.208.225-.322.33-.044.041-.344.268-.061.065s-.031.015-.076.046c-.176.116-.36.209-.544.31s-.314.034.118-.042a2.676,2.676,0,0,0-.314.112c-.045.014-.656.143-.662.163l.255-.034c-.091.009-.183.016-.275.019-.114,0-.228,0-.342,0a1.885,1.885,0,0,1-.339-.025l.265.033c-.088-.015-.176-.033-.264-.053a6.49,6.49,0,0,1-.638-.191c-.433-.15.39.214-.008-.007-.133-.075-.27-.14-.4-.219-.093-.055-.184-.112-.273-.173l-.1-.073q-.258-.19.1.081c.007-.028-.395-.359-.452-.419s-.161-.23-.237-.268l.17.221c-.046-.061-.089-.124-.13-.187s-.08-.125-.117-.19-.07-.126-.1-.191q-.133-.285.075.189a2.907,2.907,0,0,0-.13-.481c.156.465.043.38.041.105q0-.206.012-.411c.006-.085.022-.173.024-.258-.016.558-.025.212.012.05.026-.111.056-.222.091-.331.071-.22.209-.3-.045.073.11-.162.194-.361.3-.531.078-.129.224-.2-.14.17.066-.067.123-.147.187-.216.106-.113.222-.214.336-.319.266-.245-.423.28-.119.09.1-.063.2-.135.3-.2a7.964,7.964,0,0,1,.754-.4c.146-.07.453-.156-.184.074.072-.026.143-.058.214-.086.132-.052.265-.115.4-.154s.3-.055.449-.087c-.721.155-.1.02.109.014.154,0,.307,0,.46.006.091,0,.183.019.274.023-.642-.026-.344-.05-.17-.016a4.2,4.2,0,0,1,.615.166c.057.02.113.046.17.064-.614-.192-.234-.1-.066-.007.08.044.159.091.236.141.148.1.309.309-.106-.1.135.132.284.247.411.388s.163.341-.067-.1c.061.117.154.223.22.338.035.061.068.122.1.184.243.475-.09-.317.015.022.07.227.143.448.193.681a1.449,1.449,0,0,0,.066.374c-.041-.314-.049-.359-.026-.134.008.093.014.185.018.278a2,2,0,0,0,4,0Z"/><path class="a" d="M257.777,314.628a7.126,7.126,0,0,0-1.132-3.762,5.971,5.971,0,0,0-2.968-2.225,7.1,7.1,0,0,0-5.816.749,6.065,6.065,0,0,0-2.99,6.547,6.152,6.152,0,0,0,2.476,3.378,6.941,6.941,0,0,0,4.139,1.371c3.3-.026,6.387-2.628,6.291-6.058a2,2,0,0,0-4,0c0,.137,0,.272,0,.408.006.449.12-.441,0-.02-.027.1-.047.2-.077.3-.074.246-.172.166.055-.082a2.67,2.67,0,0,0-.317.563c-.1.23.335-.366.065-.084-.106.112-.207.226-.321.331-.045.041-.345.268-.062.065s-.031.015-.076.045c-.175.117-.36.21-.544.311s-.314.034.118-.043a2.789,2.789,0,0,0-.313.113c-.046.014-.657.143-.662.163l.255-.034c-.092.009-.184.016-.276.019-.114,0-.228,0-.342,0a1.873,1.873,0,0,1-.338-.025l.264.033c-.088-.015-.176-.033-.263-.053a6.177,6.177,0,0,1-.639-.192c-.433-.149.391.215-.007-.007-.134-.074-.271-.139-.4-.218-.092-.055-.183-.112-.272-.173l-.1-.073q-.258-.191.1.081a6.071,6.071,0,0,0-.452-.419c-.061-.064-.16-.23-.237-.268l.17.221c-.045-.061-.089-.124-.13-.187s-.08-.126-.117-.19-.07-.126-.1-.191q-.133-.285.076.188a3.03,3.03,0,0,0-.131-.48c.157.465.043.38.041.1q0-.205.012-.411c.006-.085.022-.173.025-.258-.017.558-.026.212.012.05.025-.111.056-.222.091-.331.071-.22.208-.3-.046.073.111-.162.194-.361.3-.531.078-.129.224-.2-.139.17.066-.067.122-.147.186-.216.107-.113.222-.214.336-.319.267-.246-.422.28-.118.089.1-.062.2-.134.3-.2a7.939,7.939,0,0,1,.753-.4c.147-.07.453-.156-.183.074.072-.026.142-.058.213-.086.132-.053.265-.115.4-.155s.3-.054.45-.086c-.722.155-.1.02.109.014.153,0,.306,0,.459,0,.092.006.183.02.274.024-.642-.026-.344-.05-.17-.016a4.244,4.244,0,0,1,.616.166c.056.02.113.046.17.064-.614-.193-.235-.1-.067-.007.081.044.159.091.236.141.148.095.309.309-.106-.1.135.132.284.247.412.388s.162.34-.068-.1c.061.117.154.223.221.338.034.061.068.122.1.184.243.475-.09-.317.015.022.07.227.143.448.193.681a1.539,1.539,0,0,0,.066.374c-.04-.315-.049-.359-.026-.134.008.093.014.185.018.278a2,2,0,0,0,4,0Z"/><path class="a" d="M208.164,333.984c.526,3.954,5.462,5.84,8.672,7.143a66.179,66.179,0,0,0,17.77,4.26,98.681,98.681,0,0,0,20.154-.316,72.627,72.627,0,0,0,15.405-2.9c3-.982,6.947-2.41,8.557-5.39,1.223-2.265-2.229-4.287-3.454-2.019-.086.159-.527.715-.122.248-.138.159-.275.315-.426.463s-.341.311-.52.458c.389-.32-.33.222-.481.319a17.082,17.082,0,0,1-3.7,1.75,59.835,59.835,0,0,1-12.958,2.815c-11.9,1.438-23.985,1.466-35.493-2.226a36.514,36.514,0,0,1-6.833-2.843,11.9,11.9,0,0,1-1.946-1.3c-.136-.124-.735-.84-.466-.44a3.756,3.756,0,0,1-.219-.352q-.142-.3.057.133c-.054-.213-.053-.148,0,.2a2.066,2.066,0,0,0-2-2c-.97,0-2.143.921-2,2Z"/><path class="a" d="M249.925,310a7.109,7.109,0,0,0-1.132-3.763,5.977,5.977,0,0,0-2.968-2.225,7.1,7.1,0,0,0-5.816.749,6.066,6.066,0,0,0-2.99,6.547,6.152,6.152,0,0,0,2.476,3.378,6.949,6.949,0,0,0,4.139,1.372c3.3-.026,6.387-2.629,6.291-6.058a2,2,0,0,0-4,0c0,.136,0,.271,0,.407.006.449.12-.44,0-.02-.027.1-.046.2-.076.3-.075.247-.173.166.054-.081a2.623,2.623,0,0,0-.316.563c-.1.229.334-.366.064-.084-.106.111-.207.226-.321.33-.045.041-.345.268-.062.065s-.03.016-.076.046c-.175.116-.36.209-.543.31s-.315.035.117-.042a2.6,2.6,0,0,0-.313.112c-.046.015-.657.143-.662.163l.255-.034c-.092.009-.184.016-.276.019-.114,0-.228,0-.342,0a1.786,1.786,0,0,1-.338-.025l.264.033c-.088-.015-.176-.032-.263-.052a6.433,6.433,0,0,1-.639-.192c-.433-.149.391.215-.007-.007-.133-.074-.271-.14-.4-.218-.092-.056-.183-.113-.272-.174l-.1-.073c-.172-.127-.138-.1.1.082a5.675,5.675,0,0,0-.452-.42c-.061-.064-.16-.23-.237-.268l.17.221c-.045-.061-.088-.123-.13-.187s-.08-.125-.117-.189-.07-.127-.1-.192c-.089-.19-.063-.127.076.189a3.013,3.013,0,0,0-.131-.481c.157.466.043.381.041.1,0-.137,0-.274.013-.41,0-.086.021-.174.024-.259-.017.558-.026.212.012.051.026-.112.056-.223.091-.332.071-.22.208-.3-.046.074.111-.163.195-.362.3-.532.078-.129.224-.2-.139.17.066-.067.122-.146.187-.215.106-.114.222-.215.336-.32.266-.245-.423.281-.119.09.1-.063.195-.135.3-.2a7.948,7.948,0,0,1,.753-.4c.147-.07.453-.156-.183.074.072-.026.142-.058.214-.086.131-.052.264-.114.4-.154s.3-.054.45-.086c-.722.154-.1.019.109.013q.23-.007.459.006c.092,0,.183.02.275.023-.643-.026-.345-.05-.17-.016a4.541,4.541,0,0,1,.615.166c.057.02.113.047.17.064-.614-.192-.235-.1-.067-.007.081.044.159.091.236.141.148.1.309.31-.106-.1.135.133.284.247.412.388s.162.341-.067-.1c.06.117.153.224.22.339.034.06.068.121.1.183.243.475-.09-.317.015.022.071.227.144.448.193.681a1.531,1.531,0,0,0,.066.374q-.06-.471-.026-.134.012.139.018.279a2,2,0,0,0,4,0Z"/><path class="a" d="M227.788,333.242a48.244,48.244,0,0,1,4.778-3.037,2.081,2.081,0,0,0,.919-1.2,2,2,0,0,0-2.938-2.258,48.244,48.244,0,0,0-4.778,3.037,2.2,2.2,0,0,0-.919,1.195,2.043,2.043,0,0,0,.2,1.541,2.017,2.017,0,0,0,1.2.919,1.934,1.934,0,0,0,1.541-.2Z"/><path class="a" d="M234.9,337.67q.2-.179.405-.347c.1-.08.2-.156.293-.235.165-.134-.186.144-.172.132l.2-.152q.741-.552,1.5-1.085c1.343-.948,2.708-1.865,4.079-2.774q4.207-2.788,8.483-5.474c.934-.589,1.868-1.179,2.811-1.753,2.2-1.335.188-4.8-2.019-3.454-5.121,3.115-10.191,6.369-15.1,9.808a34.287,34.287,0,0,0-3.306,2.5c-1.916,1.727.92,4.548,2.829,2.829Z"/><path class="a" d="M250.9,335.205c1.7-1.2,3.465-2.318,5.241-3.4a50.243,50.243,0,0,1,4.8-2.709,2.009,2.009,0,0,0,.718-2.736,2.056,2.056,0,0,0-2.737-.717,50.018,50.018,0,0,0-4.8,2.708c-1.776,1.086-3.54,2.2-5.241,3.4a2,2,0,0,0,2.019,3.454Z"/><path class="a" d="M244.052,325.413c1.325,2.069,2.823,4.027,4.265,6.015a41.238,41.238,0,0,1,3.957,5.985,2.011,2.011,0,0,0,2.736.718,2.053,2.053,0,0,0,.718-2.737,41.238,41.238,0,0,0-3.957-5.985c-1.442-1.988-2.94-3.946-4.265-6.015a2,2,0,0,0-3.454,2.019Z"/><path class="a" d="M232.5,323.82a24.225,24.225,0,0,0,2.037,2.914c1.078,1.43,2.18,2.841,3.276,4.257l.4.512c-.208-.27.057.073.121.156q.346.452.692.905c.326.43.653.861.963,1.3,1.436,2.053,3,4,4.515,5.989a2.067,2.067,0,0,0,2.737.718,2.013,2.013,0,0,0,.717-2.736c-2.38-3.116-4.686-6.282-7.085-9.382q-.375-.486-.752-.971l-.356-.459c-.04-.053-.49-.635-.283-.366-.5-.647-1-1.294-1.487-1.946a24.294,24.294,0,0,1-2.037-2.913c-1.229-2.263-4.684-.246-3.454,2.018Z"/><path class="b" d="M358.8,337.231q-.678.033-1.361.044c-6.311.105-13.325-.3-19.131-2.926-4.448-2.012-8.6-5.633-8.513-10.9.08-4.742,5.329-8.554,9.7-10.926,2.275-1.236,8.383-3,15.545-3a56.267,56.267,0,0,1,10.884,1.518A22.867,22.867,0,0,1,376.6,317.2c3.078,2.908,6.007,9.322,2.32,12.447A32.8,32.8,0,0,1,358.8,337.231Z"/><path class="b" d="M376.919,337.642c.941-2.445,1.6-5.2,2.491-8.416a32.711,32.711,0,0,1-20.606,8q-.678.033-1.361.044c-6.311.105-13.325-.3-19.131-2.926a17.313,17.313,0,0,1-6.072-4.363c-.1.526-.17.879-.17.879.994,4.229,1.732,10.661,6.582,15.014,3.668,3.292,12.292,4.678,19.755,4.429a19.715,19.715,0,0,0,13.805-5.6A17.614,17.614,0,0,0,376.919,337.642Z"/><path class="k" d="M355.918,318c1.91.147,4.033.939,4.93,2.761.786,1.594.464,3.671-1.41,4.192a8.423,8.423,0,0,1-4.3-.107,15.478,15.478,0,0,1-2.408-.693c-1-.427-1.272-.824-1.215-1.878A4.223,4.223,0,0,1,355.918,318Z"/><path class="a" d="M358.8,335.231a56.114,56.114,0,0,1-13.823-.862c-3.886-.812-7.918-2.248-10.745-5.156-2.453-2.524-3.268-6.074-1.2-9.074a20.321,20.321,0,0,1,8.127-6.218c6.46-2.825,14.343-2.8,21.28-1.594a24.491,24.491,0,0,1,9.153,3.352c2.755,1.786,5.383,4.263,6.523,7.411.513,1.416.938,3.341-.1,4.641-1.318,1.658-3.693,2.895-5.526,3.879a32.552,32.552,0,0,1-13.7,3.621c-2.561.137-2.577,4.138,0,4a37.826,37.826,0,0,0,14.642-3.618,33.215,33.215,0,0,0,6.246-4.019,7.325,7.325,0,0,0,2.926-5.315c.332-4.155-2.218-8.317-5.169-11.022a27.2,27.2,0,0,0-11.09-6.168,44.455,44.455,0,0,0-10.909-1.556,41.516,41.516,0,0,0-14.038,2.048,25.687,25.687,0,0,0-10.17,6.491c-3.281,3.458-4.377,7.909-2.368,12.342,2.137,4.718,7.171,7.512,11.9,9,5.75,1.807,12.044,2.077,18.029,1.819C361.368,339.121,361.382,335.12,358.8,335.231Z"/><path class="a" d="M330.141,331.4c1,4.291,1.737,8.684,4.191,12.449,2.722,4.177,6.725,6.259,11.49,7.342a44.655,44.655,0,0,0,15.94.813,22.168,22.168,0,0,0,12.539-6.523c3.945-3.982,5.305-9.329,6.72-14.576.671-2.489-3.186-3.55-3.857-1.064-1.069,3.964-1.958,8.246-4.555,11.548a18.311,18.311,0,0,1-10.071,6.421c-4.439,1.02-9.488.666-13.938-.13-3.9-.7-7.8-1.81-10.287-5.087-2.7-3.554-3.335-8.031-4.315-12.257-.581-2.506-4.439-1.445-3.857,1.064Z"/><path class="a" d="M353.546,322.869a5.177,5.177,0,0,1-.031-.778c0-.062.013-.127.013-.189,0-.212-.03.212-.035.22a1.781,1.781,0,0,0,.086-.424c.03-.118.069-.233.1-.35.01-.034.069-.138.062-.17,0,.012-.187.373-.084.2.143-.236.276-.478.421-.713.106-.171-.126.172-.132.174.029-.007.093-.109.116-.132.082-.083.16-.168.246-.248.057-.052.366-.311.111-.1s.106-.057.184-.1.273-.1.309-.163c0,.007-.4.141-.207.087.056-.016.111-.042.167-.06.113-.038.228-.07.343-.1.057-.014.122-.018.177-.037.221-.072-.4.015-.169.022.257.007.509-.02.767,0a1,1,0,0,0,.225.021c0,.005-.395-.063-.167-.023.164.028.328.054.491.089a7.489,7.489,0,0,1,.845.232c.074.025.472.185.179.058s.134.067.209.106c.21.108.4.238.6.36.3.182-.3-.268-.047-.042.095.085.192.166.283.255.076.074.146.154.22.231a1.065,1.065,0,0,0,.1.119c.009.007-.254-.368-.155-.2.112.188.231.371.34.562.148.261-.152-.456-.029-.067.039.126.08.25.11.379.011.047.019.1.031.144.066.265-.031-.2-.028-.239-.008.112.019.235.02.348s-.009.234-.013.352c-.01.306.106-.488.005-.074-.029.12-.055.241-.09.359-.044.147-.235.612.011.036a2.194,2.194,0,0,0-.2,1.541,2,2,0,0,0,3.655.478,6.031,6.031,0,0,0,.373-4.34,6.464,6.464,0,0,0-2.713-3.391c-2.684-1.719-6.674-1.915-8.978.535a6.449,6.449,0,0,0-1.731,5.031,2.047,2.047,0,0,0,2,2,2.02,2.02,0,0,0,2-2Z"/><path class="a" d="M341.632,323.028c.017-.061.039-.121.056-.183.082-.3-.068.189-.1.23a2.323,2.323,0,0,0,.177-.336c.039-.066.083-.128.125-.192.161-.245-.3.354-.148.19.09-.1.171-.2.265-.29s.2-.182.3-.271c.259-.225-.146.144-.179.135a1.11,1.11,0,0,0,.17-.121,6.768,6.768,0,0,1,.775-.458c.131-.067.265-.128.4-.189.286-.133-.412.163-.19.08.07-.027.139-.056.209-.082.281-.106.567-.2.856-.283a12.733,12.733,0,0,1,1.8-.372l-.531.071c.317-.04.634-.069.954-.085a2,2,0,0,0,0-4,14.169,14.169,0,0,0-5.16,1.235,6.313,6.313,0,0,0-3.629,3.858,2,2,0,0,0,3.857,1.063Z"/><path class="a" d="M74.43,302.518q8.151,0,16.3-.008l28.591-.02,37.84-.031,43.864-.037,47.212-.041,47.353-.041,44.286-.038,38.545-.033L408,302.246q8.786-.006,17.57-.011h2.106c2.574,0,2.578-4,0-4q-7.1,0-14.209.007-13.476.009-26.952.021l-36.655.03-43.133.037-46.931.041-47.525.041-44.907.039-39.621.032-31.107.024q-9.777.006-19.553.011H74.43c-2.574,0-2.578,4,0,4Z"/></svg>