<?xml version="1.0" ?>
<!-- Uploaded to: SVG Repo, www.svgrepo.com, Generator: SVG Repo Mixer Tools -->
<svg width="800px" height="800px" viewBox="0 0 64 64" xmlns="http://www.w3.org/2000/svg" xmlns:xlink="http://www.w3.org/1999/xlink">
<defs>
<style>.cls-1{fill:#af8756;}.cls-2{fill:#89643d;}.cls-3{fill:url(#linear-gradient);}.cls-4{fill:#fff887;}.cls-5{fill:#ffd757;}.cls-6{fill:#fffaab;}.cls-7{fill:#ffd85e;}.cls-8{fill:#ffe699;}.cls-9{fill:#ffd03b;}.cls-10{fill:url(#linear-gradient-2);}.cls-11,.cls-16{fill:#56ff4a;}.cls-11{opacity:0.5;}.cls-12{fill:url(#linear-gradient-3);}.cls-13{fill:url(#linear-gradient-4);}.cls-14{fill:url(#linear-gradient-5);}.cls-15{fill:#21ff2d;}.cls-17{fill:#ff5900;}.cls-18{fill:#ff9500;}.cls-19{fill:#ffe9cc;}.cls-20{fill:#fff4e6;}.cls-21{fill:#eaff4d;}.cls-22{fill:#f3ff99;}.cls-23{fill:#00c40a;}.cls-24{fill:#ed9b00;}.cls-25{fill:url(#linear-gradient-6);}.cls-26{fill:url(#linear-gradient-7);}.cls-27{fill:url(#linear-gradient-8);}</style>
<linearGradient gradientUnits="userSpaceOnUse" id="linear-gradient" x1="22.913" x2="40.413" y1="43.925" y2="22.175">
<stop offset="0.043" stop-color="#fff566"/>
<stop offset="1" stop-color="#ffca1f"/>
</linearGradient>
<linearGradient gradientUnits="userSpaceOnUse" id="linear-gradient-2" x1="26.195" x2="30.429" y1="23.308" y2="23.308">
<stop offset="0.065" stop-color="#00c40a"/>
<stop offset="1" stop-color="#21ff2d"/>
</linearGradient>
<linearGradient gradientUnits="userSpaceOnUse" id="linear-gradient-3" x1="20.073" x2="23.818" y1="34.566" y2="34.566">
<stop offset="0.065" stop-color="#00c40a"/>
<stop offset="1" stop-color="#00950a"/>
</linearGradient>
<linearGradient id="linear-gradient-4" x1="38.596" x2="42.992" xlink:href="#linear-gradient-2" y1="41.039" y2="41.039"/>
<linearGradient id="linear-gradient-5" x1="39.776" x2="44.01" xlink:href="#linear-gradient-2" y1="28.012" y2="28.012"/>
<linearGradient id="linear-gradient-6" x1="36.628" x2="39.961" xlink:href="#linear-gradient-3" y1="10.352" y2="18.769"/>
<linearGradient id="linear-gradient-7" x1="42.823" x2="43.073" xlink:href="#linear-gradient-2" y1="22.934" y2="10.85"/>
<linearGradient gradientUnits="userSpaceOnUse" id="linear-gradient-8" x1="49.283" x2="43.867" y1="13.268" y2="24.185">
<stop offset="0" stop-color="#56ff4a"/>
<stop offset="1" stop-color="#21ff2d"/>
</linearGradient>
</defs>
<title/>
<g data-name="fried rice" id="fried_rice">
<path class="cls-1" d="M32.413,4.744a25.073,25.073,0,0,0-19.84,39.044,12.422,12.422,0,0,1,2.16,6.707,30.173,30.173,0,0,1-.482,7.072c-.895,3.338,2.606,4.315,4.316,2.6s5.862-5.943,10.34-5.618c0,0,2.876.326,4.478.326a25.077,25.077,0,1,0-.972-50.136Z"/>
<circle class="cls-2" cx="33.304" cy="29.721" r="20.273"/>
<circle class="cls-2" cx="16.887" cy="57.781" r="1.618"/>
<path class="cls-3" d="M18.2,21.078s-.34-2.11,1.191-2.285,1.532.527,1.532.527-1.021-2.461.17-3.34a11.367,11.367,0,0,1,2.893-1.406s-1.191-.352,0-1.406,3.233-.528,3.233-.528a.982.982,0,0,1,1.021-1.406c1.532,0,1.7,1.758,1.7,1.758a1.535,1.535,0,0,1,.851-2.11,2.753,2.753,0,0,1,2.892.7s.851-1.231,1.532-1.231S37.6,13.168,37.6,13.168a3.9,3.9,0,0,1,2.212-.528c1.021.176,1.192,1.055.681,1.934a4.069,4.069,0,0,1,3.574.527,4.807,4.807,0,0,1,1.871,2.725,1.859,1.859,0,0,1,2.383,1.142,13.489,13.489,0,0,1,.936,3.692s4.424,3.867,3.488,8a3.648,3.648,0,0,1,.17,3.076s.6,1.67-.425,2.461-.34-.088-.34-.088-.086,2.461-1.532,3.515-4,.528-4,.528,1.191,2.9-.085,4.218A1.813,1.813,0,0,1,43.9,44.28s.6.264-.255.7a4.922,4.922,0,0,1-1.957.44l-1.361,1.494s-.085.176-1.106,0c0,0-.085,1.318-2.808,1.406a2.294,2.294,0,0,1-2.382.264s-1.447.967-3.489-.44c0,0-4.084,1.055-4.594-2.2,0,0-1.957.615-2.383-.967,0,0-1.276.264-1.531-.527,0,0-2.467-.967-1.787-3.164,0,0-1.361.7-1.361-.791a3.06,3.06,0,0,1-2.468-3.515l.426-1.934s-1.447-.088-1.276-.879a.936.936,0,0,1,1.021-.7s-2.213-1.494-.681-3.164l1.021-.176a3.078,3.078,0,0,1,.085-3.252S14.712,23.275,18.2,21.078Z"/>
<path class="cls-4" d="M23.615,22.638c-.665.006-1.2-.046-1.694.488-.425.46-.65,1.151.132,1.4-.452.413-1.234.6-1.473,1.2-.3.763.383,1.029.752,1.531-.674.291-1.9.837-2.181,1.567a2.4,2.4,0,0,0-.014.993c.179.669.509.5.893.919-.522.571-1.458,1.535-1.3,2.405.172.958,1.513,1.027,2.168.749.037.818.543.714,1.027.951.807.4.946.586,1.343-.32.055-.123.059-.608.115-.656.29-.251,1.222.221,1.6.33.529.151,1.641.613,2.212.315.653-.34.395-1.19.729-1.617.551-.7,2.141-.251,3.02-.813.953-.609,1.96-2.91.161-2.78.555-.5.54-1.344-.337-1.465.572-1.845-1.52-1.823-2.675-1.621a4.037,4.037,0,0,0-.332-2.511c-.343-.623-.777-.723-1.222-1.072a2.086,2.086,0,0,0-1.548-.732,4.123,4.123,0,0,0-1.46.084"/>
<path class="cls-4" d="M21.445,37.4a1.97,1.97,0,0,0,.254,1.744c.4.484,1.051.8,1.4.06.348.5.425,1.3.991,1.623.715.4,1.071-.239,1.619-.536.2.707.571,2,1.255,2.374a2.4,2.4,0,0,0,.982.15c.688-.087.561-.437,1.032-.759.5.594,1.322,1.653,2.206,1.617.972-.04,1.223-1.359,1.037-2.045.815.074.781-.441,1.082-.889.5-.745.71-.857-.133-1.374-.116-.07-.595-.141-.635-.2-.21-.322.386-1.181.546-1.543.221-.5.83-1.544.614-2.149-.248-.694-1.126-.554-1.5-.943-.623-.642.042-2.155-.394-3.1-.473-1.028-2.616-2.339-2.732-.54-.417-.617-1.258-.718-1.5.135-1.751-.819-2.013,1.257-1.971,2.429a4.036,4.036,0,0,0-2.533-.013c-.664.255-.822.671-1.228,1.064-.491.474-.753.538-.936,1.434a4.128,4.128,0,0,0-.117,1.458"/>
<path class="cls-5" d="M38.381,33.651a1.971,1.971,0,0,0,.253,1.745c.4.484,1.051.8,1.405.06.348.5.425,1.3.991,1.623.715.4,1.072-.24,1.619-.536.2.707.571,1.995,1.255,2.374a2.4,2.4,0,0,0,.983.15c.687-.087.56-.437,1.032-.76.494.595,1.321,1.654,2.205,1.618.972-.04,1.223-1.359,1.037-2.046.815.075.781-.44,1.082-.888.5-.746.71-.857-.133-1.374-.116-.071-.595-.141-.635-.2-.209-.322.386-1.181.546-1.544.222-.5.83-1.543.614-2.149-.248-.693-1.126-.553-1.5-.942-.622-.642.043-2.155-.394-3.1-.473-1.028-2.616-2.339-2.732-.54-.417-.617-1.258-.718-1.5.135-1.75-.819-2.013,1.257-1.971,2.428a4.043,4.043,0,0,0-2.533-.012c-.664.254-.822.671-1.228,1.064-.491.474-.753.537-.936,1.434a4.144,4.144,0,0,0-.117,1.457"/>
<path class="cls-6" d="M23.94,29.721s-1.547-1.384-.57-2.524A.9.9,0,0,1,25,27.36a.914.914,0,0,1,1.14-.814c1.058.163.488,1.466.488,1.466s1.384.162,1.059.977a2.61,2.61,0,0,1-1.222,1.221s1.14,1.791-.081,2.2a1.618,1.618,0,0,1-1.873-.814S22.23,31.431,23.94,29.721Z"/>
<ellipse class="cls-6" cx="27.971" cy="35.991" rx="0.936" ry="0.896"/>
<ellipse class="cls-6" cx="26.993" cy="36.968" rx="0.936" ry="0.814"/>
<ellipse class="cls-6" cx="28.764" cy="37.66" rx="1.242" ry="1.221"/>
<ellipse class="cls-6" cx="29.741" cy="35.869" rx="1.242" ry="1.221"/>
<path class="cls-6" d="M27.328,35.909a.534.534,0,0,1-.538.53.518.518,0,0,1-.538-.53c.04-.419.3-.7.538-.529S27.328,35.617,27.328,35.909Z"/>
<ellipse class="cls-7" cx="28.683" cy="34.831" rx="1.055" ry="1.038"/>
<ellipse class="cls-7" cx="46.331" cy="33.222" rx="0.936" ry="0.896"/>
<ellipse class="cls-8" cx="45.354" cy="34.2" rx="0.936" ry="0.814"/>
<ellipse class="cls-8" cx="47.124" cy="34.892" rx="1.242" ry="1.221"/>
<ellipse class="cls-8" cx="48.102" cy="33.1" rx="1.242" ry="1.221"/>
<ellipse class="cls-7" cx="45.15" cy="33.141" rx="0.538" ry="0.529"/>
<ellipse class="cls-7" cx="47.043" cy="32.062" rx="1.055" ry="1.038"/>
<circle class="cls-9" cx="30.495" cy="20.562" r="0.936"/>
<ellipse class="cls-9" cx="36.967" cy="25.121" rx="0.896" ry="0.936"/>
<ellipse class="cls-9" cx="31.268" cy="45.802" rx="0.814" ry="0.855"/>
<circle class="cls-9" cx="41.649" cy="41.487" r="1.018"/>
<circle class="cls-4" cx="19.014" cy="36.357" r="0.692"/>
<circle class="cls-9" cx="25.569" cy="18.404" r="0.733"/>
<circle class="cls-9" cx="34.891" cy="35.624" r="1.506"/>
<circle class="cls-4" cx="33.263" cy="37.986" r="0.936"/>
<circle class="cls-4" cx="33.711" cy="36.642" r="0.814"/>
<circle class="cls-9" cx="38.107" cy="39.248" r="0.896"/>
<circle class="cls-4" cx="32.367" cy="33.019" r="1.018"/>
<circle class="cls-7" cx="31.227" cy="17.956" r="0.529"/>
<circle class="cls-4" cx="19.135" cy="30.779" r="0.894"/>
<circle class="cls-7" cx="45.231" cy="28.867" r="0.448"/>
<circle class="cls-4" cx="31.024" cy="31.594" r="0.407"/>
<circle class="cls-7" cx="38.229" cy="28.867" r="0.529"/>
<circle class="cls-7" cx="34.443" cy="46.087" r="0.489"/>
<circle class="cls-7" cx="23.33" cy="42.626" r="0.529"/>
<circle class="cls-7" cx="34.321" cy="22.272" r="0.448"/>
<circle class="cls-7" cx="19.503" cy="23.574" r="0.448"/>
<circle class="cls-7" cx="34.484" cy="31.716" r="0.366"/>
<path class="cls-10" d="M30.429,23.4a2.023,2.023,0,0,1-2.179,1.934A1.916,1.916,0,0,1,26.2,23.4a2.117,2.117,0,1,1,4.234,0Z"/>
<circle class="cls-11" cx="28.825" cy="23.126" r="1.251"/>
<circle class="cls-12" cx="21.945" cy="34.566" r="1.873"/>
<circle class="cls-11" cx="22.399" cy="34.325" r="1.107"/>
<circle class="cls-13" cx="40.794" cy="41.039" r="2.198"/>
<circle class="cls-11" cx="41.327" cy="40.756" r="1.299"/>
<circle class="cls-14" cx="41.893" cy="28.012" r="2.117"/>
<circle class="cls-11" cx="42.406" cy="27.739" r="1.251"/>
<circle class="cls-15" cx="35.787" cy="34.484" r="1.71"/>
<circle class="cls-16" cx="36.201" cy="34.264" r="1.01"/>
<rect class="cls-17" height="4.152" rx="1.14" ry="1.14" width="4.152" x="19.544" y="24.673"/>
<path class="cls-18" d="M22.582,27.767H21.554a.675.675,0,0,1-.626-.715V25.877a.675.675,0,0,1,.626-.715h1.028a.675.675,0,0,1,.625.715v1.175A.675.675,0,0,1,22.582,27.767Z"/>
<rect class="cls-17" height="4.152" rx="1.14" ry="1.14" transform="translate(-18.184 25.034) rotate(-33.139)" width="4.152" x="30.902" y="40.998"/>
<path class="cls-18" d="M34.34,43.4l-.861.562a.675.675,0,0,1-.915-.257l-.643-.984a.675.675,0,0,1,.133-.941l.861-.562a.675.675,0,0,1,.915.257l.643.984A.675.675,0,0,1,34.34,43.4Z"/>
<rect class="cls-17" height="2.742" rx="0.753" ry="0.753" transform="translate(-1.869 61.014) rotate(-65.774)" width="2.742" x="44.874" y="30.582"/>
<path class="cls-18" d="M47.118,31.649l-.278.619a.447.447,0,0,1-.6.183l-.707-.318a.446.446,0,0,1-.261-.571l.278-.619a.447.447,0,0,1,.6-.183l.707.318A.446.446,0,0,1,47.118,31.649Z"/>
<rect class="cls-17" height="3.582" rx="0.983" ry="0.983" transform="matrix(0.416, -0.909, 0.909, 0.416, 1.514, 38.19)" width="3.582" x="28.703" y="16.124"/>
<path class="cls-18" d="M30.884,19.059l-.807-.369a.582.582,0,0,1-.234-.786l.422-.921a.583.583,0,0,1,.748-.337l.806.369a.582.582,0,0,1,.234.786l-.422.922A.581.581,0,0,1,30.884,19.059Z"/>
<rect class="cls-19" height="4.152" rx="1.14" ry="1.14" width="4.152" x="26.057" y="30.861"/>
<path class="cls-20" d="M29.1,33.955H28.067a.675.675,0,0,1-.626-.715V32.065a.675.675,0,0,1,.626-.715H29.1a.675.675,0,0,1,.626.715V33.24A.675.675,0,0,1,29.1,33.955Z"/>
<rect class="cls-19" height="3.338" rx="0.916" ry="0.916" transform="translate(-6.983 32) rotate(-45)" width="3.338" x="33.466" y="22.76"/>
<path class="cls-20" d="M35.1,25.554l-.585-.584a.543.543,0,0,1,.051-.762l.668-.668A.541.541,0,0,1,36,23.489l.585.584a.544.544,0,0,1-.051.763l-.668.668A.542.542,0,0,1,35.1,25.554Z"/>
<rect class="cls-19" height="3.338" rx="0.916" ry="0.916" transform="translate(-11.086 8.604) rotate(-17.237)" width="3.338" x="21.172" y="39.207"/>
<path class="cls-20" d="M23.822,41.428l-.789.245a.543.543,0,0,1-.651-.4l-.28-.9a.543.543,0,0,1,.31-.7l.789-.245a.542.542,0,0,1,.651.4l.28.9A.543.543,0,0,1,23.822,41.428Z"/>
<rect class="cls-19" height="3.338" rx="0.916" ry="0.916" transform="translate(-9.005 15.495) rotate(-17.237)" width="3.338" x="44.947" y="35.787"/>
<path class="cls-20" d="M47.6,38.009l-.79.245a.543.543,0,0,1-.651-.4l-.28-.9a.542.542,0,0,1,.311-.7l.789-.245a.543.543,0,0,1,.651.4l.28.9A.544.544,0,0,1,47.6,38.009Z"/>
<path class="cls-21" d="M24.917,24.673s.489-.407.082-1.628-1.14-1.3-.652-2.2.082-2.117-.814-2.117-2.687,1.384-1.628,2.361c0,0-.814.651-.407,1.384s1.3.326,1.3.326a1.352,1.352,0,0,0,.815,1.3C24.51,24.511,23.777,24.836,24.917,24.673Z"/>
<ellipse class="cls-22" cx="23.635" cy="19.905" rx="0.641" ry="0.626"/>
<path class="cls-21" d="M29.833,47.023s.489-.407.081-1.628-1.139-1.3-.651-2.2.081-2.117-.814-2.117-2.687,1.385-1.629,2.362c0,0-.814.651-.407,1.384s1.3.325,1.3.325a1.353,1.353,0,0,0,.814,1.3C29.426,46.86,28.693,47.186,29.833,47.023Z"/>
<ellipse class="cls-22" cx="28.551" cy="42.255" rx="0.641" ry="0.626"/>
<path class="cls-21" d="M39.481,32.276s.489-.407.082-1.628-1.14-1.3-.652-2.2.082-2.117-.814-2.117-2.687,1.384-1.628,2.362c0,0-.815.651-.407,1.384s1.3.325,1.3.325a1.353,1.353,0,0,0,.815,1.3C39.074,32.113,38.341,32.439,39.481,32.276Z"/>
<ellipse class="cls-22" cx="38.199" cy="27.508" rx="0.641" ry="0.626"/>
<path class="cls-23" d="M24.343,31.173a.487.487,0,0,1-.359.59h0a.488.488,0,0,1-.59-.359l-.345-1.425a.488.488,0,0,1,.359-.59h0a.49.49,0,0,1,.59.36Z"/>
<path class="cls-23" d="M29.3,39.833a.489.489,0,0,1-.593.355h0a.489.489,0,0,1-.354-.593l.358-1.422a.489.489,0,0,1,.593-.354h0a.488.488,0,0,1,.354.593Z"/>
<path class="cls-23" d="M40.8,37.055a.489.489,0,0,1-.634.276h0a.489.489,0,0,1-.276-.633l.536-1.364a.488.488,0,0,1,.634-.276h0a.489.489,0,0,1,.276.633Z"/>
<path class="cls-23" d="M34.954,21.871a.489.489,0,0,1-.234.65h0a.488.488,0,0,1-.65-.233l-.625-1.326a.487.487,0,0,1,.233-.65h0a.488.488,0,0,1,.65.233Z"/>
<path class="cls-23" d="M32.776,28.059a.489.489,0,0,1-.234.65h0a.488.488,0,0,1-.65-.233l-.625-1.326a.488.488,0,0,1,.233-.65h0a.488.488,0,0,1,.65.233Z"/>
<path class="cls-23" d="M26.266,18.706a.49.49,0,0,1-.651.232h0a.49.49,0,0,1-.232-.651l.628-1.324a.488.488,0,0,1,.651-.232h0a.487.487,0,0,1,.232.65Z"/>
<path class="cls-23" d="M38.646,44.044a.487.487,0,0,1,.323.61h0a.488.488,0,0,1-.61.324l-1.4-.431a.487.487,0,0,1-.323-.61h0a.488.488,0,0,1,.61-.324Z"/>
<path class="cls-23" d="M47.382,28.309a.488.488,0,0,1-.643.252h0a.487.487,0,0,1-.253-.643l.585-1.343a.488.488,0,0,1,.643-.253h0a.489.489,0,0,1,.253.643Z"/>
<path class="cls-24" d="M49.447,15.719s.226-1.594-.976-1.7a1.454,1.454,0,0,0-1.131.65s-.614-.944-1.431-.728a2.093,2.093,0,0,0-1.568-1.761S44,10.611,42.84,10.93c-.633.174-.837,1-.837,1s-1-.748-1.706-.1a2.125,2.125,0,0,0-2.187-1.4s-.839-1.373-1.831-.686a1.452,1.452,0,0,0-.458,1.221s-1.451-.458-1.756.763.076,1.374.076,1.374-1.221.687-.763,1.6.916,1.068.916,1.068-1.3.916-.534,1.909,1.221.992,1.221.992a2.134,2.134,0,0,0,1.755,2.213s.84,1.527,2.061,1.6a2.833,2.833,0,0,0,1.02-.092,2.425,2.425,0,0,0,1.177,1.4,3.475,3.475,0,0,0,.7.218,2.24,2.24,0,0,0,.608,1.449,1.743,1.743,0,0,0,2.571.241,5.683,5.683,0,0,0,1.517-1.717s.44.066,1.248-.554A1.7,1.7,0,0,0,48.3,21.9a1.913,1.913,0,0,0,1.6-.858,2.451,2.451,0,0,0,.058-2.228A2.284,2.284,0,0,0,49.447,15.719Z"/>
<path class="cls-25" d="M38.6,8.634s-.9-1.466-1.954-.733a1.552,1.552,0,0,0-.489,1.3s-1.547-.489-1.872.814.081,1.465.081,1.465-1.3.733-.814,1.71.977,1.14.977,1.14-1.384.977-.57,2.036,1.3,1.058,1.3,1.058a2.277,2.277,0,0,0,1.872,2.361s.9,1.629,2.2,1.71a1.86,1.86,0,0,0,2.279-1.547,6.065,6.065,0,0,0,.082-2.443s.407-.244.651-1.3a1.818,1.818,0,0,0-.488-1.71,2.042,2.042,0,0,0,.732-1.791,2.613,2.613,0,0,0-1.465-1.873A2.435,2.435,0,0,0,38.6,8.634Z"/>
<path class="cls-26" d="M45.242,10.507s-.36-1.68-1.6-1.339c-.676.185-.893,1.067-.893,1.067s-1.3-.973-2.036.148-.409,1.41-.409,1.41-1.472.26-1.334,1.344a2.129,2.129,0,0,0,.544,1.4S37.883,15,38.3,16.268s.878,1.43.878,1.43a2.279,2.279,0,0,0,.985,2.848s.306,1.833,1.508,2.341a1.86,1.86,0,0,0,2.664-.7,6.085,6.085,0,0,0,.886-2.278s.465-.1,1.046-1.013a1.816,1.816,0,0,0,.1-1.775,2.044,2.044,0,0,0,1.285-1.448,2.617,2.617,0,0,0-.763-2.252A2.435,2.435,0,0,0,45.242,10.507Z"/>
<path class="cls-27" d="M50.688,14.277s.242-1.7-1.041-1.809a1.55,1.55,0,0,0-1.2.694s-.883-1.362-1.963-.564-.87,1.182-.87,1.182-1.471-.264-1.716.8a2.13,2.13,0,0,0,.028,1.5s-1.69-.128-1.735,1.207.331,1.645.331,1.645a2.279,2.279,0,0,0-.058,3.014s-.346,1.826.607,2.717a1.86,1.86,0,0,0,2.743.258,6.071,6.071,0,0,0,1.617-1.832s.47.071,1.332-.59a1.816,1.816,0,0,0,.711-1.63,2.043,2.043,0,0,0,1.706-.915,2.616,2.616,0,0,0,.061-2.377A2.435,2.435,0,0,0,50.688,14.277Z"/>
</g>
</svg>