<?xml version="1.0" ?>
<!-- Uploaded to: SVG Repo, www.svgrepo.com, Generator: SVG Repo Mixer Tools -->
<svg width="800px" height="800px" viewBox="0 0 64 64" xmlns="http://www.w3.org/2000/svg">
<defs>
<style>.cls-1{fill:#af8756;}.cls-2{fill:#89643d;}.cls-3{fill:#ffd7a3;}.cls-4{fill:#ffe9cc;}.cls-5{fill:#fff7ed;}.cls-6{fill:#ffffff;}.cls-7{fill:#301e08;}.cls-8{fill:#54350e;}.cls-9{fill:#f33;}.cls-10{fill:#ff0f0f;}.cls-11{fill:#ff5757;}.cls-12{fill:#ff2e2e;}.cls-13{fill:#d96600;}.cls-14{fill:#f80;}.cls-15{fill:#ffb300;}.cls-16{fill:#ffff52;}.cls-17{fill:#ffff8f;}.cls-18{fill:#ff5c5c;}.cls-19{fill:#ff3838;}.cls-20{fill:#ff8080;}</style>
</defs>
<title/>
<g id="curry">
<circle class="cls-1" cx="31.596" cy="32.359" r="27.537"/>
<circle class="cls-2" cx="31.661" cy="32.391" r="23.526"/>
<circle class="cls-3" cx="36.269" cy="30.787" r="0.56"/>
<path class="cls-4" d="M13.572,29.6s-1.04-2.006.44-2.69,1.713.022,1.713.022-1.841-2.133-.936-3.411a12.022,12.022,0,0,1,2.44-2.37s-1.313.041-.466-1.413,3.072-1.6,3.072-1.6a1.039,1.039,0,0,1,.56-1.751c1.538-.507,2.291,1.2,2.291,1.2a1.624,1.624,0,0,1,.156-2.4,2.915,2.915,0,0,1,3.139-.252s.447-1.517,1.13-1.743,3.325,2.036,3.325,2.036a4.128,4.128,0,0,1,2.047-1.263c1.083-.162,1.546.665,1.324,1.717a4.3,4.3,0,0,1,3.764-.655,5.084,5.084,0,0,1,2.782,2.117,1.965,1.965,0,0,1,2.772.358,14.3,14.3,0,0,1,2.163,3.4s5.724,2.419,6.153,6.878a3.86,3.86,0,0,1,1.19,3.033s1.151,1.48.388,2.612-.371.025-.371.025.73,2.5-.374,4.038-3.841,1.855-3.841,1.855,2.157,2.518,1.312,4.265a1.917,1.917,0,0,1-2.679.785s.686.068-.023.791a5.218,5.218,0,0,1-1.82,1.09l-.872,1.951s-.027.2-1.111.367c0,0,.351,1.352-2.354,2.342a2.424,2.424,0,0,1-2.306,1.054s-1.132,1.451-3.649.715c0,0-3.752,2.412-5.342-.685,0,0-1.762,1.266-2.713-.182,0,0-1.2.688-1.713-.022,0,0-2.8-.154-2.843-2.586,0,0-1.134,1.157-1.629-.343,0,0-2.766.52-3.643-2.714l-.214-2.083s-1.481.391-1.573-.46a.99.99,0,0,1,.793-1.044s-2.717-.768-1.732-2.953l.967-.514a3.256,3.256,0,0,1-.991-3.3S10.8,32.962,13.572,29.6Z"/>
<path class="cls-5" d="M19.527,29.373c-.665.226-1.219.351-1.539,1.052-.275.6-.272,1.371.6,1.362-.318.565-1.041,1.01-1.081,1.7-.051.867.726.906,1.262,1.288-.58.516-1.63,1.471-1.671,2.3a2.514,2.514,0,0,0,.315,1c.4.613.675.329,1.2.627-.335.746-.956,2.025-.511,2.847.49.905,1.86.53,2.426.034.308.809.781.537,1.346.615.942.13,1.145.275,1.244-.766.013-.142-.143-.63-.1-.7.208-.348,1.3-.182,1.72-.2.582-.023,1.852.071,2.327-.416.543-.558,0-1.327.2-1.866.32-.89,2.067-.962,2.764-1.817.756-.927,1-3.572-.759-2.846.393-.683.1-1.529-.824-1.36-.037-2.043-2.13-1.327-3.223-.742a4.274,4.274,0,0,0-1.166-2.411c-.551-.513-1.02-.469-1.582-.672a2.2,2.2,0,0,0-1.8-.222,4.347,4.347,0,0,0-1.438.567"/>
<path class="cls-5" d="M22.238,44.915c.133.689.181,1.256.832,1.668.559.354,1.321.456,1.431-.405.517.391.859,1.169,1.534,1.3.851.168,1-.6,1.448-1.075.432.645,1.234,1.815,2.047,1.969a2.551,2.551,0,0,0,1.036-.175c.662-.315.418-.625.785-1.1.694.433,1.875,1.223,2.751.894.963-.362.778-1.77.364-2.4.844-.2.639-.7.793-1.251.257-.915.429-1.1-.59-1.336-.139-.032-.643.056-.7.007-.316-.254,0-1.314.037-1.731.056-.58.323-1.825-.095-2.362-.479-.615-1.314-.183-1.822-.449-.837-.438-.671-2.179-1.422-2.985-.816-.876-3.4-1.483-2.924.363-.623-.482-1.5-.3-1.459.631-2.029-.242-1.605,1.93-1.174,3.092a4.271,4.271,0,0,0-2.548.827c-.583.476-.6.946-.882,1.475a2.206,2.206,0,0,0-.465,1.751,4.37,4.37,0,0,0,.366,1.5"/>
<path class="cls-5" d="M38.006,35.543c.134.689.182,1.256.832,1.668.56.354,1.322.456,1.432-.405.516.391.858,1.169,1.533,1.3.852.168,1-.6,1.448-1.075.433.645,1.235,1.815,2.047,1.969a2.553,2.553,0,0,0,1.037-.175c.661-.315.418-.625.785-1.1.693.433,1.875,1.223,2.75.894.964-.362.779-1.77.365-2.4.843-.2.638-.7.792-1.251.257-.915.429-1.1-.589-1.336-.139-.032-.644.056-.705.007-.317-.254,0-1.314.037-1.731.056-.58.323-1.825-.1-2.362-.479-.615-1.314-.183-1.822-.449-.838-.438-.671-2.179-1.423-2.985-.816-.876-3.4-1.483-2.923.363-.623-.482-1.5-.3-1.459.631-2.029-.242-1.605,1.93-1.175,3.092a4.273,4.273,0,0,0-2.548.827c-.583.476-.6.946-.881,1.475a2.2,2.2,0,0,0-.465,1.751,4.369,4.369,0,0,0,.365,1.5"/>
<path class="cls-6" d="M22.2,36.38s-2.012-.878-1.409-2.347a.955.955,0,0,1,1.69-.375.967.967,0,0,1,.875-1.2c1.117-.187.976,1.31.976,1.31s1.444-.3,1.387.631a2.76,2.76,0,0,1-.822,1.631s1.738,1.422.646,2.235a1.709,1.709,0,0,1-2.15-.2S21.05,38.663,22.2,36.38Z"/>
<ellipse class="cls-6" cx="28.326" cy="41.341" rx="0.99" ry="0.947" transform="translate(-11.524 10.953) rotate(-18.255)"/>
<ellipse class="cls-6" cx="27.668" cy="42.646" rx="0.99" ry="0.861" transform="translate(-11.966 10.813) rotate(-18.255)"/>
<ellipse class="cls-6" cx="29.676" cy="42.755" rx="1.313" ry="1.292" transform="translate(-11.899 11.447) rotate(-18.255)"/>
<ellipse class="cls-6" cx="30.064" cy="40.632" rx="1.313" ry="1.292" transform="translate(-11.215 11.462) rotate(-18.255)"/>
<path class="cls-6" d="M27.653,41.472a.564.564,0,0,1-.365.71.546.546,0,0,1-.715-.353c-.1-.435.063-.8.365-.71S27.557,41.179,27.653,41.472Z"/>
<ellipse class="cls-6" cx="45.849" cy="32.478" rx="0.99" ry="0.947" transform="translate(-7.866 15.996) rotate(-18.255)"/>
<ellipse class="cls-6" cx="45.191" cy="33.783" rx="0.99" ry="0.861" transform="translate(-8.308 15.856) rotate(-18.255)"/>
<ellipse class="cls-6" cx="47.199" cy="33.892" rx="1.313" ry="1.292" transform="translate(-8.241 16.49) rotate(-18.255)"/>
<ellipse class="cls-6" cx="47.587" cy="31.769" rx="1.313" ry="1.292" transform="translate(-7.557 16.505) rotate(-18.255)"/>
<ellipse class="cls-6" cx="44.636" cy="32.788" rx="0.569" ry="0.56" transform="translate(-8.024 15.632) rotate(-18.255)"/>
<ellipse class="cls-6" cx="46.18" cy="31.077" rx="1.116" ry="1.098" transform="translate(-7.411 16.03) rotate(-18.255)"/>
<circle class="cls-3" cx="25.749" cy="25.009" r="0.99"/>
<ellipse class="cls-3" cx="33.761" cy="27.444" rx="0.947" ry="0.99" transform="translate(-6.897 11.956) rotate(-18.255)"/>
<ellipse class="cls-3" cx="34.888" cy="50.103" rx="0.861" ry="0.904" transform="translate(-13.938 13.45) rotate(-18.255)"/>
<circle class="cls-3" cx="43.885" cy="42.33" r="1.076"/>
<circle class="cls-3" cx="19.452" cy="44.676" r="0.732"/>
<circle class="cls-3" cx="20.087" cy="24.473" r="0.775"/>
<circle class="cls-3" cx="35.155" cy="38.681" r="1.593"/>
<circle class="cls-3" cx="34.302" cy="41.591" r="0.99"/>
<circle class="cls-3" cx="34.307" cy="40.094" r="0.861"/>
<circle class="cls-3" cx="39.586" cy="41.254" r="0.947"/>
<circle class="cls-3" cx="31.757" cy="36.9" r="1.076"/>
<circle class="cls-3" cx="25.622" cy="22.149" r="0.56"/>
<circle class="cls-3" cx="17.725" cy="39.033" r="0.946"/>
<circle class="cls-6" cx="43.302" cy="28.468" r="0.474"/>
<circle class="cls-3" cx="29.936" cy="35.914" r="0.431"/>
<circle class="cls-3" cx="38.171" cy="49.337" r="0.517"/>
<circle class="cls-3" cx="25.863" cy="49.543" r="0.56"/>
<circle class="cls-3" cx="30.159" cy="25.458" r="0.474"/>
<circle class="cls-3" cx="15.708" cy="31.676" r="0.474"/>
<circle class="cls-3" cx="33.452" cy="34.89" r="0.387"/>
<path class="cls-7" d="M25.09,41.125l-.011.708a.531.531,0,0,0,.787.474l.016-.009a.532.532,0,0,0,.021-.919l-.6-.369A.138.138,0,0,0,25.09,41.125Z"/>
<path class="cls-7" d="M22.928,40.857l.04.706a.531.531,0,0,0,.819.416l.016-.01a.531.531,0,0,0-.046-.918l-.628-.324A.138.138,0,0,0,22.928,40.857Z"/>
<path class="cls-7" d="M24.4,39.415l-.708.006a.532.532,0,0,0-.454.8l.01.016a.531.531,0,0,0,.919,0l.353-.613A.137.137,0,0,0,24.4,39.415Z"/>
<path class="cls-7" d="M24.509,40.238l.593.386a.531.531,0,0,0,.82-.415v-.018a.531.531,0,0,0-.766-.507L24.523,40A.138.138,0,0,0,24.509,40.238Z"/>
<path class="cls-8" d="M24.554,40.657l-.588.394a.531.531,0,0,0,.059.917l.016.008a.531.531,0,0,0,.767-.506l-.04-.707A.138.138,0,0,0,24.554,40.657Z"/>
<path class="cls-7" d="M27.6,42.447l-.012.708a.532.532,0,0,0,.788.474l.016-.009a.532.532,0,0,0,.021-.919l-.6-.369A.138.138,0,0,0,27.6,42.447Z"/>
<path class="cls-7" d="M25.44,42.179l.039.706a.531.531,0,0,0,.82.416l.015-.01a.531.531,0,0,0-.045-.918l-.629-.324A.137.137,0,0,0,25.44,42.179Z"/>
<path class="cls-7" d="M26.908,40.737l-.708.006a.531.531,0,0,0-.454.8l.009.016a.531.531,0,0,0,.919,0l.354-.613A.137.137,0,0,0,26.908,40.737Z"/>
<path class="cls-7" d="M27.021,41.56l.593.386a.532.532,0,0,0,.82-.415v-.018a.531.531,0,0,0-.767-.507l-.633.315A.138.138,0,0,0,27.021,41.56Z"/>
<path class="cls-8" d="M27.065,41.979l-.588.394a.531.531,0,0,0,.059.917l.017.008a.531.531,0,0,0,.767-.506l-.041-.707A.138.138,0,0,0,27.065,41.979Z"/>
<path class="cls-7" d="M26.078,39.113l.416-.573a.531.531,0,0,0-.372-.84l-.019,0a.532.532,0,0,0-.545.74l.282.649A.138.138,0,0,0,26.078,39.113Z"/>
<path class="cls-7" d="M27.693,40.574l.374-.6a.531.531,0,0,0-.432-.811h-.018a.532.532,0,0,0-.491.778l.329.627A.137.137,0,0,0,27.693,40.574Z"/>
<path class="cls-7" d="M25.664,40.911l.582.4a.532.532,0,0,0,.831-.393l0-.019a.532.532,0,0,0-.754-.526l-.641.3A.137.137,0,0,0,25.664,40.911Z"/>
<path class="cls-7" d="M26.043,40.173l-.263-.657a.532.532,0,0,0-.91-.131l-.011.014a.531.531,0,0,0,.337.855l.7.106A.137.137,0,0,0,26.043,40.173Z"/>
<path class="cls-8" d="M26.248,39.8l.707.016a.531.531,0,0,0,.479-.785l-.009-.016a.531.531,0,0,0-.919-.026l-.372.6A.137.137,0,0,0,26.248,39.8Z"/>
<path class="cls-9" d="M14.784,28.241s-.161-1.5-.827-1.678a1.393,1.393,0,0,0-1.8.906c-.353.947-.564.661-1.444,1.2s-1.581,2.054-.709,2.9,1.439,1.342,2.423,1.11c1.274-.3,1.348-.8,2.181-1.138S16.784,28.778,14.784,28.241Z"/>
<path class="cls-10" d="M14.529,29.534a.538.538,0,0,1-.1.921c-.671.414-1.072.476-1.365.865s-1.34.156-1.52-.474.786-.6.718-1.161.105-1.594.6-1.549S14.918,28.738,14.529,29.534Z"/>
<path class="cls-9" d="M14.677,31.859s-.3-1.477-.983-1.592a1.393,1.393,0,0,0-1.71,1.073c-.261.976-.5.711-1.324,1.336s-1.378,2.194-.429,2.958,1.559,1.2,2.517.875c1.24-.42,1.267-.922,2.063-1.34S16.718,32.2,14.677,31.859Z"/>
<path class="cls-10" d="M14.545,33.17a.538.538,0,0,1-.015.926c-.628.476-1.022.577-1.276.992s-1.319.282-1.559-.328.726-.673.605-1.225-.047-1.6.446-1.6S14.856,32.341,14.545,33.17Z"/>
<path class="cls-9" d="M11.233,35.776s-1.492.214-1.648.886a1.393,1.393,0,0,0,.968,1.771c.959.319.68.541,1.255,1.4s2.107,1.509,2.927.607,1.29-1.485,1.024-2.46c-.345-1.263-.845-1.32-1.214-2.14S11.7,33.759,11.233,35.776Z"/>
<path class="cls-10" d="M12.534,35.986a.537.537,0,0,1,.923.071c.438.656.514,1.055.913,1.334s.2,1.333-.42,1.536-.629-.765-1.186-.678-1.6-.049-1.569-.541S11.725,35.626,12.534,35.986Z"/>
<path class="cls-11" d="M13.634,35.118s-.871.525-.791.983a.939.939,0,0,0,1.066.846c.68-.054.565.157,1.148.541s1.705.383,1.977-.392.412-1.261-.01-1.8c-.545-.693-.871-.6-1.316-1.01S13.394,33.743,13.634,35.118Z"/>
<path class="cls-12" d="M14.5,34.907a.363.363,0,0,1,.593-.2c.443.292.6.52.917.588s.476.775.142,1.065-.591-.31-.915-.11-1,.389-1.116.076S13.9,34.9,14.5,34.907Z"/>
<path class="cls-13" d="M28.911,12.631s-6.354-.061-10.84,4.063S11.315,24.7,14.6,25.358s3.278,1.076,3.089,1.556a5.064,5.064,0,0,0,4.5,4.571,12.737,12.737,0,0,0,6.861-1.567c1.047-.414-.046,1.338,1.1,2.073s1.967-.579,2.72-.827-.094,3.511,3.06,4.211,3.557-1.243,5.207-.674,4.951,7.624,4.1,10.757-.617,3.405,1.434,2.45,5.007-3.6,5.1-5.857-.345-3.367.788-4.785,2.655-6.722.389-10.429A59.142,59.142,0,0,0,44.556,16.38C40.951,12.627,35.646,11.315,28.911,12.631Z"/>
<rect class="cls-14" height="3.447" rx="0.946" ry="0.946" transform="translate(6.188 56.161) rotate(-81.532)" width="3.447" x="33.941" y="22.768"/>
<path class="cls-15" d="M36.33,25.445l-.844-.126a.559.559,0,0,1-.426-.663l.143-.965a.561.561,0,0,1,.6-.511l.844.126a.56.56,0,0,1,.426.663l-.144.965A.56.56,0,0,1,36.33,25.445Z"/>
<rect class="cls-16" height="3.447" rx="0.946" ry="0.946" transform="translate(-8.363 47.02) rotate(-81.532)" width="3.447" x="21.364" y="26.637"/>
<path class="cls-17" d="M23.753,29.314l-.844-.126a.561.561,0,0,1-.427-.664l.144-.965a.559.559,0,0,1,.6-.51l.844.125a.562.562,0,0,1,.427.664l-.144.965A.56.56,0,0,1,23.753,29.314Z"/>
<rect class="cls-16" height="5.628" rx="1.545" ry="1.545" transform="translate(14.913 64.029) rotate(-81.532)" width="5.628" x="41.776" y="20.551"/>
<path class="cls-17" d="M45.676,24.922,44.3,24.717a.915.915,0,0,1-.7-1.084l.234-1.575a.915.915,0,0,1,.982-.834l1.378.2a.915.915,0,0,1,.7,1.084l-.235,1.575A.915.915,0,0,1,45.676,24.922Z"/>
<rect class="cls-14" height="3.447" rx="0.946" ry="0.946" transform="translate(11.454 46.758) rotate(-81.532)" width="3.447" x="31.121" y="15.013"/>
<path class="cls-15" d="M33.51,17.689l-.844-.125a.562.562,0,0,1-.427-.664l.144-.965a.56.56,0,0,1,.6-.511l.844.126a.561.561,0,0,1,.427.664l-.144.965A.559.559,0,0,1,33.51,17.689Z"/>
<rect class="cls-14" height="4.392" rx="1.206" ry="1.206" transform="translate(-5.356 8.148) rotate(-18.255)" width="4.392" x="20.482" y="18.547"/>
<path class="cls-15" d="M23.981,21.446l-1.033.341a.713.713,0,0,1-.865-.511l-.389-1.18a.714.714,0,0,1,.391-.926l1.033-.34a.712.712,0,0,1,.865.511l.39,1.18A.713.713,0,0,1,23.981,21.446Z"/>
<path class="cls-13" d="M20.282,20.49s.5,1.764,3.409,2.161S22.7,23.84,21.972,23.84,18.593,20.908,20.282,20.49Z"/>
<rect class="cls-14" height="4.392" rx="1.206" ry="1.206" transform="translate(-8.657 46.475) rotate(-47.877)" width="4.392" x="45.819" y="30.792"/>
<path class="cls-15" d="M49.5,32.955l-.73.807a.712.712,0,0,1-1-.017l-.922-.833a.714.714,0,0,1-.117-1l.729-.807a.713.713,0,0,1,1.005.017l.922.833A.715.715,0,0,1,49.5,32.955Z"/>
<path class="cls-13" d="M46.429,36a2.1,2.1,0,0,0-.283-2.625c-1.238-1.077-2.334-1.267-2.05-.412a15.084,15.084,0,0,1,.482,3.632C44.512,37.06,46.23,37.986,46.429,36Z"/>
<rect class="cls-16" height="3.447" rx="0.946" ry="0.946" transform="translate(-0.083 82.7) rotate(-81.532)" width="3.447" x="46.197" y="39.675"/>
<path class="cls-17" d="M48.586,42.351l-.844-.125a.562.562,0,0,1-.427-.664l.144-.965a.56.56,0,0,1,.6-.511l.844.126a.561.561,0,0,1,.427.664l-.144.965A.559.559,0,0,1,48.586,42.351Z"/>
<path class="cls-13" d="M45.7,40.894s.595-.529,1.057.992,1.67.938,2.752.535,1.17.327.234,1.185S45.371,43.8,45.7,40.894Z"/>
<rect class="cls-18" height="14.366" rx="2.203" ry="2.203" transform="translate(-8.55 10.644) rotate(-18.255)" width="4.451" x="26.625" y="24.749"/>
<path class="cls-19" d="M26.805,28.1a5.351,5.351,0,0,0,2.856.371A2.385,2.385,0,0,1,26.805,28.1Z"/>
<path class="cls-19" d="M27.776,31.043a5.356,5.356,0,0,0,2.857.371A2.386,2.386,0,0,1,27.776,31.043Z"/>
<path class="cls-19" d="M28.822,34.213a5.352,5.352,0,0,0,2.857.372A2.386,2.386,0,0,1,28.822,34.213Z"/>
<path class="cls-20" d="M26.429,25.451s1.964-.719,2.748,1.011-.728,1.021-1.112.935S25,26.385,26.429,25.451Z"/>
<path class="cls-20" d="M30.064,31.017s-1.454.3-2.083-.346.337-.985,1.181-.863S30.771,30.753,30.064,31.017Z"/>
<path class="cls-20" d="M30.95,34.133s-1.454.3-2.083-.345.337-.986,1.181-.863S31.657,33.869,30.95,34.133Z"/>
<rect class="cls-18" height="14.366" rx="2.203" ry="2.203" transform="translate(-9.061 12.969) rotate(-18.255)" width="4.451" x="33.604" y="27.499"/>
<path class="cls-19" d="M33.783,30.847a5.356,5.356,0,0,0,2.857.371A2.386,2.386,0,0,1,33.783,30.847Z"/>
<path class="cls-19" d="M34.755,33.793a5.363,5.363,0,0,0,2.857.372A2.386,2.386,0,0,1,34.755,33.793Z"/>
<path class="cls-19" d="M35.8,36.964a5.356,5.356,0,0,0,2.857.371A2.387,2.387,0,0,1,35.8,36.964Z"/>
<path class="cls-20" d="M33.408,28.2s1.964-.719,2.748,1.011-.729,1.021-1.112.935S31.976,29.135,33.408,28.2Z"/>
<path class="cls-20" d="M37.043,33.767s-1.454.295-2.083-.346.337-.985,1.181-.863S37.749,33.5,37.043,33.767Z"/>
<path class="cls-20" d="M37.929,36.883s-1.454.3-2.083-.345.337-.986,1.181-.863S38.635,36.62,37.929,36.883Z"/>
</g>
</svg>