<?xml version="1.0" encoding="utf-8"?>
<!-- Uploaded to: SVG Repo, www.svgrepo.com, Generator: SVG Repo Mixer Tools -->
<svg width="800px" height="800px" viewBox="0 -7.88 286.831 286.831" xmlns="http://www.w3.org/2000/svg"><defs><style>.a{fill:#ffffff;}.b{fill:#a095c1;}.c{fill:#211715;}.d{fill:#b3b3b3;}.e{fill:#e5725c;}.f{fill:#a18d7d;}.g{fill:#fce0cd;}</style></defs><path class="a" d="M6.605,204.246c9.33-16.788,31.352-56.378,37.824-67.671a6.064,6.064,0,0,1,5.207-3.013c38.056-.42,155.815-.318,187.552,0a6.048,6.048,0,0,1,5.2,3.008c8.163,14.243,41.092,73.553,42.038,75.256,0,1.436-.3,4.853-.434,7.756a2.57,2.57,0,0,1-2.874,2.383q-3.249,21.726-6.832,43.394a4,4,0,0,1-3.977,3.29H16.51a4,4,0,0,1-3.977-3.29Q8.944,243.7,5.721,221.987c-.33,0-.7,0-.812,0A2,2,0,0,1,2.85,220.1c-.1-2.434-.338-5.359-.425-7.191a3.72,3.72,0,0,1,.471-1.99Z"/><path class="b" d="M182.056,74.162c2.49,1.112,1.637,4.092-.474,5.146a6.137,6.137,0,0,1-7.563-2.3,11.616,11.616,0,0,1-.68-9.764,10.721,10.721,0,0,1,6.936-6.49c6.129-2.056,13.214.064,16.653,5.619,3.667,5.924,4.681,13.9,1.841,20.355-3.479,7.9-11.156,12.933-19.124,15.532-2.924.954-1.673,5.59,1.276,4.629,9.042-2.95,17.823-8.658,21.911-17.557a27.19,27.19,0,0,0-2.628-26.67c-5.443-7.4-15.989-9.508-24.1-5.321a15.309,15.309,0,0,0-8.023,11.02c-.763,4.443.032,9.618,3.255,12.984,3.638,3.8,10.233,4.434,14.279.98,3.794-3.24,3.806-10.1-1.14-12.308a2.474,2.474,0,0,0-3.283.861,2.418,2.418,0,0,0,.861,3.284Z"/><path class="b" d="M120.486,98.763c-3.926-8.1-11.159-13.448-18.118-18.789-4.033-3.1-7.974-6.31-11.975-9.448A81.185,81.185,0,0,1,79.07,60.379a34.56,34.56,0,0,1-6.944-12.262,38.849,38.849,0,0,1-1.293-14.6,30.181,30.181,0,0,1,13.339-22.66C92.494,5.234,102.7,4.09,112.491,5.176c8.74.969,17.133,5.562,21.4,13.449a29.541,29.541,0,0,1,3.2,11.7,27.921,27.921,0,0,1-1.3,11.831A19.955,19.955,0,0,1,117.1,54.964a24.4,24.4,0,0,1-12.166-3.449A16.353,16.353,0,0,1,97.3,41.279a11.111,11.111,0,0,1,3.271-10.686,8.784,8.784,0,0,1,10.064-1.166,6.279,6.279,0,0,1,2.765,3.527c.931,2.933,5.567,1.68,4.628-1.276a11.672,11.672,0,0,0-10.259-8.064A14.08,14.08,0,0,0,94.916,29.84c-6.384,9.225-.594,21.442,8.447,26.3,8.678,4.663,20.137,5.128,28.273-.994A25.5,25.5,0,0,0,140.3,43.753a31.2,31.2,0,0,0,1.58-13.618A35.3,35.3,0,0,0,138.04,16.2a29.913,29.913,0,0,0-10-10.612A35.059,35.059,0,0,0,112.911.425,54.876,54.876,0,0,0,95.645.991,37.782,37.782,0,0,0,70.494,18.554,35.483,35.483,0,0,0,65.971,34.4a41.313,41.313,0,0,0,1.995,16.38,40.8,40.8,0,0,0,8.534,13.9A108.328,108.328,0,0,0,89.273,75.7c4.381,3.423,8.719,6.9,13.117,10.3a61.689,61.689,0,0,1,10.426,9.55,28.962,28.962,0,0,1,3.525,5.64,2.423,2.423,0,0,0,3.284.861,2.452,2.452,0,0,0,.861-3.284Z"/><path class="b" d="M228.655,80.037V106.7c0,3.088,4.8,3.094,4.8,0V80.037c0-3.089-4.8-3.094-4.8,0Z"/><path class="b" d="M243.457,80.037v33.722c0,3.089,4.8,3.094,4.8,0V80.037c0-3.089-4.8-3.094-4.8,0Z"/><path class="b" d="M258.259,80.037v43.482c0,3.089,4.8,3.094,4.8,0V80.037c0-3.089-4.8-3.094-4.8,0Z"/><path class="b" d="M53.394,80.037V106.7c0,3.088,4.8,3.094,4.8,0V80.037c0-3.089-4.8-3.094-4.8,0Z"/><path class="b" d="M38.592,80.037v33.389c0,3.088,4.8,3.093,4.8,0V80.037c0-3.089-4.8-3.094-4.8,0Z"/><path class="b" d="M23.79,80.037v43.028c0,3.088,4.8,3.093,4.8,0V80.037c0-3.089-4.8-3.094-4.8,0Z"/><path class="c" d="M5.446,219.581a2.424,2.424,0,0,0-.537.006c.969-.808.035.3.153.052l.188.465-.02-.462a8.906,8.906,0,0,0-.049-.948c-.078-1.41-.179-2.818-.267-4.227a5.324,5.324,0,0,1,.094-2.406,7.86,7.86,0,0,1,.4-.723l2.448-4.405q4.113-7.4,8.231-14.8,10.514-18.9,21.071-37.774,4.01-7.16,8.05-14.3c.458-.807.877-1.666,1.4-2.434.96-1.421,2.364-1.649,3.956-1.666q3.474-.036,6.948-.062,18.843-.141,37.686-.161,23.558-.054,47.115-.044,23.386,0,46.775.056,18.664.043,37.328.14,3.335.02,6.67.046c2.076.016,5.071-.493,6.656,1.1,1.325,1.33,2.172,3.555,3.093,5.183q1.864,3.3,3.719,6.6,9.982,17.772,19.88,35.593,7.473,13.421,14.932,26.849.5.893.991,1.786l-.327-1.212c-.015,1.489-.143,2.978-.239,4.463-.061.935-.179,1.893-.172,2.831,0,.343.176.433-.217.46-3.065.209-3.088,5.011,0,4.8a5.126,5.126,0,0,0,5.006-5.029c.18-2.4.47-4.879.419-7.282a7.082,7.082,0,0,0-1.291-3.193q-3.106-5.594-6.216-11.185Q269,179.134,258.651,160.6q-4.75-8.5-9.523-17-1.756-3.121-3.524-6.238a24.668,24.668,0,0,0-1.767-2.9,8.629,8.629,0,0,0-6.649-3.3c-10.687-.4-21.44-.141-32.133-.177q-23.364-.078-46.73-.093-25.276-.021-50.551.012-21.45.031-42.9.137c-5.179.03-10.476-.239-15.643.137a8.634,8.634,0,0,0-6.552,3.687c-.6.872-1.091,1.841-1.615,2.763q-1.9,3.339-3.776,6.687Q26.441,163.6,15.705,182.949q-4.874,8.752-9.74,17.509L2.551,206.6c-1.013,1.823-2.409,3.768-2.522,5.9A56.991,56.991,0,0,0,.45,220.1c.236,2.779,2.315,4.293,5,4.277,3.088-.019,3.094-4.819,0-4.8Z"/><path class="d" d="M173.618,156.232l-.527,1.676s-3.166,10.667,13.834,11.833,38.256.877,38.256.877c9.667,0,17.033-3.256,18.745-5.077,1.2-1.277,1.3-3.244,1.166-4.992a7.273,7.273,0,0,0-3.869-6.231,5.723,5.723,0,0,0,2.444-3.122,5.249,5.249,0,0,0-.177-2.973c-1.382-3.452-4.381-5.788-7.771-7.315-1.085-.489-2.234-.846-3.265-1.44-1.979-1.139-3.368-3.047-4.86-4.777s-3.29-3.406-5.543-3.783a6.534,6.534,0,0,0-5.406,1.749,8.87,8.87,0,0,0-2.594,5.162c-4.071-1.73-29.8-10.868-35.425,2.465Z"/><path class="c" d="M180.7,141.5a11.459,11.459,0,0,1,.9-1.7,4.709,4.709,0,0,1,.991-1.186c.212-.209.434-.406.663-.6.292-.245-.267.19.042-.034.121-.087.242-.172.366-.255a12.757,12.757,0,0,1,1.673-.928c.063-.029.422-.174.059-.028.143-.057.288-.114.433-.164.3-.1.59-.2.889-.292a18.683,18.683,0,0,1,1.867-.443,10.811,10.811,0,0,1,1.576-.209c.722-.062,1.447-.093,2.172-.1a51.257,51.257,0,0,1,15.753,2.692q1.577.484,3.132,1.037.62.222,1.234.458c.259.1,1.327.541.391.145,1.273.538,3.233.265,3.526-1.434.486-2.819,2.785-6.344,6.138-4.943,3.082,1.287,4.714,4.955,7.257,6.981,2.8,2.233,6.509,2.779,9.166,5.29a8.213,8.213,0,0,1,2.355,3.377c.481,1.655-.555,2.517-1.755,3.459a2.413,2.413,0,0,0,0,3.394,2.461,2.461,0,0,0,3.394,0,7.8,7.8,0,0,0,3.062-4.181,8.151,8.151,0,0,0-.8-5.662,16.316,16.316,0,0,0-7.248-6.853c-1.612-.828-3.473-1.271-4.944-2.356a23.425,23.425,0,0,1-3.568-3.815c-2.439-2.845-5.628-5.181-9.565-4.595-4.363.648-7.4,4.433-8.121,8.628l3.526-1.434a66.931,66.931,0,0,0-13.028-3.932c-5.888-1.166-12.618-1.912-18.331.41a13.18,13.18,0,0,0-7.349,6.848,2.478,2.478,0,0,0,.861,3.284,2.417,2.417,0,0,0,3.283-.861Z"/><path class="c" d="M232.866,154.219c-.343-.043.442.084.553.105.309.059.616.125.922.2q1.29.3,2.557.694a12.117,12.117,0,0,1,4.023,1.754,4.943,4.943,0,0,1,1.708,3.105c.188,1.085.345,2.788-.376,3.741-.068.09-.19.154-.248.246-.238.382.265-.145-.036.041-.373.231-.73.483-1.114.7a16.7,16.7,0,0,1-2.937,1.306,36.58,36.58,0,0,1-9.488,1.99c-2.326.177-4.672.207-7,.343-3.071.179-3.091,4.98,0,4.8,6.4-.374,12.8-.486,18.842-2.911,2.444-.98,5.282-2.195,6.47-4.725a11.046,11.046,0,0,0-1.833-11.445,13.461,13.461,0,0,0-5.853-3.283,31.485,31.485,0,0,0-6.188-1.454,2.413,2.413,0,0,0-2.4,2.4,2.459,2.459,0,0,0,2.4,2.4Z"/><path class="c" d="M119.926,139.2c-3.4,17.217-6.385,34.52-9.223,51.837q-1.278,7.8-2.485,15.607a2.478,2.478,0,0,0,1.676,2.953,2.42,2.42,0,0,0,2.953-1.677q4.237-27.513,9.318-54.894,1.161-6.282,2.39-12.55a2.462,2.462,0,0,0-1.677-2.952,2.422,2.422,0,0,0-2.952,1.676Z"/><path class="e" d="M87.858,168.389c-.889-6.4-6.128-8.377-11.114-7.3-4.268,1.079-8.5,3.913-7.562,10.347.659,4.492,4.432,8.086,11.339,6.763C84.342,177.468,88.644,174.04,87.858,168.389Z"/><path class="c" d="M90.173,167.751a10.651,10.651,0,0,0-9.445-9.241c-4.108-.508-9.029,1.1-11.688,4.371a11.594,11.594,0,0,0-.562,13.362c2.915,4.282,8.25,5.335,13.078,4.186a11.194,11.194,0,0,0,8.7-12.04,2.476,2.476,0,0,0-2.4-2.4,2.415,2.415,0,0,0-2.4,2.4,8.05,8.05,0,0,1-.03,2.58c-.055.24-.122.478-.2.712-.006.017-.308.73-.113.318a9.406,9.406,0,0,1-.7,1.209c-.384.573.286-.256-.192.234-.106.109-.2.225-.309.334q-.237.243-.491.467c-.03.026-.608.469-.214.185a10.111,10.111,0,0,1-.932.6c-.19.108-.388.2-.58.3-.39.212.228-.051-.317.136a9.939,9.939,0,0,1-3.739.61c-.219,0-.437-.011-.655-.025q-.191-.011-.381-.03.337.057-.095-.013a10.232,10.232,0,0,1-1.246-.3c-.177-.057-.352-.118-.525-.185.479.187-.159-.086-.212-.114a10.148,10.148,0,0,1-.888-.54c-.531-.35.3.319-.149-.126-.188-.188-.388-.361-.568-.558-.089-.1-.173-.2-.259-.3.361.422-.042-.07-.093-.147a9.9,9.9,0,0,1-.534-.941c-.063-.121-.2-.534-.033-.061-.067-.188-.136-.373-.195-.564A8.434,8.434,0,0,1,71.528,171a9.426,9.426,0,0,1-.079-1.305c0-.179,0-.36.014-.539,0,0,.093-.838.023-.379a9.771,9.771,0,0,1,.314-1.27c.031-.105.227-.558.047-.161a7.211,7.211,0,0,1,.41-.772c.093-.153.193-.3.3-.447.227-.323-.373.377.083-.1.294-.3.585-.6.9-.882.067-.061.36-.267.009-.014.17-.123.343-.242.521-.356a11.062,11.062,0,0,1,1.106-.617c.057-.028.7-.309.2-.1.2-.081.395-.155.595-.226q.5-.177,1.008-.319c.209-.059.417-.111.629-.155.051-.01.792-.128.258-.057a10.67,10.67,0,0,1,1.337-.088,10.472,10.472,0,0,1,1.313.069c-.558-.066.143.037.214.051.279.058.555.128.827.212.135.042.267.092.4.134.259.1.264.1.013,0,.128.058.255.118.379.183a7.07,7.07,0,0,1,1.073.668c-.414-.318.126.134.167.172.185.175.356.36.525.549.273.3-.285-.456.1.126.17.256.337.512.484.782a8.7,8.7,0,0,1,.843,2.872A2.418,2.418,0,0,0,88.5,170.7,2.461,2.461,0,0,0,90.173,167.751Z"/><path class="c" d="M92.063,151.31a2.8,2.8,0,0,1,.291-.264l-.485.375a3.6,3.6,0,0,1,.736-.42l-.573.241a5.857,5.857,0,0,1,1.456-.377l-.638.086a7.662,7.662,0,0,1,1.92,0l-.638-.086a5.831,5.831,0,0,1,1.424.369l-.573-.242a3.408,3.408,0,0,1,.7.4l-.486-.376a2.29,2.29,0,0,1,.346.336l-.376-.486q.036.045.069.093a2.588,2.588,0,0,0,1.434,1.1,2.4,2.4,0,0,0,2.711-3.525,5.465,5.465,0,0,0-2.686-1.984,8.271,8.271,0,0,0-2.674-.46,7.2,7.2,0,0,0-5.354,1.823,2.4,2.4,0,0,0,3.394,3.394Z"/><path class="c" d="M51.844,184.786a2.707,2.707,0,0,1,.292-.264l-.486.375a3.581,3.581,0,0,1,.737-.42l-.573.242a5.84,5.84,0,0,1,1.455-.378l-.638.086a7.67,7.67,0,0,1,1.921,0l-.638-.086a5.843,5.843,0,0,1,1.424.369l-.574-.242a3.428,3.428,0,0,1,.7.4l-.485-.376a2.284,2.284,0,0,1,.345.336l-.375-.486c.024.03.047.061.068.093a2.6,2.6,0,0,0,1.435,1.1A2.457,2.457,0,0,0,58.3,185.3a2.429,2.429,0,0,0,.861-3.284,5.47,5.47,0,0,0-2.685-1.984,8.275,8.275,0,0,0-2.674-.46,7.2,7.2,0,0,0-5.355,1.823,2.4,2.4,0,0,0,3.394,3.394Z"/><path class="c" d="M90.681,197.532a2.8,2.8,0,0,1,.291-.264l-.485.375a3.581,3.581,0,0,1,.737-.42l-.574.241a5.857,5.857,0,0,1,1.456-.377l-.638.086a7.67,7.67,0,0,1,1.921,0l-.638-.086a5.824,5.824,0,0,1,1.423.369l-.573-.242a3.382,3.382,0,0,1,.7.4l-.486-.376a2.2,2.2,0,0,1,.346.336l-.375-.486c.024.03.046.061.068.093a2.588,2.588,0,0,0,1.434,1.1A2.4,2.4,0,0,0,98,194.759a5.468,5.468,0,0,0-2.685-1.984,8.277,8.277,0,0,0-2.675-.46,7.2,7.2,0,0,0-5.354,1.823,2.4,2.4,0,0,0,3.394,3.394Z"/><path class="e" d="M184.781,169.705a20.788,20.788,0,0,0,14.042-1.542,14.8,14.8,0,0,0,7.9-9.514,19.506,19.506,0,0,0,.167-11c-.393-1.592-1.944-4.839-3.944-5.75a6,6,0,0,0-5.563.431,122.869,122.869,0,0,0-12.271,10.458,72.15,72.15,0,0,0-7.453,8.344,3.528,3.528,0,0,0-.616,3.545,4.215,4.215,0,0,0,1.236,2.125A17.139,17.139,0,0,0,184.781,169.705Z"/><path class="c" d="M184.143,172.019a22.578,22.578,0,0,0,19.089-3.856c5.637-4.461,7.571-12.245,6.4-19.12-.5-2.962-1.679-6.131-3.99-8.175-2.905-2.568-7.241-2.261-10.222-.064a104.709,104.709,0,0,0-16.393,14.877,49.4,49.4,0,0,0-3.44,4.24,6.19,6.19,0,0,0-.811,5.552c1.219,3.973,5.687,5.608,9.365,6.546,2.994.764,4.272-3.864,1.276-4.629a17.515,17.515,0,0,1-3.618-1.241c-.922-.465-2.042-.922-2.394-1.952s0-1.444.7-2.355c.733-.952,1.522-1.866,2.316-2.767a107.356,107.356,0,0,1,13-12.245c1.755-1.424,4.063-3.927,6.576-2.727,1.672.8,2.446,3.47,2.8,5.113,1.065,4.969.032,10.832-3.712,14.474-4.026,3.916-10.491,4.947-15.662,3.7C182.417,166.667,181.136,171.294,184.143,172.019Z"/><path class="c" d="M191.1,157.014c.27.342.559.668.839,1a2.47,2.47,0,0,0,3.394,0l.375-.486a2.4,2.4,0,0,0,.328-1.211l-.086-.638a2.4,2.4,0,0,0-.617-1.059c-.28-.334-.569-.661-.839-1a2.465,2.465,0,0,0-3.394,0l-.375.485a2.379,2.379,0,0,0-.328,1.212l.086.638a2.4,2.4,0,0,0,.617,1.059Z"/><path class="c" d="M197.087,152.741l1.555.344a1.823,1.823,0,0,0,.957.043,1.8,1.8,0,0,0,.893-.285,2.69,2.69,0,0,0,1.1-1.434l.085-.638a2.391,2.391,0,0,0-.327-1.212l-.375-.485a2.407,2.407,0,0,0-1.06-.618l-1.555-.343a1.812,1.812,0,0,0-.957-.043,1.777,1.777,0,0,0-.892.285,2.69,2.69,0,0,0-1.1,1.434l-.086.638a2.4,2.4,0,0,0,.328,1.211l.375.486a2.407,2.407,0,0,0,1.059.617Z"/><path class="e" d="M208.137,170.275a20.78,20.78,0,0,0,14.042-1.541,14.8,14.8,0,0,0,7.9-9.514,19.506,19.506,0,0,0,.166-11c-.392-1.593-1.944-4.839-3.944-5.75a6,6,0,0,0-5.562.43,122.88,122.88,0,0,0-12.271,10.459,72.158,72.158,0,0,0-7.454,8.344,3.527,3.527,0,0,0-.616,3.545,4.226,4.226,0,0,0,1.236,2.125A17.145,17.145,0,0,0,208.137,170.275Z"/><path class="c" d="M207.5,172.59a22.58,22.58,0,0,0,19.09-3.857c5.636-4.46,7.57-12.244,6.4-19.119-.5-2.962-1.678-6.131-3.99-8.175-2.905-2.569-7.24-2.262-10.222-.064a104.749,104.749,0,0,0-16.393,14.877,49.578,49.578,0,0,0-3.44,4.239,6.193,6.193,0,0,0-.81,5.553c1.219,3.972,5.687,5.607,9.364,6.546,3,.764,4.272-3.864,1.276-4.629a17.594,17.594,0,0,1-3.618-1.241c-.921-.466-2.041-.923-2.394-1.952-.357-1.045,0-1.444.7-2.356.732-.952,1.522-1.865,2.315-2.766a107.212,107.212,0,0,1,13-12.245c1.755-1.424,4.062-3.928,6.575-2.727,1.673.8,2.446,3.469,2.8,5.112,1.066,4.97.033,10.832-3.711,14.475-4.026,3.916-10.491,4.947-15.663,3.7C205.774,167.238,204.493,171.865,207.5,172.59Z"/><path class="c" d="M208.428,160.47c.239.616.422,1.252.654,1.871a2.69,2.69,0,0,0,1.1,1.434,1.8,1.8,0,0,0,.893.285,1.823,1.823,0,0,0,.957-.043l.573-.242a2.4,2.4,0,0,0,.861-.861l.242-.573a2.423,2.423,0,0,0,0-1.276c-.232-.619-.415-1.255-.654-1.871a2.69,2.69,0,0,0-1.1-1.434,1.778,1.778,0,0,0-.893-.285,1.812,1.812,0,0,0-.957.043l-.573.242a2.416,2.416,0,0,0-.861.861l-.242.573a2.423,2.423,0,0,0,0,1.276Z"/><path class="c" d="M214.46,157.584c.27.342.56.669.839,1a2.468,2.468,0,0,0,3.394,0l.376-.486a2.384,2.384,0,0,0,.327-1.211l-.085-.638a2.4,2.4,0,0,0-.618-1.059c-.279-.334-.568-.661-.839-1a1.794,1.794,0,0,0-.772-.5,2.471,2.471,0,0,0-2.622.5l-.375.486a2.4,2.4,0,0,0-.328,1.211l.086.638a2.4,2.4,0,0,0,.617,1.059Z"/><path class="c" d="M220.444,153.312l1.555.344a1.823,1.823,0,0,0,.957.043,1.794,1.794,0,0,0,.892-.285,2.674,2.674,0,0,0,1.1-1.435l.086-.638a2.385,2.385,0,0,0-.328-1.211l-.375-.486a2.407,2.407,0,0,0-1.059-.617l-1.555-.344a1.812,1.812,0,0,0-.957-.042,1.786,1.786,0,0,0-.893.284,2.679,2.679,0,0,0-1.1,1.435l-.086.638a2.384,2.384,0,0,0,.327,1.211l.376.486a2.4,2.4,0,0,0,1.059.617Z"/><path class="f" d="M169.962,165.727a30.682,30.682,0,0,1-9.987.18c-3.282-.645-6.493-2.475-8.015-5.453a8.676,8.676,0,0,1,2.015-10.222c.852-.73,1.844-1.285,2.691-2.022,1.907-1.658,2.924-4.08,4.135-6.3a15.583,15.583,0,0,1,3.53-4.608,7.51,7.51,0,0,1,5.372-1.874,7.939,7.939,0,0,1,5.075,2.885,23.617,23.617,0,0,1,3.095,5.1l1.883,3.792c1.417,2.855,2.872,6.056,1.978,9.115a14.489,14.489,0,0,1-3.6,5.5c-2.17,2.249-4.84,3.317-8.174,3.9"/><path class="g" d="M150.181,149.191a3.767,3.767,0,0,0,2.663,2.248,7.689,7.689,0,0,1,1.131-1.207c.852-.73,1.844-1.285,2.691-2.022,1.907-1.658,2.924-4.08,4.135-6.3a17.122,17.122,0,0,1,2.832-3.97,9.87,9.87,0,0,0-10.169-.793,7.342,7.342,0,0,0-2.942,2.544c-1.317,2.082-1.177,4.743-.865,7.188A8.884,8.884,0,0,0,150.181,149.191Z"/><path class="c" d="M162.214,134.48c-4.254-1.639-9.96-.68-12.965,2.931a10.167,10.167,0,0,0-2.2,6.7,23.462,23.462,0,0,0,.24,3,9.634,9.634,0,0,0,1.17,3.959,2.4,2.4,0,0,0,4.145-2.422c-.061-.1-.32-.6-.158-.216a4.639,4.639,0,0,1-.2-.635c-.056-.217-.1-.437-.14-.658-.024-.132-.1-.684-.045-.25a22.6,22.6,0,0,1-.209-2.559c-.007-.427.024-.849.039-1.276.019-.573-.084.315.019-.2.041-.2.077-.409.128-.611s.121-.4.177-.595c.142-.513-.164.236.076-.192.1-.183.195-.37.308-.548.073-.116.151-.23.233-.341q-.216.279-.051.084c.151-.137.28-.3.429-.447.051-.048.525-.454.308-.282s.289-.194.35-.233c.175-.113.353-.219.536-.318s.383-.19.573-.288c.155-.071.133-.062-.068.025.1-.04.205-.079.309-.114a9.806,9.806,0,0,1,1.27-.356c.075-.016.721-.119.441-.085s.372-.025.447-.029a10.2,10.2,0,0,1,1.32.013c.11.008.219.018.329.03q-.357-.053-.094-.011c.216.046.433.079.647.129a10.469,10.469,0,0,1,1.364.428,2.409,2.409,0,0,0,2.952-1.676,2.468,2.468,0,0,0-1.676-2.953Z"/><path class="c" d="M169.962,163.327c-4.973.664-12.373,1.6-15.564-3.442a6.184,6.184,0,0,1-.345-5.819c1.094-2.418,3.766-3.33,5.406-5.3,1.877-2.254,2.873-5.018,4.489-7.437,1.324-1.981,3.691-4.174,6.282-3.359,2.5.785,3.879,3.334,5,5.507a55.045,55.045,0,0,1,3.949,8.429,6.277,6.277,0,0,1,.062,4.333,12.267,12.267,0,0,1-2.522,3.6,12.6,12.6,0,0,1-7.39,3.574,2.423,2.423,0,0,0-1.677,2.953,2.453,2.453,0,0,0,2.953,1.676,17.138,17.138,0,0,0,8.7-4c2.666-2.444,5.059-5.878,5.1-9.609.046-3.856-2.066-7.407-3.727-10.753s-3.28-6.852-6.468-9.048a9.181,9.181,0,0,0-10.424.1c-3.132,2.138-4.693,5.424-6.468,8.637a10.3,10.3,0,0,1-2.862,3.546,15.386,15.386,0,0,0-3.84,3.532,11.176,11.176,0,0,0-1.49,9.354c1.117,3.72,4.188,6.3,7.7,7.687,4.178,1.65,8.789,1.225,13.135.645a2.481,2.481,0,0,0,2.4-2.4c0-1.164-1.106-2.573-2.4-2.4Z"/><path class="b" d="M175.942,188.5l9.414.183a16.461,16.461,0,0,0,5.712-.56,13.043,13.043,0,0,0,5.256-3.888,4.343,4.343,0,0,0,1.4-2.826,4.667,4.667,0,0,0-1.628-2.865l-16.25-17.082c-2.892-3.04-5.857-6.136-9.583-8.063a2.357,2.357,0,0,0-.85-.3c-.492-.046-2.4-.345-2.892-.364-4.063-.157-13.977,1.084-18.532,2.148a15.481,15.481,0,0,0-5.277,2.577c-1.954,1.66-3.372,3.145-1.948,5.277l26.207,24.976Z"/><path class="b" d="M172.612,179.328a71.814,71.814,0,0,0-12.528-12.972,23.194,23.194,0,0,0-10.021-4.534,40.629,40.629,0,0,0-9.714-.776,94.655,94.655,0,0,0-9.977.856c-3.614.557-8.04.765-9.184,4.238-1.083,3.289,1.3,6.618,3.538,9.262,3.654,3.966,12.655,9.856,16.029,12.174a38.346,38.346,0,0,0,6.073,3.325c6.474,2.74,13.919-.993,20.878.006,1.87.268,3.716.881,5.6.762s3.91-1.268,4.2-3.135a5.725,5.725,0,0,0-1.174-3.714Q174.6,181.99,172.612,179.328Z"/><path class="c" d="M174.684,178.117a75.392,75.392,0,0,0-11.374-12.194,28.381,28.381,0,0,0-6.558-4.421,29.812,29.812,0,0,0-7.746-2.3,61.017,61.017,0,0,0-16.739.046c-3.856.454-9.064.572-11.886,3.642-4.079,4.436-.652,10.515,2.648,14.209,2.72,3.044,6.305,5.452,9.613,7.8a105.062,105.062,0,0,0,9.675,6.444,21.407,21.407,0,0,0,7.687,2.82,29.133,29.133,0,0,0,7.506-.265,44.7,44.7,0,0,1,8.938-.725c3.07.212,6.093,1.574,9.149.443,2.93-1.083,4.948-3.808,4.166-7.016a14.388,14.388,0,0,0-2.111-4.2c-.937-1.465-1.931-2.89-2.968-4.286a2.473,2.473,0,0,0-3.283-.861,2.416,2.416,0,0,0-.861,3.284,40.064,40.064,0,0,1,4.277,6.466c.255.542.486,1.024.12,1.526a2.577,2.577,0,0,1-1.865.744,13.87,13.87,0,0,1-3.562-.48,23.644,23.644,0,0,0-3.905-.458,43.262,43.262,0,0,0-7.028.61,41.432,41.432,0,0,1-6.528.574,13.479,13.479,0,0,1-5.991-1.622,77.155,77.155,0,0,1-8.754-5.576,96.994,96.994,0,0,1-8.737-6.57A20.946,20.946,0,0,1,125.089,172c-.967-1.381-2.332-3.466-1.594-5.229.5-1.194,1.946-1.574,3.242-1.868,1.644-.372,3.372-.58,5.023-.795a64.164,64.164,0,0,1,14-.522,24.18,24.18,0,0,1,13.653,5.3,70.256,70.256,0,0,1,11.13,11.649,2.476,2.476,0,0,0,3.283.861A2.417,2.417,0,0,0,174.684,178.117Z"/><path class="c" d="M143.271,162.406c-1.35-2.229,2.055-3.973,3.7-4.667a27.829,27.829,0,0,1,6.568-1.461q3.678-.57,7.389-.9a30.951,30.951,0,0,1,6.189-.193c.378.044.884.121,1.392.19a4.016,4.016,0,0,1,.758.1c-.659-.239.545.4.525.392a23.229,23.229,0,0,1,3.883,2.838c2.428,2.158,4.612,4.589,6.848,6.94l7.787,8.185,3.724,3.915,1.692,1.78c.4.424,1.428,1.174,1.561,1.795.2.933-1.787,2.432-2.413,2.976a7.753,7.753,0,0,1-4.4,1.935,51.991,51.991,0,0,1-6.09-.011l-6.441-.125c-3.09-.06-3.09,4.74,0,4.8l6.689.13a51.311,51.311,0,0,0,6.063-.016,14.3,14.3,0,0,0,9.853-5.712,5.553,5.553,0,0,0,1.107-5.879c-.814-1.839-2.529-3.278-3.893-4.711l-8.971-9.431c-2.809-2.953-5.549-6-8.491-8.822-2.515-2.412-5.827-5.348-9.172-5.8-5.356-.717-11.342.134-16.869.992a26.275,26.275,0,0,0-9.236,2.708c-3.7,2.094-6.358,6.405-3.895,10.471,1.6,2.639,5.751.229,4.144-2.423Z"/><path class="d" d="M206.124,168.6l.257-.274c.354-2.416-2.366-4.115-3.873-4.121a9.319,9.319,0,0,0-4.27,1.34c-6.795,3.571-15.134,12.434-17.092,17.006a4.045,4.045,0,0,0-.068,2.7,9.758,9.758,0,0,0,2.3,3.178,1.062,1.062,0,0,0,.686.256c.552.011.849-.593,1.241-.983C192.316,180.74,199.672,175.467,206.124,168.6Z"/><path class="c" d="M207.821,170.3c2.251-2.406.316-5.96-2.06-7.453-2.63-1.654-5.49-.971-8.127.32-4.621,2.262-8.7,5.889-12.214,9.6a48.82,48.82,0,0,0-4.6,5.585c-1.28,1.832-2.481,3.9-2.335,6.221.157,2.5,2.826,6.515,5.581,6.515,1.669,0,2.557-1.319,3.629-2.366,1.25-1.219,2.53-2.406,3.827-3.574,5.464-4.921,11.241-9.5,16.3-14.848,2.122-2.244-1.266-5.644-3.394-3.394a145.49,145.49,0,0,1-10.72,9.962c-1.871,1.617-3.744,3.231-5.582,4.885q-1.41,1.271-2.787,2.574c-.465.443-.934.884-1.385,1.34a6.547,6.547,0,0,0-.572.594q-.468.467.044.113H184.7c.186.195.139.148-.143-.138a1.107,1.107,0,0,0-.271-.283,7.292,7.292,0,0,1-.568-.866c-.328-.551-.573-.907-.418-1.51a10.168,10.168,0,0,1,1.66-2.8,45.681,45.681,0,0,1,6.069-6.831,40.979,40.979,0,0,1,7.446-5.781,18.979,18.979,0,0,1,2.046-1.076,9.458,9.458,0,0,1,1.536-.461l.45-.017q-.418-.09.035.009a1.681,1.681,0,0,1,1.438,1.712l.7-1.7-.257.274C202.318,169.16,205.706,172.562,207.821,170.3Z"/><path class="f" d="M145.32,182.008a4.42,4.42,0,0,0,.326-1.394,5.794,5.794,0,0,0-.62-2.411c-.63-1.5-1.459-3.184-3.035-3.594-1.745-.456-3.393.886-4.751,2.073a61.62,61.62,0,0,1-13.444,8.937,2.6,2.6,0,0,0-.911,3.936,8.848,8.848,0,0,0,2.627,2.473,22.023,22.023,0,0,0,8.95,1.9,8.107,8.107,0,0,0,3.78-.733,9.108,9.108,0,0,0,3.272-3.581,53.366,53.366,0,0,0,3.617-7.135C145.2,182.322,145.26,182.166,145.32,182.008Z"/><path class="c" d="M147.634,182.646c.912-2.576-.073-5.4-1.523-7.607a5.693,5.693,0,0,0-6.463-2.673c-2.464.741-4.322,2.877-6.28,4.434a57.3,57.3,0,0,1-6.51,4.441q-1.567.927-3.188,1.761a6.816,6.816,0,0,0-3.018,2.378c-1.533,2.5-.335,5.042,1.469,6.962a12.784,12.784,0,0,0,6.719,3.328,20.725,20.725,0,0,0,8.206.429c3.041-.544,5.007-2.756,6.54-5.276a52.907,52.907,0,0,0,4.048-8.177,2.418,2.418,0,0,0-1.676-2.952,2.457,2.457,0,0,0-2.953,1.676,44.34,44.34,0,0,1-2.508,5.207,13.771,13.771,0,0,1-2.845,4.15c-1.294,1.054-3.316.854-4.864.736a18.081,18.081,0,0,1-5.866-1.423,3.415,3.415,0,0,1-1.278-.954,7.019,7.019,0,0,1-.826-.942c-.02-.031-.153-.445-.09-.173-.008-.034.2-.259.045-.134a6.938,6.938,0,0,1,.778-.416q1.358-.681,2.679-1.427a64.944,64.944,0,0,0,9.94-6.955c.721-.61,2.512-2.546,3.4-2.02.557.33.882,1.258,1.138,1.827a2.989,2.989,0,0,1,.3,2.524,2.4,2.4,0,1,0,4.629,1.276Z"/><path class="c" d="M279.086,219.49q-3.081,20.622-6.447,41.2-.2,1.209-.4,2.42a9.83,9.83,0,0,1-.369,2.11,1.864,1.864,0,0,1-1.956,1.031c-1.407.026-2.818,0-4.226,0H25.9c-3.054,0-6.145.138-9.2,0a1.791,1.791,0,0,1-1.757-1.031,8.779,8.779,0,0,1-.369-2.11q-.222-1.344-.443-2.689-.837-5.111-1.656-10.223-1.635-10.227-3.189-20.465-.775-5.12-1.533-10.242a2.415,2.415,0,0,0-2.952-1.676,2.462,2.462,0,0,0-1.676,2.952q3.127,21.164,6.6,42.274c.5,3.045.941,5.985,4.069,7.4,1.778.806,3.781.608,5.688.608H267.569c1.908,0,3.853.167,5.623-.684,3.1-1.49,3.444-4.561,3.943-7.595q.862-5.244,1.7-10.491,1.7-10.63,3.329-21.272.782-5.12,1.546-10.242a2.477,2.477,0,0,0-1.676-2.952,2.417,2.417,0,0,0-2.952,1.676Z"/><path class="e" d="M252.212,198.121a9.98,9.98,0,0,0,1.26-7.959c-.6-2.809-1.633-3.509-3.373-5.771-5.191-6.107-13.533-7.97-21.507-9.071-7.866-1.086-15.9-2.169-23.7-.649-17.628,3.439-31.55,19.649-49.506,20.023-6.771.141-16.758-1.706-23.514-1.243s-10.885,4.767-10.716,11.538l.054,2.143a10.922,10.922,0,0,0,.384,2c43.309.029,90.2-.055,119.462-.233A48.249,48.249,0,0,0,252.212,198.121Z"/><path class="a" d="M253.628,194.629a11.792,11.792,0,0,0-.157-4.471c-.6-2.81-1.63-3.5-3.37-5.77q-.44-.519-.909-1c-5.807,6.2-16.307,13.5-24.863,16.745a150.163,150.163,0,0,1-29.8,8.48l-2.868.463c18.811-.039,35.961-.1,49.4-.183a48.331,48.331,0,0,0,11.15-10.78A8.507,8.507,0,0,0,253.628,194.629Z"/><path class="c" d="M195.17,210.932a139.222,139.222,0,0,0,23.705-6.241c3.358-1.183,6.738-2.375,9.966-3.886a73.706,73.706,0,0,0,10.216-5.9,78.643,78.643,0,0,0,10.186-8.151c2.234-2.142-1.163-5.533-3.394-3.394a73.913,73.913,0,0,1-18.184,12.7,85.052,85.052,0,0,1-9.34,3.745c-3.52,1.254-7.075,2.415-10.673,3.429a125.437,125.437,0,0,1-13.758,3.069,2.418,2.418,0,0,0-1.676,2.953,2.457,2.457,0,0,0,2.952,1.676Z"/><path class="c" d="M236.073,195.1c.35.69.657,1.4.964,2.112.114.262.225.524.338.787.19.446-.231-.551-.041-.1l.154.369q.36.861.709,1.728a48.335,48.335,0,0,1,2.073,5.692,2.4,2.4,0,1,0,4.629-1.276,49.126,49.126,0,0,0-2.126-5.822c-.8-1.985-1.585-4.006-2.555-5.917a2.418,2.418,0,0,0-3.284-.861,2.459,2.459,0,0,0-.861,3.284Z"/><path class="c" d="M228.2,200.683a26.347,26.347,0,0,1,1.5,3.219l-.242-.573c.62,1.472,1.233,2.954,1.752,4.466a2.4,2.4,0,0,0,4.629-1.276c-.47-1.369-1.021-2.713-1.577-4.049a33.247,33.247,0,0,0-1.916-4.21,2.4,2.4,0,1,0-4.144,2.423Z"/><path class="c" d="M269.977,219.884H29.1c-3.238,0-6.481-.056-9.718,0-.139,0-.279,0-.418,0-3.089,0-3.094,4.8,0,4.8H269.977c3.088,0,3.094-4.8,0-4.8Z"/><path class="c" d="M50.569,144.616c-5.034,8.966-9.64,18.182-14.293,27.349Q28.947,186.4,21.753,200.9q-1.616,3.251-3.224,6.5a2.431,2.431,0,0,0,2.072,3.612c13.78.367,27.578.322,41.361.381q34.446.146,68.891.133,34.267.012,68.536-.068c19.352-.049,38.706-.094,58.058-.3,3.278-.034,6.624.1,9.894-.149a3.507,3.507,0,0,0,3.229-2.365,4.372,4.372,0,0,0-.621-3.394q-1.041-2.085-2.074-4.175c-4.238-8.548-8.5-17.084-13.009-25.5q-1.757-3.278-3.572-6.523c-1.512-2.694-5.66-.277-4.145,2.423,4.842,8.63,9.327,17.46,13.746,26.312,1.6,3.2,3.173,6.4,4.767,9.595.066.132.267.752.412.823-.7-.342,1.977-1.628.911-1.993a1.653,1.653,0,0,0-.376.009q-1.09.024-2.181.041-2.562.043-5.124.071c-18.777.216-37.556.257-56.334.307q-33.264.09-66.528.08-34.191,0-68.383-.111c-14.931-.055-29.868-.06-44.8-.346q-1.329-.025-2.66-.059l2.073,3.611c2.892-5.887,5.831-11.751,8.767-17.616,5.3-10.589,10.625-21.165,16.076-31.676,2.348-4.525,4.7-9.052,7.2-13.5,1.514-2.7-2.631-5.119-4.145-2.423Z"/><path class="c" d="M123.906,208.49a13.837,13.837,0,0,1-.075-6.44,7.629,7.629,0,0,1,2.789-4.416c3.907-2.844,9.8-1.9,14.335-1.518,5.613.467,11.354,1.408,16.991.821a46.919,46.919,0,0,0,15.329-4.659c9.747-4.648,18.542-11.53,29.034-14.521,6.414-1.828,13.074-1.621,19.642-.891,5.906.655,12,1.336,17.622,3.361a21.146,21.146,0,0,1,7.516,4.463c1.954,1.873,3.776,3.993,4.187,6.732a7.786,7.786,0,0,1-.5,4.406,16.24,16.24,0,0,1-2.756,3.71,51.69,51.69,0,0,1-8.174,7.287,2.471,2.471,0,0,0-.861,3.284,2.419,2.419,0,0,0,3.284.861,60.085,60.085,0,0,0,8.293-7.113c2.229-2.348,4.655-5.044,5.321-8.305a13.351,13.351,0,0,0-1.44-9.448,25.57,25.57,0,0,0-6.175-6.655c-4.911-3.7-11.134-5.233-17.107-6.163-7.233-1.126-14.71-2.222-22.042-1.6-12.456,1.055-22.677,8.067-33.336,13.9-4.934,2.7-10.061,5.131-15.62,6.207-5.779,1.118-11.776.185-17.572-.338-6.026-.542-13.4-1.624-18.629,2.2-4.934,3.607-6.219,10.414-4.689,16.109.8,2.98,5.432,1.715,4.629-1.276Z"/></svg>