<?xml version="1.0" encoding="utf-8"?>
<!-- Uploaded to: SVG Repo, www.svgrepo.com, Generator: SVG Repo Mixer Tools -->
<svg width="800px" height="800px" viewBox="-133.96 0 444.022 444.022" xmlns="http://www.w3.org/2000/svg"><defs><style>.a{fill:#ffffff;}.b{fill:#645d5c;}.c{fill:#211715;}.d{fill:#f2635f;}</style></defs><path class="a" d="M84.16,97.238c-.276-.114-3.354-1.314-3.535-1.38-2.735-.987-2.627-2.746-2.972-4.713a38.357,38.357,0,0,1-.607-6.6C84.4,81.739,90.369,71.77,91.391,69c.151-.457.457-1.318.73-2.34.364-.059.572-.091.572-.091a7.161,7.161,0,0,0,3.331-1.5A10.817,10.817,0,0,0,98.818,61.4a17,17,0,0,0,1.733-9.011,5.673,5.673,0,0,0-.594-2.282,4.012,4.012,0,0,0-2.885-1.918,4.247,4.247,0,0,0-3.4.995S90.7,27.022,64.284,27.022,36.646,49.18,36.646,49.18a4.247,4.247,0,0,0-3.4-.995A4.011,4.011,0,0,0,30.361,50.1a5.673,5.673,0,0,0-.594,2.282A17,17,0,0,0,31.5,61.4a10.817,10.817,0,0,0,2.794,3.667,7.161,7.161,0,0,0,3.331,1.5l1.086.167a28.914,28.914,0,0,0,5.51,10.755,25.031,25.031,0,0,0,8.092,6.6,37.958,37.958,0,0,1-.606,7.06c-.344,1.967-.236,3.726-2.971,4.713-.181.066-1.454.484-1.981.664,0,0,4.273,9.252,17.9,9.252S84.16,97.238,84.16,97.238Z"/><path class="b" d="M31.473,70.5q.042-.864.138-1.642a14.839,14.839,0,0,1,1.5-4.962,8.38,8.38,0,0,0,1.178,1.166,7.161,7.161,0,0,0,3.331,1.5l1.087.167a28.9,28.9,0,0,0,5.509,10.755,25.26,25.26,0,0,0,7.808,6.458c-.986,2.863-5.005,5.5-9.891,6.249A17.672,17.672,0,0,1,30.6,88.174a3.819,3.819,0,0,1-1.275-1.114,1.157,1.157,0,0,1-.2-.558c-.006-.082.016-.4.116-.436,2.482-.838,3.161-3.4,3.04-6.008s-.789-5.291-.834-7.906Q31.435,71.288,31.473,70.5Z"/><path class="c" d="M31.374,62.917A20.354,20.354,0,0,0,29.59,74.24c.224,2.053.669,4.1.7,6.173.017,1.159-.076,2.693-1.092,3.456-.622.467-1.343.554-1.762,1.3a2.87,2.87,0,0,0,.022,2.635c.788,1.546,2.5,2.4,4.028,3.057A20.484,20.484,0,0,0,43.1,92.051c3.858-.681,7.741-2.573,10.025-5.841,1.478-2.115-1.988-4.116-3.454-2.019-1.883,2.695-5.8,3.916-8.92,4.162a16.987,16.987,0,0,1-5.892-.528,12.717,12.717,0,0,1-2.345-.874c-.308-.156-.614-.32-.906-.5a3.145,3.145,0,0,1-.426-.287q-.517-.526-.213.916L29.77,88c4.291-1.637,4.817-5.971,4.316-10.024-.542-4.385-1.316-8.9.742-13.035,1.142-2.3-2.307-4.327-3.454-2.019Z"/><path class="c" d="M95.086,50.594A2.175,2.175,0,0,1,98.161,51a4.672,4.672,0,0,1,.446,2.376,14.233,14.233,0,0,1-.2,2.923c-.634,3.473-2.385,7.645-6.247,8.338a2.018,2.018,0,0,0-1.4,2.46,2.044,2.044,0,0,0,2.46,1.4c6.009-1.077,8.878-7.856,9.33-13.3.234-2.821-.013-6.013-2.45-7.836a6.284,6.284,0,0,0-7.846.41,2.016,2.016,0,0,0,0,2.829,2.043,2.043,0,0,0,2.828,0Z"/><path class="c" d="M90.649,63.4a15.912,15.912,0,0,1-.93,4.3c-.063.191-.49,1.311-.219.7-.134.3-.274.6-.423.9a36.362,36.362,0,0,1-3.141,5.049c-2.719,3.729-6.413,7.683-11.068,8.775-2.5.587-1.445,4.445,1.063,3.857,5.629-1.321,9.994-5.92,13.305-10.4C92.093,72.7,94.45,68.317,94.649,63.4c.1-2.574-3.9-2.569-4,0Z"/><path class="c" d="M38.06,47.765a6.287,6.287,0,0,0-7.846-.41c-2.439,1.817-2.684,5.02-2.45,7.836.452,5.446,3.321,12.225,9.33,13.3a2.057,2.057,0,0,0,2.46-1.4,2.017,2.017,0,0,0-1.4-2.46c-3.862-.693-5.613-4.865-6.247-8.338a14.153,14.153,0,0,1-.2-2.758,5.467,5.467,0,0,1,.38-2.428,2.158,2.158,0,0,1,3.143-.518,2.057,2.057,0,0,0,2.829,0,2.017,2.017,0,0,0,0-2.829Z"/><path class="c" d="M35.868,63.184a33.145,33.145,0,0,0,7.068,15.869c3.982,4.715,9.256,8.109,15.462,8.779a2.013,2.013,0,0,0,2-2,2.045,2.045,0,0,0-2-2c-5.253-.567-9.636-3.95-12.894-7.92-3.222-3.926-4.916-8.847-5.779-13.791a2.017,2.017,0,0,0-2.46-1.4,2.045,2.045,0,0,0-1.4,2.46Z"/><path class="c" d="M50.313,85.031c-.016.8-.055,1.61-.122,2.413q-.045.547-.107,1.092c-.02.182-.042.363-.065.545-.018.141-.018.145,0,.012l-.031.218c-.161,1.084-.282,2.214-.548,3.279-.025.1-.051.2-.082.3s-.191.361-.022.1c.219-.334-.256.382-.239.405-.031-.042.34-.362.034-.058-.079.078-.158.156-.239.234-.309.3.343-.185-.062.036-.118.064-.231.138-.35.2s-.348.156-.093.056c-.094.037-.186.07-.28.1-.166.058-.334.112-.5.168-.461.153-.922.3-1.382.461a2,2,0,1,0,1.063,3.857,20.565,20.565,0,0,0,3.286-1.23A5.527,5.527,0,0,0,53.2,94.006a21.518,21.518,0,0,0,.616-3.415,43.165,43.165,0,0,0,.5-5.56,2,2,0,0,0-4,0Z"/><path class="c" d="M75.048,85.031a50.014,50.014,0,0,0,.723,6.926,7.632,7.632,0,0,0,1.53,4.092,8.38,8.38,0,0,0,3.553,2.031c.925.36,1.855.712,2.775,1.087a2.006,2.006,0,0,0,2.46-1.4,2.061,2.061,0,0,0-1.4-2.46c-.813-.331-1.634-.643-2.453-.961-.345-.135-.69-.27-1.036-.4-.079-.03-.159-.057-.237-.089.338.14-.2-.116-.266-.153-.113-.065-.537-.421-.175-.09-.105-.095-.2-.195-.306-.293-.3-.285.181.337-.009-.014-.061-.111-.125-.223-.187-.334-.185-.329.109.423-.007-.051-.036-.145-.084-.287-.118-.433-.134-.571-.2-1.157-.292-1.736a39.31,39.31,0,0,1-.558-5.723,2,2,0,0,0-4,0Z"/><path class="a" d="M111.447,171.336a26.655,26.655,0,0,1-4.759-5.46c-1.088-1.925-3.6-7.225-4.236-10.422l-4.18-8.937c-.844,4.736-1.719,9.819-2.556,15.478-.231,1.562.528,7.472,1.6,14.509.283,1.859.586,3.8.9,5.755.233,1.46.751,4.048,1.127,6.048H32.745l-.059-.259c-.194-.853-1.3-3.665-1.045-5.261.2-1.267,1.586-4.2,1.778-5.444.831-5.379,1.441-9.556,1.687-12.287l.029-.313-7.036-.331c-3.076,0-19.927-1.307-21.57-2.091-.747-.224-.329-2.2.075-3.68,1.343-4.917,4.135-17.882,4.854-20.817,1.116-4.557,4.051-17.693,5.039-21.481a22.35,22.35,0,0,1,3.707-8,14.487,14.487,0,0,1,1.927-1.323,28.519,28.519,0,0,1,4-2.258c6.172-3.356,11.64-6.23,18.253-9.124A22.569,22.569,0,0,1,49.443,88.3a43.407,43.407,0,0,0,12.524,8.728c.259.117.548.261.631.533h4.273c.083-.272.372-.416.632-.533A43.4,43.4,0,0,0,80.026,88.3a21.741,21.741,0,0,1,4.552,6.266,216.152,216.152,0,0,1,20.749,10.195,36.94,36.94,0,0,1,3.365,1.791l.9.488a14.066,14.066,0,0,1,1.9,1.3,22.384,22.384,0,0,1,3.707,8c.987,3.788,2.549,10.409,4.158,17.251a53.717,53.717,0,0,1,2.217,6.376l2.867,8.137L116.583,172.7Z"/><path class="a" d="M89.578,316.627c2.428,19.3-1.573,38.742-3.973,58.047-1.636,13.157-1.915,28.213,7.389,37.658,1.994,1.988,2.734,6.528,1.307,8.789-2.164,3.427-7.036,1.589-10.542-.009-4.229-1.928-8.277-4.262-12.519-6.158-2.677-1.2-4.323-2.607-7.384-2.105-2.486.408-4.094,1.935-6.172,3.444-4.2,3.048-8.676,5.928-14.05,5.717-3.914-.155-9.309-4.466-6.4-8.7,1.11-1.614,3.007-2.487,4.205-4.209a27.634,27.634,0,0,0,3.2-6.23c3.294-8.928,2.661-18.929,1.508-28.2-2.4-19.3-6.4-38.745-3.972-58.047Z"/><path class="c" d="M40.181,316.627c-1.74,14.143-.1,28.354,1.834,42.385.907,6.581,1.968,13.156,2.591,19.772a66.932,66.932,0,0,1-.107,16.5c-.9,5.8-3.007,11.364-7.149,15.633-1.794,1.849,1.032,4.68,2.828,2.829,8.1-8.345,9.381-20.458,8.7-31.544-.407-6.585-1.444-13.129-2.361-19.657-.993-7.067-1.98-14.139-2.562-21.254a121.012,121.012,0,0,1,.229-24.664,2.011,2.011,0,0,0-2-2,2.049,2.049,0,0,0-2,2Z"/><path class="c" d="M63.733,316.247c0,25.282.083,50.568-.337,75.847q-.183,11.063-.52,22.122c-.08,2.575,3.92,2.572,4,0,.81-26.1.847-52.207.853-78.313q0-9.828,0-19.656c0-2.574-4-2.578-4,0Z"/><path class="c" d="M87.578,316.627c1.786,14.517.017,29.105-1.994,43.5-1.7,12.142-4.183,24.7-2.061,36.953a31.31,31.31,0,0,0,8.057,16.667c1.8,1.851,4.623-.979,2.829-2.829-7.66-7.893-8.214-19.688-7.433-30.048,1.022-13.578,3.867-26.961,4.907-40.547a119.352,119.352,0,0,0-.3-23.695,2.063,2.063,0,0,0-2-2,2.012,2.012,0,0,0-2,2Z"/><path class="b" d="M33.641,188.676c-1.39,4.88-3.686,17.8-4.809,24.162-5.485,31.082-.182,62.809,2.2,93.229.226,2.89.445,6.913.654,9.8,17.715-1.526,59.311-.071,67.427-.071.153-2.05.309-7.683.469-9.732,2.38-30.42,7.683-62.147,2.2-93.229-1.123-6.361-3.412-19.06-4.8-23.94Z"/><path class="c" d="M31.713,188.144c-1.669,5.928-2.638,12.089-3.735,18.14a205.832,205.832,0,0,0-3.187,24.153c-1.147,18.761.654,37.528,2.467,56.186.948,9.744,1.726,19.484,2.425,29.247a2.025,2.025,0,0,0,2,2c9.423-.8,18.938-.732,28.387-.688,9.812.046,19.623.245,29.433.453,3.2.068,6.405.162,9.607.164a2.044,2.044,0,0,0,2-2c.21-2.953.242-5.917.413-8.872.254-4.391.722-8.778,1.138-13.157.909-9.582,1.911-19.158,2.612-28.759a279.31,279.31,0,0,0,.809-28.771,183.263,183.263,0,0,0-2.889-26.813c-1.258-7.023-2.354-14.185-4.29-21.06a2.042,2.042,0,0,0-1.928-1.469l-21.483-.075L41.519,186.7l-7.878-.028c-2.574-.009-2.577,3.991,0,4l21.483.076,33.973.119,7.878.027-1.929-1.468c1.706,6.057,2.709,12.349,3.834,18.533a189.269,189.269,0,0,1,3.081,25.133c.893,19.165-1.14,38.3-2.981,57.343-.5,5.2-1.017,10.412-1.4,15.628-.237,3.239-.239,6.492-.469,9.732l2-2c-17.63-.013-35.243-.848-52.878-.55-4.852.082-9.712.21-14.549.621l2,2c-.608-8.487-1.236-16.959-2.054-25.431-.9-9.273-1.836-18.544-2.463-27.841a264.386,264.386,0,0,1-.58-28.051,181.226,181.226,0,0,1,2.843-24.941c1.217-6.8,2.267-13.739,4.141-20.4C36.268,186.726,32.41,185.666,31.713,188.144Z"/><path class="b" d="M24.521,437.784c-.11-.144-.214-.292-.312-.446a8.353,8.353,0,0,1-.553-7,22.939,22.939,0,0,1,3.6-6.273q5.2-7.108,11-13.756c1.507-1.728,3.209-3.529,5.461-3.954-.363,1.358-.908,4.71.288,5.447s3.021.735,4.426.759c6.152.107,12.726-4.3,16.14-7.381.233-.21.667.084.67.418.031,3.964.364,5.677.344,10.056a10.077,10.077,0,0,1-.762,3.389c-.975,2.639-3.869,3.91-6.191,5.5-6.041,4.134-9.222,11.676-15.552,15.352a16.344,16.344,0,0,1-15.108.541A9.523,9.523,0,0,1,24.521,437.784Z"/><path class="b" d="M107.745,437.784c.11-.144.214-.292.312-.446a8.36,8.36,0,0,0,.553-7,22.939,22.939,0,0,0-3.595-6.273q-5.2-7.108-11-13.756c-1.506-1.728-3.208-3.529-5.461-3.954.364,1.358.979,4.97-.218,5.706s-3.168.71-4.573.734c-6.1.106-12.553-4.492-15.975-7.536-.265-.235-.755-.057-.759.247-.046,3.985-.517,5.4-.5,9.814a12.272,12.272,0,0,0,.916,3.723c.976,2.639,3.87,3.91,6.191,5.5,6.041,4.134,9.223,11.676,15.553,15.352a16.342,16.342,0,0,0,15.107.541A9.518,9.518,0,0,0,107.745,437.784Z"/><path class="c" d="M26.248,436.775c-1.631-2.229-1.232-5.047-.048-7.4a52.076,52.076,0,0,1,5.49-7.93q3.031-3.954,6.267-7.746c1.712-2.015,3.554-4.809,6.287-5.424l-2.46-2.46c-.52,2.026-1.029,4.857.2,6.725,1.579,2.392,5.88,2.2,8.369,1.905,5.866-.7,11.281-3.987,15.623-7.86l-.883.515.2-.07H64.237l.219.075-.883-.514.176.177-.515-.883a11.69,11.69,0,0,1,.084,2.591c.042.882.1,1.763.146,2.645.107,1.993.392,4.2-.158,6.138a6.715,6.715,0,0,1-3.268,4,40.119,40.119,0,0,0-4.695,3.313c-5.59,4.87-9.015,12.974-16.7,14.98-4.212,1.1-9.813.374-12.705-3.188a2.013,2.013,0,0,0-2.828,0,2.047,2.047,0,0,0,0,2.829c2.178,2.683,5.788,4.12,9.133,4.6a18.717,18.717,0,0,0,10.592-1.536c5.881-2.72,9.185-8.572,13.5-13.088a21.323,21.323,0,0,1,3.453-3.011c1.239-.836,2.544-1.564,3.734-2.472,3.06-2.334,4.107-5.654,4.057-9.413-.019-1.491-.1-2.979-.185-4.468-.087-1.532.152-3.4-.261-4.869a2.522,2.522,0,0,0-1.718-1.73,2.663,2.663,0,0,0-2.588.84,34.092,34.092,0,0,1-3.283,2.491c-3.042,2.016-6.622,3.852-10.342,4a18.305,18.305,0,0,1-2.67-.062,9.194,9.194,0,0,1-1.1-.217c-.777-.18,0-.208-.066.145.1-.512-.1-1.28-.039-1.86a11.856,11.856,0,0,1,.32-1.67,2.023,2.023,0,0,0-2.46-2.46c-3.455.777-5.719,3.712-7.9,6.271q-3.8,4.453-7.336,9.115c-3.858,5.058-9.873,12.536-5.153,18.986a2.059,2.059,0,0,0,2.736.717A2.015,2.015,0,0,0,26.248,436.775Z"/><path class="c" d="M109.472,438.794c4.721-6.451-1.3-13.928-5.153-18.986q-3.549-4.653-7.336-9.115c-2.179-2.558-4.443-5.494-7.9-6.271a2.023,2.023,0,0,0-2.46,2.46,10.132,10.132,0,0,1,.406,3.3,2.313,2.313,0,0,1-.08.511c-.143-.064.852-.387.083-.218a11.542,11.542,0,0,1-2.225.3,17.727,17.727,0,0,1-9.378-2.486,35.228,35.228,0,0,1-4.132-2.71c-1.061-.805-2.313-2.415-3.742-2.425-2.4-.016-2.493,2.177-2.574,3.971-.064,1.417-.215,2.828-.319,4.242-.243,3.335-.277,7,1.693,9.9,1.822,2.677,4.905,3.794,7.321,5.791,4.955,4.094,7.962,10.052,13.277,13.779a18.066,18.066,0,0,0,11.336,3.159c3.912-.239,8.318-1.65,10.868-4.791a2.061,2.061,0,0,0,0-2.829,2.014,2.014,0,0,0-2.828,0c-2.551,3.142-7.352,4.091-11.193,3.509-4-.607-7.119-2.91-9.79-5.828-2.609-2.851-4.811-6.066-7.618-8.736a29.305,29.305,0,0,0-4.739-3.567c-1.341-.841-2.928-1.734-3.615-3.241-1-2.192-.892-4.467-.735-6.811.06-.9.149-1.8.221-2.7.04-.5.076-1.006.1-1.51a6.38,6.38,0,0,1,.075-1.654l-.919,1.2.2-.126-1.009.273.247-.025-1.009-.273a7.283,7.283,0,0,1,1.244.993q.873.7,1.775,1.373a36.108,36.108,0,0,0,3.673,2.4,23.119,23.119,0,0,0,8.992,3.081c2.4.243,6.606.412,8.1-1.91,1.253-1.945.686-4.9.148-6.993l-2.46,2.46c2.669.6,4.457,3.275,6.133,5.242q3.306,3.883,6.421,7.928a54.244,54.244,0,0,1,5.392,7.741c1.242,2.395,1.735,5.282.05,7.585a2.015,2.015,0,0,0,.717,2.736A2.046,2.046,0,0,0,109.472,438.794Z"/><path class="c" d="M39.419,201.618q21.266-.538,42.554-.245c3.175.047,6.35.112,9.522.245,2.574.109,2.569-3.892,0-4-13.563-.571-27.18-.395-40.75-.213q-5.664.076-11.326.213c-2.569.065-2.579,4.066,0,4Z"/><path class="c" d="M33.319,190.307H97.074c2.574,0,2.578-4,0-4H33.319c-2.574,0-2.578,4,0,4Z"/><path class="c" d="M34.614,187.516c-.364-1.448-1.251-3.33-.951-4.624.439-1.886,1.457-3.577,1.76-5.5.7-4.465,1.52-8.989,1.772-13.508a23.713,23.713,0,0,0-.5-5.06c-.457-2.885-.961-5.762-1.492-8.634-.945-5.1-1.988-10.19-2.9-15.3a126.614,126.614,0,0,1-2-15.987c-.129-2.561-4.13-2.577-4,0,.5,10.049,2.685,19.912,4.557,29.768.532,2.8,1.045,5.6,1.518,8.409a32.908,32.908,0,0,1,.838,6.219,101.41,101.41,0,0,1-1.581,12.548c-.335,2.181-1.432,4.075-1.888,6.211-.482,2.255.465,4.382,1.005,6.527.628,2.494,4.487,1.437,3.857-1.064Z"/><path class="c" d="M100.53,119.121c-.883,9.24-2.676,18.356-4.3,27.487q-.69,3.888-1.338,7.783c-.43,2.608-1.037,5.283-1.209,7.921a26.092,26.092,0,0,0,.3,4.534c.292,2.6.658,5.195,1.038,7.786.781,5.329,1.8,10.6,2.688,15.909a2.015,2.015,0,0,0,2.46,1.4,2.047,2.047,0,0,0,1.4-2.46c-.756-4.509-1.643-8.984-2.329-13.506-.651-4.292-1.535-8.722-1.566-13.078a40.1,40.1,0,0,1,.928-6.53q.641-3.936,1.34-7.86c.83-4.7,1.706-9.4,2.5-14.106.855-5.069,1.6-10.159,2.087-15.277a2.014,2.014,0,0,0-2-2,2.043,2.043,0,0,0-2,2Z"/><path class="c" d="M47.158,92.3q-6.874,2.859-13.516,6.222c-2.082,1.059-4.147,2.151-6.2,3.258a48.516,48.516,0,0,0-6.367,3.552,2.064,2.064,0,0,0-.718,2.737,2.015,2.015,0,0,0,2.737.717,45.715,45.715,0,0,1,5.985-3.346c2.06-1.111,4.127-2.208,6.211-3.273,4.236-2.164,8.544-4.183,12.935-6.01a2.065,2.065,0,0,0,1.4-2.46,2.012,2.012,0,0,0-2.46-1.4Z"/><path class="c" d="M83.237,96.157c4.327,1.8,8.573,3.786,12.748,5.914q3.029,1.545,6.017,3.163a47.551,47.551,0,0,1,6.147,3.39,2.014,2.014,0,0,0,2.737-.718,2.049,2.049,0,0,0-.718-2.736,48.884,48.884,0,0,0-6.338-3.492c-2.056-1.105-4.12-2.195-6.2-3.251Q91.083,95.1,84.3,92.3a2.013,2.013,0,0,0-2.461,1.4,2.052,2.052,0,0,0,1.4,2.46Z"/><path class="c" d="M108.578,108.767a4.823,4.823,0,0,1,2.146,1.927,20.115,20.115,0,0,1,1.963,4.261c.9,2.659,1.472,5.448,2.129,8.175q.648,2.687,1.282,5.376c.436,1.845.718,3.825,1.324,5.619.643,1.906,1.673,4.181,2.218,6.377.62,2.5,4.478,1.439,3.857-1.064-.583-2.348-1.677-4.562-2.33-6.853-1.093-3.841-1.836-7.813-2.778-11.694a61.128,61.128,0,0,0-2.438-8.595,20.281,20.281,0,0,0-2.4-4.542,9.138,9.138,0,0,0-2.95-2.441c-2.238-1.281-4.255,2.174-2.019,3.454Z"/><path class="c" d="M21.092,105.313a10.684,10.684,0,0,0-4.43,4.891,31.572,31.572,0,0,0-2.3,6.412c-.972,3.895-1.846,7.817-2.746,11.729q-2.526,10.974-5.042,21.948c-.507,2.2-1.016,4.4-1.576,6.582-.534,2.088-2,5.822.519,7.173,2.268,1.218,4.29-2.234,2.019-3.454l.139.093.514.883c-.276-.654.195-1.846.392-2.585s.391-1.5.576-2.25c.455-1.841.885-3.688,1.31-5.536.859-3.733,1.68-7.475,2.535-11.21,1.576-6.885,3.164-13.773,4.811-20.642a44.406,44.406,0,0,1,1.5-5.271,18.218,18.218,0,0,1,1.854-3.7,4.747,4.747,0,0,1,1.941-1.609c2.234-1.279.221-4.736-2.019-3.454Z"/><path class="c" d="M100.524,155.986a39.368,39.368,0,0,0,3.533,9.166,24.856,24.856,0,0,0,5.976,7.6,2.047,2.047,0,0,0,2.828,0,2.018,2.018,0,0,0,0-2.828,21.255,21.255,0,0,1-5.35-6.789,34,34,0,0,1-3.13-8.21,2,2,0,0,0-3.857,1.063Z"/><path class="c" d="M111.391,158.548q.429-.579.858-1.158l.409-.546.206-.271c.06-.078.364-.449.019-.027.585-.716,1.148-1.445,1.767-2.133a22.674,22.674,0,0,1,1.963-1.946c.171-.148.345-.294.521-.436.02-.016.371-.3.121-.1s.074-.053.127-.091c.413-.3.84-.584,1.279-.849a2,2,0,0,0-2.019-3.454c-3.669,2.216-6.2,5.6-8.7,8.99a2.017,2.017,0,0,0-.2,1.542,2,2,0,0,0,3.656.477Z"/><path class="a" d="M131.545,121.047c.785-1.587,1.807-3.152,2.232-4.154.587-1.386.192-3.721.608-5.157a18.792,18.792,0,0,1,4.17-7.643,82.211,82.211,0,0,1,7.011-7.333c1.119-1.061,2.245-1.776,3.645-.823,1.556,1.061.981,2.488.3,4.079-1.262,2.964-4.354,5.418-5.338,7.959l-.149.383c2.407-.512,9.335-1.707,10.64-2a16.475,16.475,0,0,0,3.389-1.593c2.289-1.076,4.846-2.707,7.327-3.2.676-.134,1.4.251,1.809.2,1.164-.75,3.57-.611,4.908-.247,4.778,2.207-.075,8.831-2.863,10.988-1.922,1.486-4.751,3.806-6.85,5.082a28.964,28.964,0,0,1-7.306,3.469,66.29,66.29,0,0,0-9.094,3.02c-1.6,1.111-3.433,2.216-4.41,5.409-1.847,9.585-3.593,27.986-5.4,34.084-1.779,6.011-2.43,10.637-7.981,14.116-3.022,1.895-5.775,2.732-9.064.991a10.172,10.172,0,0,1-5.253-11.162,46.916,46.916,0,0,1,3.378-10.475c2.966-6.113,11.366-29.492,14.131-35.666Q131.466,121.208,131.545,121.047Z"/><path class="c" d="M133.116,122.378c.84-1.728,2.137-3.391,2.694-5.243.479-1.589.14-3.273.5-4.868.811-3.552,3.257-6.429,5.648-9.047,1.414-1.548,2.9-3.027,4.418-4.476.319-.305,1.238-1.348,1.561-1.241.507.169.177.606.046.983-1.182,3.407-4.35,5.641-5.74,8.957a2.013,2.013,0,0,0,1.4,2.461,2.052,2.052,0,0,0,2.46-1.4,17.352,17.352,0,0,1,2.659-3.7,18.573,18.573,0,0,0,2.722-4.363c.64-1.534,1.095-3.251.179-4.79a4.443,4.443,0,0,0-4.912-1.987c-1.718.493-3.021,2.059-4.258,3.265-1.424,1.39-2.812,2.817-4.128,4.31a26.219,26.219,0,0,0-5.48,8.611c-.664,1.891-.541,3.639-.8,5.581-.227,1.716-1.679,3.386-2.425,4.921-1.121,2.305,2.328,4.336,3.454,2.019Z"/><path class="c" d="M144.281,110.35c3.546-.787,7.165-1.223,10.707-2.022a15.412,15.412,0,0,0,3.692-1.649c1.38-.717,2.77-1.433,4.172-2.1a13.071,13.071,0,0,1,2.277-.892,4.99,4.99,0,0,1,1.783.064,3.956,3.956,0,0,0,1.582-.392,4.979,4.979,0,0,1,1.772-.123c1.952.114,2.148,1.1,1.524,2.733a12.576,12.576,0,0,1-3.446,4.686c-4.071,3.6-8.894,7.036-14.148,8.574-3.074.9-6.687,1.542-9.428,3.264a11.684,11.684,0,0,0-5.119,6.459c-.8,2.453,3.06,3.5,3.857,1.064,1.192-3.653,4.526-4.779,7.9-5.809,2.09-.638,4.239-1.131,6.273-1.938a36.544,36.544,0,0,0,5.715-2.956,58.311,58.311,0,0,0,5.2-3.783,28.567,28.567,0,0,0,3.695-3.159c2.1-2.318,4.328-5.63,3.719-8.925-.783-4.235-6.512-5.271-9.826-3.41l1.01-.273a15.068,15.068,0,0,0-1.809-.2,8.163,8.163,0,0,0-2.106.516,32.555,32.555,0,0,0-3.992,1.822c-1.92.991-3.833,2.274-5.967,2.69-3.361.655-6.756,1.159-10.1,1.9-2.512.557-1.449,4.415,1.063,3.857Z"/><path class="c" d="M150.517,111.816c-.23.038-.46.07-.69.106-.293.045.361-.045.066-.009l-.389.049c-.444.055-.889.106-1.333.159-1.062.127-2.128.258-3.177.473a11.861,11.861,0,0,0-5.542,2.652,2.011,2.011,0,0,0,0,2.828,2.049,2.049,0,0,0,2.829,0c.08-.071.161-.14.243-.209.17-.144.106-.063-.03.023.2-.125.384-.264.584-.384q.266-.158.54-.3c.091-.045.186-.085.276-.132.251-.132-.321.119-.056.02a15.243,15.243,0,0,1,2.526-.7c.412-.078.827-.139,1.241-.2.3-.043-.357.044-.062.009l.314-.04.707-.085c1.007-.118,2.015-.237,3.017-.4a2.009,2.009,0,0,0,1.4-2.46,2.059,2.059,0,0,0-2.461-1.4Z"/><path class="c" d="M164.574,102.218q-.458.468-.957.89c-.044.037-.492.421-.5.409.007.007.347-.261-.006,0-.08.059-.16.118-.241.176a26,26,0,0,1-2.467,1.559q-1.23.69-2.517,1.271c-.2.091-.4.177-.6.265-.233.1.368-.15.02-.009l-.258.1c-.406.163-.816.315-1.229.459a2,2,0,0,0,1.063,3.857,27.375,27.375,0,0,0,10.524-6.152,2,2,0,0,0-2.829-2.829Z"/><path class="c" d="M167.771,104.579a6.885,6.885,0,0,1-.887.879c-.108.092-.22.18-.329.271-.313.262.388-.287.048-.037-.226.167-.453.334-.684.5-1.031.72-2.108,1.375-3.2,2q-1.575.9-3.2,1.72-.639.323-1.287.625c-.158.073-.319.143-.478.215-.347.159.482-.191.2-.083l-.206.082a2.046,2.046,0,0,0-1.4,2.46,2.021,2.021,0,0,0,2.46,1.4,43.176,43.176,0,0,0,5.922-2.962c1.127-.646,2.239-1.323,3.3-2.071a12.6,12.6,0,0,0,2.56-2.163,2.047,2.047,0,0,0,0-2.828,2.024,2.024,0,0,0-2.829,0Z"/><path class="c" d="M139.649,128.948c-1.6,8.374-2.425,16.883-3.7,25.308a76.688,76.688,0,0,1-1.954,9.667c-1.08,3.767-1.912,7.8-4.9,10.584-1.624,1.513-4.013,3.078-6.3,3.115a7.287,7.287,0,0,1-5.7-3.31c-2.66-3.938-.893-8.863.537-12.927,1-2.853,2.383-5.574,3.527-8.375,1.357-3.321,2.645-6.671,3.93-10.021,1.544-4.026,3.069-8.06,4.618-12.085.666-1.73,1.335-3.458,2.021-5.18q.405-1.017.822-2.03l.141-.34a1.593,1.593,0,0,1,.065-.155q.177-.412.358-.821a2.063,2.063,0,0,0-.717-2.737,2.016,2.016,0,0,0-2.737.718c-2.883,6.469-5.227,13.2-7.755,19.808-1.388,3.633-2.779,7.265-4.234,10.871-1.161,2.876-2.554,5.6-3.692,8.713C112.2,164.624,110.6,170.032,112.9,175c2.317,4.994,8.27,7.98,13.506,5.854a17.088,17.088,0,0,0,9.723-10.19,64.536,64.536,0,0,0,2.951-10.934c1.792-9.854,2.548-19.874,4.428-29.713.481-2.516-3.374-3.593-3.857-1.064Z"/><path class="a" d="M26.508,165.077c-.126,6.616-5.533,40.71-6.867,46.266L18.115,217.7c.816,6.663-.185,14.463-.385,21.17-.052,1.737-1.356,2.654-2.472,1.323-.534-.637-2.8-3.882-3.483-4.559-.3,2.751-.442,3.244-.577,5.088-.432,5.892-.377,7.623-.4,11.567-.012,1.7-.231,2.99-.691,3.252-1.635.929-3.542,1.066-4.875-.423A11.55,11.55,0,0,1,2.533,249.8a64.059,64.059,0,0,1-.574-9.435,33.766,33.766,0,0,1,1.818-8.844c2.082-5.943,3.886-8.661,4.681-14.908l.145.109c-.143-3.144,2.573-50.627,2.811-53.391"/><path class="c" d="M9.414,163.329c-.516,6.1-.748,12.235-1.092,18.346-.517,9.153-1.027,18.307-1.455,27.465-.117,2.507-.366,5.068-.264,7.58.1,2.565,4.1,2.578,4,0-.084-2.082.111-4.2.205-6.278.185-4.114.4-8.227.615-12.339q.722-13.7,1.53-27.39c.145-2.46.253-4.927.461-7.384.217-2.565-3.785-2.55-4,0Z"/><path class="c" d="M24.508,165.077c-.125,5.591-1.171,11.178-1.967,16.673q-1.581,10.917-3.447,21.794c-.421,2.425-.812,4.871-1.381,7.267-.6,2.5,3.261,3.571,3.857,1.064,1.283-5.4,2.028-10.968,2.9-16.445,1.2-7.5,2.336-15,3.277-22.538a77.309,77.309,0,0,0,.758-7.815c.057-2.575-3.943-2.575-4,0Z"/><path class="c" d="M16.112,217.676c.666,5.68.145,11.411-.189,17.1q-.059.983-.107,1.967a7.405,7.405,0,0,0-.086,2.132c.011.032-.064.228-.045.245a3.9,3.9,0,0,1,1.027-.274c-.055.042-.134-.343,0-.009a2.366,2.366,0,0,0-.326-.437,41.637,41.637,0,0,0-3.195-4.175c-1.312-1.365-3.233-.2-3.414,1.414-.439,3.913-.836,7.8-.934,11.739-.041,1.639-.02,3.278-.047,4.916-.009.55-.049,1.084-.107,1.628-.008.069-.214.543-.084.373.243-.317.138-.178-.039-.222-.265-.066-.669.218-.983.181a1.9,1.9,0,0,1-1.2-.844c-2.341-2.827-2.225-6.113-2.374-9.574a31.681,31.681,0,0,1,1.852-12.221c.867-2.435,1.915-4.8,2.788-7.231a37.428,37.428,0,0,0,1.809-7.769,2.01,2.01,0,0,0-2-2,2.051,2.051,0,0,0-2,2c-.7,5.236-3.1,9.855-4.757,14.806A36.381,36.381,0,0,0,.086,245.345c.245,4.2.823,9.12,4.492,11.855,1.95,1.455,5.567,1.456,7.215-.543,1.42-1.724,1-4.653,1.013-6.738a135.048,135.048,0,0,1,.969-14.284l-3.414,1.415c1.326,1.38,2.2,3.144,3.482,4.558a3.255,3.255,0,0,0,3.954.85,4.255,4.255,0,0,0,1.94-3.8c.351-6.953,1.189-14.038.375-20.984a2.061,2.061,0,0,0-2-2,2.013,2.013,0,0,0-2,2Z"/><path class="c" d="M5.519,164.048a15.453,15.453,0,0,0,4.361.9c2.211.284,4.432.5,6.653.7,3.832.342,7.714.76,11.566.773,2.574.009,2.578-3.991,0-4-3.689-.012-7.406-.408-11.078-.73-2.194-.192-4.388-.4-6.574-.668l-.567-.071a3.388,3.388,0,0,1-.34-.046c-.349-.051-.7-.1-1.045-.161-.269-.047-.54-.093-.806-.156-.239-.056-.94-.337-.151.014a2.062,2.062,0,0,0-2.736.718,2.014,2.014,0,0,0,.717,2.736Z"/><path class="c" d="M7.8,156.554c5.782.569,11.594,1.3,17.4,1.493,2.575.086,2.572-3.914,0-4-5.808-.192-11.62-.924-17.4-1.493a2.014,2.014,0,0,0-2,2,2.045,2.045,0,0,0,2,2Z"/><path class="c" d="M62.934,97.506c0,10.754-.1,21.509-.163,32.264q-.129,23.11-.259,46.22c-.022,4.056-.058,8.111-.059,12.166,0,2.574,4,2.578,4,0,0-10.271.105-20.544.163-30.815q.132-23.315.259-46.628c.023-4.4.058-8.8.059-13.207,0-2.574-4-2.578-4,0Z"/><path class="c" d="M93.006,126.271H79.292a2.03,2.03,0,0,0-2,2c0,1.983.022,3.966.022,5.948a2.029,2.029,0,0,0,2,2c4.564,0,9.128.022,13.692.022a2.028,2.028,0,0,0,2-2c0-1.981-.112-3.991,0-5.97a2,2,0,0,0-4,0c-.112,1.979,0,3.989,0,5.97l2-2c-4.564,0-9.128-.021-13.692-.022l2,2c0-1.982-.021-3.965-.022-5.948l-2,2H93.006a2,2,0,1,0,0-4Z"/><path class="d" d="M74.764,107.869c4.021-4,6.655-8.837,9.626-13.673a21.414,21.414,0,0,0-4.364-5.9A43.4,43.4,0,0,1,67.5,97.028c-.26.117-.549.261-.632.533a1,1,0,0,0,.144.707,40.517,40.517,0,0,0,2.591,3.345C71.368,103.769,73.581,106.412,74.764,107.869Z"/><path class="d" d="M54.705,107.869c-4.021-4-6.655-8.837-9.626-13.673a21.434,21.434,0,0,1,4.364-5.9,43.407,43.407,0,0,0,12.524,8.728c.259.117.548.261.631.533a1,1,0,0,1-.144.707,40.517,40.517,0,0,1-2.591,3.345C58.1,103.769,55.888,106.412,54.705,107.869Z"/><path class="c" d="M76.178,109.283A56.052,56.052,0,0,0,84.059,98.6c.566-.933,1.127-1.87,1.7-2.8a2.834,2.834,0,0,0,.6-1.867,4.99,4.99,0,0,0-.781-1.74,22.959,22.959,0,0,0-4.133-5.305,2.033,2.033,0,0,0-2.828,0,40.689,40.689,0,0,1-6.71,5.438q-1.773,1.15-3.653,2.125c-1.225.632-2.893,1.078-3.307,2.58a3.513,3.513,0,0,0,.9,3.045c.82,1.087,1.684,2.141,2.546,3.2,1.646,2.01,3.32,4,4.961,6.014a2.013,2.013,0,0,0,2.828,0,2.046,2.046,0,0,0,0-2.828c-1.369-1.683-2.763-3.345-4.142-5.019-.777-.942-1.553-1.886-2.314-2.842-.211-.266-.415-.518-.614-.791-.087-.118-.173-.276-.271-.384-.186-.2.065-.266.034.142L68.6,98.57q-.538.442-.086.184l.292-.133c.293-.139.587-.277.877-.422q.892-.441,1.761-.927c1.2-.666,2.357-1.391,3.485-2.165a45.579,45.579,0,0,0,6.513-5.393H78.612a20.416,20.416,0,0,1,4.051,5.492V93.187c-2.83,4.616-5.464,9.4-9.313,13.268C71.532,108.282,74.359,111.111,76.178,109.283Z"/><path class="c" d="M56.119,106.455c-3.849-3.869-6.483-8.652-9.313-13.268v2.019a20.4,20.4,0,0,1,4.052-5.492H48.029a45.824,45.824,0,0,0,6.513,5.393q1.69,1.163,3.485,2.165.8.445,1.614.854.437.219.878.426.219.1.438.2.453.258-.086-.184L60.6,97.561c-.028-.366.234-.363.034-.142a3.445,3.445,0,0,0-.217.311c-.218.3-.436.572-.668.864-.761.956-1.537,1.9-2.314,2.842-1.379,1.674-2.773,3.336-4.142,5.019a2.058,2.058,0,0,0,0,2.828,2.014,2.014,0,0,0,2.828,0c1.607-1.975,3.247-3.923,4.861-5.892.873-1.065,1.744-2.132,2.578-3.228a3.6,3.6,0,0,0,.969-3.134c-.4-1.459-1.967-1.895-3.161-2.5-1.252-.64-2.471-1.346-3.655-2.106a40.706,40.706,0,0,1-6.853-5.532,2.037,2.037,0,0,0-2.829,0,22.9,22.9,0,0,0-4.051,5.163,7.3,7.3,0,0,0-.827,1.616,2.629,2.629,0,0,0,.563,2.133c.569.932,1.13,1.869,1.7,2.8a56.052,56.052,0,0,0,7.881,10.683C55.109,111.11,57.938,108.282,56.119,106.455Z"/><path class="c" d="M84.046,200.541l0,.032-.071-.532c.255,1.9.263,3.835.44,5.746a2.15,2.15,0,0,0,.586,1.415,2,2,0,0,0,2.828,0,1.958,1.958,0,0,0,.586-1.415c-.195-2.1-.223-4.217-.516-6.309a1.989,1.989,0,0,0-.919-1.2,2,2,0,0,0-2.736.717l-.2.478a2.018,2.018,0,0,0,0,1.063Z"/><path class="c" d="M77.754,199.881c.136,3.356.269,6.716.283,10.074a2,2,0,0,0,4,0c-.014-3.358-.147-6.718-.283-10.074a2,2,0,0,0-4,0Z"/><path class="c" d="M59.842,72.617a12,12,0,0,0,5.778,1.349,9.524,9.524,0,0,0,5.944-1.8,2,2,0,0,0,0-2.828,2.06,2.06,0,0,0-2.828,0c.692-.539-.019-.016-.238.1-.169.088-.619.229.013.014-.157.053-.31.119-.468.17-.424.136-.9.154-1.31.3.211-.074.328-.04.028-.01-.129.013-.257.024-.386.032-.31.02-.621.028-.931.026-.278,0-.556-.011-.834-.03-.127-.009-.255-.019-.382-.032-.072-.007-.145-.015-.217-.024q-.235-.028.185.025a5.047,5.047,0,0,1-1.223-.272c-.172-.051-.339-.113-.508-.171-.447-.153.423.2.018.012-.21-.1-.417-.2-.622-.311a2,2,0,1,0-2.019,3.454Z"/><path class="c" d="M64.342,59.345a26,26,0,0,1,.606,2.773l-.072-.532a1.694,1.694,0,0,1,.011.383l.071-.532a.929.929,0,0,1-.042.173l.2-.478a.8.8,0,0,1-.061.111l.313-.405a.638.638,0,0,1-.091.089l.405-.313a1.779,1.779,0,0,1-.22.117l.478-.2a1.652,1.652,0,0,1-.37.108l.531-.071a1.549,1.549,0,0,1-.347,0l.532.071c-.131-.018-.26-.05-.391-.067a1.506,1.506,0,0,0-.8-.036,1.486,1.486,0,0,0-.743.237,2,2,0,0,0-.718,2.737l.313.4a2,2,0,0,0,.883.515c.349.047.688.134,1.044.15a3.436,3.436,0,0,0,1.605-.392A2.441,2.441,0,0,0,68.8,62.59a3.749,3.749,0,0,0-.013-1.653c-.151-.894-.358-1.779-.587-2.655a2.067,2.067,0,0,0-.919-1.2,2.046,2.046,0,0,0-1.542-.2,2.02,2.02,0,0,0-1.195.919,2.1,2.1,0,0,0-.2,1.541Z"/><path class="c" d="M50.237,51.338c-.464,1.505-.162,4.967,2.689,5.262,3.768-.023,3.969-4.208,2.7-6.176C54.588,48.812,51.534,48.142,50.237,51.338Z"/><path class="c" d="M80.412,51.338c.463,1.505.161,4.967-2.69,5.262-3.768-.023-3.969-4.209-2.7-6.176C76.06,48.812,79.114,48.142,80.412,51.338Z"/><path class="b" d="M34.267,20.223A36.216,36.216,0,0,1,54.733,4.072c13.88-4,31.75-3.111,40.689,10.99,4.684,7.389,5.709,16.386,2.727,27.007a3.716,3.716,0,0,1-1,4.49c-1.736,1.3-5.321.249-7.11-.26-9.459-2.687-16.883-2.493-26.623-2.038a65.614,65.614,0,0,0-15.08,2.049c-2.185.624-12.93,4.335-13.127-.547l-.756-1.406c-8.485-.558-3.693-17.567-1.446-21.891Q33.6,21.322,34.267,20.223Z"/><path class="c" d="M34.451,42.357A2.642,2.642,0,0,1,32.6,41.349a6.859,6.859,0,0,1-.93-2.995,27.171,27.171,0,0,1,1.007-8.947c.341-1.333.738-2.653,1.209-3.946a16.757,16.757,0,0,1,1.5-3.192,36.715,36.715,0,0,1,8.964-10.562C50.966,6.4,59.552,4.2,67.92,4.016c7.744-.167,15.823,1.723,21.642,7.1A25.77,25.77,0,0,1,96.927,23.45a33.973,33.973,0,0,1-.392,16.916c-.627,2.5,3.23,3.563,3.857,1.064a39.614,39.614,0,0,0,.813-17.2,30.125,30.125,0,0,0-6.464-13.466C88.8,3.621,79.651.375,70.566.036,61.314-.309,51.368,1.8,43.735,7.2a37.419,37.419,0,0,0-14.72,20.426C27.391,33.57,25.422,45.6,34.451,46.357c2.566.214,2.551-3.787,0-4Z"/><path class="c" d="M36.007,45.536a53.177,53.177,0,0,1,9.84-5.38A48.955,48.955,0,0,1,60.043,37a121.669,121.669,0,0,1,15.71-.283,43.408,43.408,0,0,1,9.116,1.292c.652.175,1.3.371,1.933.593.292.1.58.212.87.321.126.048.251.1.376.151-.455-.185.037.017.1.046a29.4,29.4,0,0,1,2.8,1.457c2.22,1.315,4.234-2.141,2.019-3.454-4.749-2.814-10.079-3.882-15.533-4.3a114.869,114.869,0,0,0-15.243.037,57.141,57.141,0,0,0-16.154,2.969,56.022,56.022,0,0,0-12.044,6.253c-2.134,1.419-.133,4.885,2.018,3.454Z"/><path class="c" d="M33.207,45.763c.333,4.605,5.184,4.751,8.729,4.213,3.647-.553,7.091-1.94,10.709-2.628A106.72,106.72,0,0,1,72.186,45.99a67.364,67.364,0,0,1,18.1,2.458c2.6.709,6,1.436,8.272-.475,2.253-1.892,2.718-5.667.587-7.808-1.818-1.828-4.647,1-2.828,2.828a1.284,1.284,0,0,1,.022,1.436c-.383.766-1.076.777-1.864.75C92.232,45.1,90,44.17,87.832,43.659a67.711,67.711,0,0,0-15.86-1.668,133.344,133.344,0,0,0-17.358,1.015,95.721,95.721,0,0,0-10.621,2.467,20.017,20.017,0,0,1-4.92.774c-.19,0-.379-.006-.569-.013-.069,0-.661-.077-.317-.02-.175-.029-.925-.265-.614-.124a1.7,1.7,0,0,1-.3-.164c-.191-.128-.187-.125.01.007l-.113-.118.116.144c-.091-.173-.108-.194-.049-.063.039.346-.062-.64-.025-.133-.185-2.552-4.187-2.572-4,0Z"/><path class="c" d="M76.253,19.9a25.272,25.272,0,0,1,3.256-.077c.6.025,1.195.078,1.791.141.378.039-.093-.018.135.017.127.019.254.038.381.059.317.053.634.113.948.181.565.122,1.124.269,1.674.446.273.088.54.188.809.285.564.2-.178-.086.135.051q.216.095.427.2a11.349,11.349,0,0,1,1.447.833c-.01-.007.42.3.243.167s.233.195.224.188c.231.2.448.41.659.629a2,2,0,0,0,2.828-2.828c-3.724-3.87-9.839-4.736-14.957-4.289a2.053,2.053,0,0,0-2,2,2.016,2.016,0,0,0,2,2Z"/></svg>