<?xml version="1.0" encoding="utf-8"?>
<!-- Uploaded to: SVG Repo, www.svgrepo.com, Generator: SVG Repo Mixer Tools -->
<svg width="800px" height="800px" viewBox="0 0 1024 1024" class="icon"  version="1.1" xmlns="http://www.w3.org/2000/svg"><path d="M579.8 289.5l-42-169.2L389 143.7c-9.8 1.5-18.9-5.1-20.5-14.9l-2.2-14c-1.5-9.8 5.1-18.9 14.9-20.5L556 66.9c10.8-1.7 21.2 5.2 23.8 15.8l48.4 194.8c2.4 9.6-3.5 19.3-13.1 21.7l-13.7 3.4c-9.5 2.4-19.3-3.5-21.6-13.1z" fill="#656666" /><path d="M240.7 749.9m-176.5 0a176.5 176.5 0 1 0 353 0 176.5 176.5 0 1 0-353 0Z" fill="#FF9D00" /><path d="M164.2 601.3c28.6 14.4 59.3 20.3 89.1 18.7-4.1-60.1-38.9-116.6-96.6-145.7-28.6-14.4-59.3-20.3-89.1-18.7 4.1 60.2 38.9 116.6 96.6 145.7z" fill="#02BA4D" /><path d="M860.4 926.9H542.6c-18 0-32.9-12.3-34.5-28.3l-60-601.7c-0.7-7.4 5.8-13.9 14.2-13.9h479.2c8.4 0 14.9 6.5 14.1 13.9l-63.4 604c-1.5 14.7-15.3 26-31.8 26z" fill="#00AAFF" /></svg>