<?xml version="1.0" ?>
<!-- Uploaded to: SVG Repo, www.svgrepo.com, Generator: SVG Repo Mixer Tools -->
<svg width="800px" height="800px" viewBox="0 0 64 64" xmlns="http://www.w3.org/2000/svg" xmlns:xlink="http://www.w3.org/1999/xlink">
<defs>
<style>.cls-1{fill:#89643d;}.cls-2{fill:#af8756;}.cls-3{fill:#bd925d;}.cls-4{fill:#af7838;}.cls-5{fill:#6e5031;}.cls-6{fill:#301e08;}.cls-7{fill:#59380f;}.cls-8{fill:#ffd8a6;}.cls-9{fill:#00c40a;}.cls-10{fill:#1cff28;}.cls-11{fill:url(#linear-gradient);}.cls-12{fill:#ffca1f;}.cls-13{fill:url(#linear-gradient-2);}.cls-14{fill:url(#linear-gradient-3);}</style>
<linearGradient gradientTransform="translate(6.128 -3.701) rotate(10.261)" gradientUnits="userSpaceOnUse" id="linear-gradient" x1="20.41" x2="29.035" y1="32.37" y2="31.182">
<stop offset="0.038" stop-color="#fff887"/>
<stop offset="1" stop-color="#ffe840"/>
</linearGradient>
<linearGradient gradientTransform="translate(-8.52 4) rotate(-16.58)" id="linear-gradient-2" x1="32.652" x2="41.277" xlink:href="#linear-gradient" y1="39.557" y2="38.37"/>
<linearGradient gradientTransform="translate(0.961 -0.342) rotate(1.74)" id="linear-gradient-3" x1="6.386" x2="15.011" xlink:href="#linear-gradient" y1="31.795" y2="30.608"/>
</defs>
<title/>
<g id="gyoza">
<rect class="cls-1" height="28.582" rx="2.728" ry="2.728" transform="translate(-0.104 0.108) rotate(-0.192)" width="60.365" x="1.965" y="16.849"/>
<path class="cls-2" d="M5.769,44.27A2.339,2.339,0,0,1,3.4,41.983L3.323,20.407A2.34,2.34,0,0,1,5.69,18.1l52.828-.176A2.341,2.341,0,0,1,60.9,20.214l.072,21.576a2.242,2.242,0,0,1-.687,1.622,2.4,2.4,0,0,1-1.68.681Z"/>
<path class="cls-3" d="M58.527,17.678v.5a2.089,2.089,0,0,1,2.123,2.037l.072,21.576a2.088,2.088,0,0,1-2.117,2.052L5.769,44.02a2.088,2.088,0,0,1-2.123-2.038L3.573,20.407a2.088,2.088,0,0,1,2.118-2.052l52.828-.177.008-.5m0,0h-.009l-52.828.177a2.586,2.586,0,0,0-2.616,2.553l.073,21.576A2.585,2.585,0,0,0,5.769,44.52h.009l52.828-.177a2.585,2.585,0,0,0,2.616-2.554L61.15,20.214a2.584,2.584,0,0,0-2.624-2.536Z"/>
<path class="cls-4" d="M3.167,28.167S26,20.833,38.25,21.417s18.667,3.666,22.833,4.166V27s-15.25-4.417-22.75-4.167S10,27.583,3.083,32.167Z"/>
<path class="cls-4" d="M61.167,36.417s-9-8.584-21.084-9.834S13.5,44.417,13.5,44.417h1.083S29.417,26,40.083,27.333,61.167,39.417,61.167,39.667Z"/>
<rect class="cls-5" height="19.142" rx="4.72" ry="4.72" transform="translate(-0.103 0.182) rotate(-0.192)" width="10.62" x="48.826" y="21.364"/>
<path class="cls-6" d="M58.6,35.31a4.026,4.026,0,0,1-3.911,4.132l-.981,0a4.025,4.025,0,0,1-3.938-4.106l-.029-8.467a4.027,4.027,0,0,1,3.911-4.132l.981,0a4.025,4.025,0,0,1,3.938,4.106Z"/>
<path class="cls-7" d="M55.187,23.188a5.826,5.826,0,0,0-2.375.187c-1.25.375-1.937,1.438-.375,2.625a46.268,46.268,0,0,1,4.5,4.188c.5.562,1.375.375,1.375-.938s-.062-2.562-.062-2.562A4.119,4.119,0,0,0,55.187,23.188Z"/>
<path class="cls-7" d="M50.187,34.313a5.959,5.959,0,0,0,.406,2.526A3.635,3.635,0,0,0,53.784,39l1.091.059s.937-.063.125-.969S50.187,32.438,50.187,34.313Z"/>
<ellipse class="cls-8" cx="55.781" cy="24.375" rx="0.688" ry="0.906" transform="translate(14.865 69.448) rotate(-71.372)"/>
<ellipse class="cls-8" cx="57.313" cy="26.062" rx="0.3" ry="0.395" transform="translate(14.308 72.047) rotate(-71.372)"/>
<ellipse class="cls-8" cx="52.654" cy="38.117" rx="0.3" ry="0.395" transform="translate(-0.285 75.838) rotate(-71.372)"/>
<path class="cls-9" d="M54.421,31.454a.49.49,0,0,1-.233.651h0a.489.489,0,0,1-.65-.234l-.626-1.325a.49.49,0,0,1,.234-.651h0a.489.489,0,0,1,.65.234Z"/>
<path class="cls-9" d="M55.628,31.554c-.049.134-.3.167-.548.074h0c-.253-.094-.418-.279-.368-.413l.269-.728c.05-.134.3-.167.548-.073h0c.253.093.418.278.369.412Z"/>
<path class="cls-10" d="M54.2,31.67c.191.039.3.285.246.55h0c-.054.264-.253.446-.443.407l-1.035-.214c-.19-.039-.3-.285-.246-.549h0c.055-.265.254-.447.444-.408Z"/>
<path class="cls-1" d="M22.321,42.571a2.274,2.274,0,0,1-1.9-2.25c0-2.02.028-5.585.179-6.9.216-1.882,1.2-7.744,1.178-8.52a4.148,4.148,0,0,1,.745-2.54c.489-.474,2.3-.376,3.207.782A4.405,4.405,0,0,1,28.7,25.027c1.082,1.677.906,1.158,2.461,3.321,1.01,1.405.641,1.487.69,3.039a6.229,6.229,0,0,1-.842,3.869,3.747,3.747,0,0,1-2.34,2.777A4.108,4.108,0,0,1,25.7,41.061,3.517,3.517,0,0,1,22.321,42.571Z"/>
<path class="cls-11" d="M22.143,41.947a2.248,2.248,0,0,1-1.867-2.219c0-1.988.018-5.5.164-6.792.21-1.852,1.169-7.62,1.144-8.384a4.075,4.075,0,0,1,.728-2.5c.48-.465,2.26-.366,3.152.775a4.345,4.345,0,0,1,2.918,1.862c1.067,1.652.893,1.14,2.425,3.272.994,1.385.632,1.465.682,2.993a6.126,6.126,0,0,1-.82,3.806,3.672,3.672,0,0,1-2.3,2.73,4.02,4.02,0,0,1-2.917,2.975A3.442,3.442,0,0,1,22.143,41.947Z"/>
<path class="cls-12" d="M28.1,37.19s-1.011-.308-.676-.715C27.8,36.014,27.973,36.808,28.1,37.19Z"/>
<path class="cls-12" d="M24.924,23.151s-.359.7-.184.789a.146.146,0,0,0,.221-.1s-.086.216.085.265.5-.461.5-.461.188-.5-.108-.284S25.318,22.616,24.924,23.151Z"/>
<path class="cls-12" d="M28.1,25.5s-.616.488-.494.642a.147.147,0,0,0,.244,0s-.168.161-.032.276.65-.211.65-.211.376-.375.019-.3S28.679,25.175,28.1,25.5Z"/>
<path class="cls-12" d="M28.742,26.317s-.572.2-.523.338a.113.113,0,0,0,.177.062s-.164.074-.094.192.525.014.525.014.37-.175.092-.215S29.246,26.23,28.742,26.317Z"/>
<path class="cls-12" d="M30.226,34.07s-.762-.192-.81,0a.147.147,0,0,0,.15.193s-.231-.035-.239.142.563.388.563.388.526.072.252-.168S30.837,34.333,30.226,34.07Z"/>
<path class="cls-12" d="M30.938,30.338s-1.18,0-1.083.25.911.089,1.115.065S31.454,30.434,30.938,30.338Z"/>
<path class="cls-12" d="M30.029,28.466s-.707.331-.579.453.571-.2.686-.272S30.365,28.38,30.029,28.466Z"/>
<path class="cls-12" d="M25.657,39.76s-.565-.547-.7-.406a.147.147,0,0,0,.034.242s-.182-.146-.278,0,.294.617.294.617.421.324.3-.021S26.054,40.292,25.657,39.76Z"/>
<path class="cls-12" d="M24.931,40.5s-.269-.542-.4-.474a.112.112,0,0,0-.038.183s-.1-.152-.2-.068.055.523.055.523.221.343.225.063S25.082,40.992,24.931,40.5Z"/>
<path class="cls-9" d="M28.088,31.829a.49.49,0,0,1-.234.651h0a.489.489,0,0,1-.65-.234l-.625-1.325a.49.49,0,0,1,.233-.651h0a.489.489,0,0,1,.65.234Z"/>
<path class="cls-1" d="M40.606,41.371A2.273,2.273,0,0,1,37.9,40.219c-.91-1.8-2.5-5-2.957-6.239-.656-1.776-2.424-7.452-2.8-8.134a4.139,4.139,0,0,1-.481-2.6c.222-.644,1.883-1.375,3.213-.751a4.408,4.408,0,0,1,3.5.344c1.723,1.008,1.331.624,3.7,1.852,1.535.8,1.244,1.037,1.988,2.4a6.227,6.227,0,0,1,1,3.831,3.747,3.747,0,0,1-.835,3.535A4.106,4.106,0,0,1,42.934,38.5,3.517,3.517,0,0,1,40.606,41.371Z"/>
<path class="cls-13" d="M40.165,40.894A2.247,2.247,0,0,1,37.5,39.758c-.9-1.773-2.466-4.912-2.92-6.135-.649-1.747-2.4-7.326-2.765-8a4.074,4.074,0,0,1-.479-2.558c.218-.632,1.852-1.347,3.163-.732a4.345,4.345,0,0,1,3.444.343c1.7.993,1.311.615,3.641,1.826,1.512.786,1.225,1.021,1.96,2.362a6.121,6.121,0,0,1,.986,3.766,3.671,3.671,0,0,1-.815,3.472,4.022,4.022,0,0,1-1.26,3.972A3.442,3.442,0,0,1,40.165,40.894Z"/>
<path class="cls-12" d="M43.327,33.963s-1.04.181-.925-.333C42.533,33.047,43.047,33.677,43.327,33.963Z"/>
<path class="cls-12" d="M34.16,22.868s0,.786.192.787.151-.191.151-.191.021.232.2.2.242-.639.242-.639-.056-.528-.224-.2S34.269,22.213,34.16,22.868Z"/>
<path class="cls-12" d="M38.054,23.53s-.329.714-.151.8a.146.146,0,0,0,.217-.111s-.077.219.1.26.485-.482.485-.482.166-.5-.12-.278S38.424,22.979,38.054,23.53Z"/>
<path class="cls-12" d="M38.995,23.969s-.422.433-.314.538a.112.112,0,0,0,.186-.025s-.112.14,0,.214.475-.225.475-.225.251-.322-.015-.233S39.406,23.664,38.995,23.969Z"/>
<path class="cls-12" d="M43.821,30.217s-.767.172-.724.364a.146.146,0,0,0,.22.1s-.221.073-.148.235.677.092.677.092.5-.174.149-.264S44.484,30.176,43.821,30.217Z"/>
<path class="cls-12" d="M42.77,26.565s-1.051.534-.853.712.853-.332,1.025-.445S43.274,26.418,42.77,26.565Z"/>
<path class="cls-12" d="M41.114,25.306s-.481.614-.312.666.419-.438.49-.554S41.375,25.077,41.114,25.306Z"/>
<path class="cls-12" d="M42.312,37.356s-.75-.232-.809-.045a.147.147,0,0,0,.139.2s-.228-.048-.246.129.542.418.542.418.521.1.26-.155S42.908,37.652,42.312,37.356Z"/>
<path class="cls-12" d="M42,38.348s-.485-.362-.575-.241a.112.112,0,0,0,.049.181s-.153-.093-.212.03.285.442.285.442.353.207.229-.045S42.356,38.715,42,38.348Z"/>
<path class="cls-9" d="M37.128,30.429c-.049.134-.3.167-.548.074h0c-.253-.094-.418-.279-.368-.413l.269-.728c.05-.134.3-.167.548-.073h0c.253.093.418.278.369.412Z"/>
<path class="cls-9" d="M39.313,32.707c.032.139-.155.3-.418.361h0c-.263.061-.5,0-.534-.143l-.174-.757c-.032-.139.155-.3.418-.361h0c.263-.061.5,0,.534.143Z"/>
<path class="cls-1" d="M9.831,42.02a2.274,2.274,0,0,1-2.209-1.945c-.3-2-.8-5.526-.845-6.852-.065-1.893.041-7.836-.1-8.6A4.147,4.147,0,0,1,7.04,22c.413-.541,2.219-.713,3.287.3a4.407,4.407,0,0,1,3.213,1.427c1.318,1.5,1.067,1.01,2.926,2.919,1.206,1.24.854,1.375,1.132,2.9a6.222,6.222,0,0,1-.259,3.95,3.748,3.748,0,0,1-1.9,3.094,4.107,4.107,0,0,1-2.493,3.435A3.514,3.514,0,0,1,9.831,42.02Z"/>
<path class="cls-14" d="M9.562,41.429a2.247,2.247,0,0,1-2.175-1.917c-.3-1.966-.8-5.439-.844-6.742-.067-1.863.027-7.709-.111-8.461a4.071,4.071,0,0,1,.35-2.579c.405-.531,2.181-.7,3.232.3a4.35,4.35,0,0,1,3.162,1.409c1.3,1.476,1.051,1,2.882,2.877,1.189,1.222.843,1.355,1.118,2.859a6.119,6.119,0,0,1-.247,3.885,3.671,3.671,0,0,1-1.866,3.04,4.019,4.019,0,0,1-2.444,3.374A3.44,3.44,0,0,1,9.562,41.429Z"/>
<path class="cls-12" d="M14.743,35.843s-1.045-.155-.773-.607C14.277,34.724,14.567,35.483,14.743,35.843Z"/>
<path class="cls-12" d="M9.527,22.429s-.251.745-.065.808a.147.147,0,0,0,.2-.134s-.053.226.124.249.43-.531.43-.531.112-.519-.148-.265S9.837,21.841,9.527,22.429Z"/>
<path class="cls-12" d="M13.016,24.281s-.537.574-.393.709a.147.147,0,0,0,.241-.038s-.142.184.009.278.612-.306.612-.306.316-.426-.026-.3S13.541,23.874,13.016,24.281Z"/>
<path class="cls-12" d="M13.772,24.994s-.537.278-.467.412a.113.113,0,0,0,.184.035s-.15.1-.064.2.521-.064.521-.064.34-.228.06-.226S14.258,24.834,13.772,24.994Z"/>
<path class="cls-12" d="M16.389,32.442s-.782-.078-.8.118.176.168.176.168-.233,0-.215.177.614.3.614.3.531-.008.224-.2S17.032,32.611,16.389,32.442Z"/>
<path class="cls-12" d="M16.54,28.645s-1.166.176-1.034.408.914-.047,1.112-.1S17.064,28.664,16.54,28.645Z"/>
<path class="cls-12" d="M15.363,26.929s-.65.432-.5.534.535-.284.639-.372S15.683,26.793,15.363,26.929Z"/>
<path class="cls-12" d="M12.713,38.745s-.64-.457-.754-.3a.147.147,0,0,0,.069.234s-.2-.117-.274.046.382.566.382.566.465.259.3-.065S13.185,39.213,12.713,38.745Z"/>
<path class="cls-12" d="M12.105,39.588s-.346-.5-.47-.409a.112.112,0,0,0-.01.187s-.116-.136-.21-.037.131.509.131.509.27.307.232.029S12.327,40.049,12.105,39.588Z"/>
<path class="cls-10" d="M10.3,29.941c.191.039.3.285.246.55h0c-.054.264-.253.446-.443.407l-1.034-.214c-.191-.039-.3-.285-.246-.55h0c.054-.264.253-.446.443-.407Z"/>
<path class="cls-10" d="M11.256,32.718a.438.438,0,0,1,.6.079h0a.437.437,0,0,1,.115.591l-.724.769a.438.438,0,0,1-.6-.079h0a.437.437,0,0,1-.115-.591Z"/>
<path class="cls-10" d="M33.7,34.045c.191.039.3.285.246.55h0c-.054.264-.253.446-.443.407l-1.035-.214c-.19-.039-.3-.285-.246-.549h0c.055-.265.254-.447.444-.408Z"/>
<path class="cls-10" d="M18.866,21.8c.19.039.3.285.246.55h0c-.055.264-.253.446-.444.407l-1.034-.214a.437.437,0,0,1-.246-.549h0c.055-.265.253-.447.444-.408Z"/>
</g>
</svg>