<?xml version="1.0" encoding="utf-8"?>

<!DOCTYPE svg PUBLIC "-//W3C//DTD SVG 1.1//EN" "http://www.w3.org/Graphics/SVG/1.1/DTD/svg11.dtd">
<!-- Uploaded to: SVG Repo, www.svgrepo.com, Generator: SVG Repo Mixer Tools -->
<svg height="800px" width="800px" version="1.1" id="_x32_" xmlns="http://www.w3.org/2000/svg" xmlns:xlink="http://www.w3.org/1999/xlink" 
	 viewBox="0 0 512 512"  xml:space="preserve">
<style type="text/css">
	.st0{fill:#000000;}
</style>
<g>
	<path class="st0" d="M276.508,389.928H69.71c-12.684,0-22.972,8.194-22.972,18.301v0.536c0,10.107,10.284,18.293,22.972,18.293
		h206.798c12.692,0,22.98-8.186,22.98-18.293v-0.536C299.487,398.122,289.199,389.928,276.508,389.928z"/>
	<path class="st0" d="M97.89,283.859c-3.644,0-6.596,2.955-6.596,6.599c0,3.651,2.952,6.606,6.596,6.606
		c3.651,0,6.61-2.955,6.61-6.606C104.501,286.814,101.541,283.859,97.89,283.859z"/>
	<path class="st0" d="M147.41,283.859c-3.648,0-6.608,2.955-6.608,6.599c0,3.651,2.96,6.606,6.608,6.606
		c3.643,0,6.599-2.955,6.599-6.606C154.009,286.814,151.053,283.859,147.41,283.859z"/>
	<path class="st0" d="M124.301,264.054c-3.647,0-6.599,2.948-6.599,6.599c0,3.651,2.952,6.606,6.599,6.606
		c3.644,0,6.599-2.955,6.599-6.606C130.9,267.002,127.945,264.054,124.301,264.054z"/>
	<path class="st0" d="M160.611,262.406c0,3.644,2.956,6.592,6.6,6.592c3.647,0,6.603-2.948,6.603-6.592
		c0-3.651-2.956-6.599-6.603-6.599C163.567,255.808,160.611,258.755,160.611,262.406z"/>
	<path class="st0" d="M191.967,298.712c3.655,0,6.607-2.955,6.607-6.606c0-3.644-2.952-6.599-6.607-6.599
		c-3.643,0-6.602,2.955-6.602,6.599C185.364,295.757,188.323,298.712,191.967,298.712z"/>
	<path class="st0" d="M213.427,277.185c3.644,0,6.595-2.963,6.595-6.614c0-3.644-2.952-6.6-6.595-6.6
		c-3.647,0-6.607,2.956-6.607,6.6C206.82,274.222,209.78,277.185,213.427,277.185z"/>
	<path class="st0" d="M246.434,298.712c3.644,0,6.603-2.955,6.603-6.606c0-3.644-2.959-6.599-6.603-6.599
		c-3.64,0-6.603,2.955-6.603,6.599C239.831,295.757,242.794,298.712,246.434,298.712z"/>
	<path class="st0" d="M301.577,365.195c0.707-0.204,1.519-0.34,2.627-0.34c4.55,0,8.243-3.688,8.243-8.247
		c0-4.558-3.693-8.254-8.247-8.254c-2.907,0-5.662,0.446-8.153,1.27c-2.177,0.725-4.142,1.73-5.843,2.864
		c-2.982,1.988-5.197,4.294-7.034,6.372c-1.38,1.565-2.562,3.024-3.647,4.249c-1.61,1.86-2.99,3.144-4.222,3.885
		c-0.624,0.363-1.214,0.635-1.913,0.831c-0.695,0.197-1.519,0.333-2.615,0.333c-1.274,0-2.177-0.174-2.952-0.431
		c-0.676-0.219-1.274-0.521-1.916-0.944c-1.115-0.726-2.358-1.92-3.787-3.545c-1.07-1.21-2.241-2.654-3.606-4.226
		c-2.045-2.314-4.551-4.96-8.092-7.106c-1.761-1.074-3.772-1.981-5.983-2.608c-2.204-0.62-4.592-0.945-7.09-0.945
		c-2.906,0-5.658,0.438-8.152,1.27c-2.181,0.725-4.139,1.73-5.84,2.864c-2.993,1.988-5.2,4.294-7.034,6.372
		c-1.387,1.565-2.562,3.024-3.651,4.249c-1.621,1.86-2.982,3.144-4.218,3.885c-0.627,0.363-1.217,0.635-1.912,0.831
		c-0.695,0.197-1.523,0.333-2.62,0.333c-1.277,0-2.176-0.174-2.948-0.431c-0.68-0.227-1.278-0.528-1.92-0.944
		c-1.107-0.726-2.347-1.92-3.779-3.545c-1.078-1.21-2.242-2.654-3.606-4.211c-2.044-2.328-4.558-4.974-8.088-7.12
		c-1.765-1.074-3.772-1.981-5.986-2.608c-2.204-0.62-4.596-0.953-7.09-0.945c-2.906-0.008-5.662,0.438-8.149,1.27
		c-2.176,0.717-4.138,1.723-5.846,2.864c-2.982,1.988-5.193,4.286-7.038,6.372c-1.376,1.565-2.548,3.024-3.633,4.249
		c-1.621,1.86-2.997,3.144-4.225,3.885c-0.62,0.363-1.209,0.635-1.908,0.831c-0.707,0.197-1.527,0.333-2.623,0.333
		c-1.278,0-2.177-0.174-2.952-0.431c-0.673-0.227-1.274-0.528-1.908-0.952c-1.116-0.718-2.352-1.913-3.788-3.537
		c-1.078-1.218-2.242-2.661-3.606-4.211c-2.045-2.328-4.558-4.974-8.096-7.12c-1.754-1.074-3.768-1.981-5.972-2.608
		c-2.211-0.62-4.599-0.953-7.098-0.945c-2.906-0.008-5.654,0.438-8.152,1.27c-2.177,0.717-4.131,1.723-5.836,2.857
		c-2.99,1.996-5.193,4.294-7.041,6.38c-1.38,1.565-2.555,3.024-3.632,4.249c-1.622,1.86-2.993,3.144-4.226,3.885
		c-0.624,0.363-1.214,0.635-1.913,0.831c-0.703,0.197-1.519,0.325-2.615,0.333c-1.281-0.008-2.177-0.174-2.956-0.431
		c-0.672-0.227-1.274-0.528-1.909-0.952c-1.112-0.726-2.358-1.905-3.78-3.537c-1.077-1.218-2.249-2.661-3.613-4.219
		c-2.041-2.32-4.558-4.966-8.088-7.113c-1.758-1.074-3.768-1.981-5.98-2.608c-2.203-0.62-4.596-0.953-7.098-0.945
		c-4.551,0-8.247,3.696-8.247,8.254c0,4.558,3.696,8.247,8.247,8.247c1.286,0,2.185,0.182,2.952,0.431
		c0.68,0.234,1.274,0.53,1.916,0.953c1.108,0.725,2.348,1.904,3.784,3.538c1.07,1.209,2.242,2.66,3.602,4.218
		c2.049,2.321,4.558,4.966,8.089,7.12c1.761,1.066,3.776,1.973,5.982,2.593c2.204,0.627,4.593,0.952,7.098,0.952
		c2.899,0.008,5.65-0.438,8.145-1.262c2.176-0.734,4.138-1.732,5.836-2.866c2.989-1.988,5.2-4.308,7.044-6.38
		c1.376-1.564,2.555-3.016,3.636-4.256c1.622-1.851,2.986-3.137,4.222-3.878c0.623-0.362,1.209-0.634,1.916-0.831
		c0.696-0.196,1.512-0.333,2.62-0.333c1.273,0,2.174,0.182,2.948,0.431c0.672,0.234,1.273,0.53,1.912,0.953
		c1.116,0.725,2.355,1.904,3.784,3.538c1.07,1.209,2.241,2.66,3.606,4.218c2.049,2.321,4.558,4.966,8.092,7.12
		c1.762,1.074,3.772,1.973,5.976,2.593c2.211,0.627,4.6,0.952,7.098,0.952c2.899,0.008,5.658-0.438,8.145-1.262
		c2.185-0.734,4.142-1.732,5.843-2.866c2.989-1.988,5.201-4.308,7.034-6.38c1.387-1.564,2.563-3.016,3.648-4.256
		c1.622-1.851,2.989-3.137,4.222-3.878c0.62-0.362,1.213-0.634,1.913-0.831c0.695-0.196,1.516-0.333,2.622-0.333
		c1.274,0,2.174,0.182,2.94,0.431c0.68,0.234,1.282,0.53,1.921,0.953c1.107,0.725,2.35,1.904,3.782,3.538
		c1.074,1.209,2.246,2.66,3.606,4.218c2.048,2.321,4.558,4.966,8.092,7.12c1.761,1.074,3.772,1.973,5.979,2.593
		c2.212,0.627,4.596,0.952,7.098,0.952c2.899,0.008,5.654-0.438,8.142-1.262c2.184-0.734,4.142-1.732,5.847-2.866
		c2.986-1.988,5.201-4.308,7.034-6.38c1.38-1.564,2.559-3.016,3.64-4.256c1.618-1.851,2.994-3.137,4.23-3.878
		c0.616-0.362,1.209-0.634,1.908-0.831c0.703-0.196,1.52-0.333,2.623-0.333c1.274,0,2.17,0.182,2.948,0.431
		c0.673,0.234,1.278,0.53,1.909,0.953c1.119,0.725,2.354,1.904,3.791,3.538c1.077,1.209,2.241,2.668,3.613,4.218
		c2.041,2.328,4.554,4.966,8.084,7.12c1.761,1.074,3.772,1.973,5.983,2.593c2.207,0.627,4.6,0.96,7.098,0.96
		c2.903,0,5.662-0.446,8.141-1.27c2.181-0.726,4.146-1.732,5.847-2.866c2.99-1.988,5.204-4.308,7.038-6.38
		c1.376-1.564,2.559-3.016,3.636-4.256c1.621-1.851,2.993-3.137,4.225-3.878C300.285,365.656,300.871,365.384,301.577,365.195z"/>
	<path class="st0" d="M487.414,120.295h-73.641l15.455-71.07l54.108-31.416L472.998,0l-61.969,35.981l-18.331,84.314H227.407
		l8.629,112.404c-19.544-7.416-41.616-11.709-64.997-11.709c-36.397,0.016-69.616,10.356-95.094,26.827
		c-12.741,8.248-23.565,18.044-31.82,29.012c-6.388,8.489-11.218,17.711-14.082,27.409h-0.578l-1.44,8.594
		c-0.042,0.265-0.075,0.423-0.094,0.507l-0.008,0.045c-0.037,0.09-0.117,0.317-0.234,0.71c-0.118,0.386-0.254,0.915-0.344,1.421
		c-0.143,0.764-0.208,1.451-0.238,2.064c-0.034,0.62-0.046,1.202-0.046,1.882c0.008,3.303,0.457,6.546,1.554,9.653
		c0.816,2.321,2.014,4.55,3.587,6.508c2.343,2.963,5.521,5.238,8.908,6.584c3.402,1.368,6.974,1.912,10.576,1.912h238.697
		c3.205,0,6.376-0.43,9.437-1.482c2.287-0.794,4.509-1.95,6.482-3.485c2.978-2.297,5.306-5.457,6.709-8.882
		c1.417-3.447,1.992-7.098,1.992-10.81c-0.004-0.96-0.015-1.724-0.098-2.668c-0.064-0.696-0.216-1.58-0.412-2.314
		c-0.151-0.552-0.291-0.93-0.333-1.066l-0.011-0.037c-0.011-0.046-0.049-0.19-0.106-0.545v0.008
		c-2.15-12.858-7.85-25.05-16.089-36.011c-10.084-13.372-23.955-25.028-40.498-34.22l-7.808-101.716h215.528l-23.577,307.043
		H309.114c-2.351-2.615-5.348-4.838-8.784-6.289c-3.556-1.519-7.484-2.229-11.535-2.222H53.337c-4.8-0.014-9.441,0.998-13.462,3.137
		c-3.013,1.588-5.613,3.772-7.654,6.252c-3.076,3.727-4.94,7.997-6.074,12.329c-1.126,4.346-1.556,8.814-1.56,13.335v2.472
		c-0.004,9.645,3.942,18.474,10.269,24.786c6.308,6.327,15.137,10.273,24.783,10.266h222.797c9.645,0.008,18.47-3.938,24.782-10.266
		c6.327-6.312,10.273-15.14,10.269-24.786v-2.472c0-1.996-0.087-3.984-0.272-5.95h143.453L487.414,120.295z M254.941,265.097
		c10.95,7.083,19.968,15.36,26.552,24.114c6.588,8.76,10.722,17.945,12.238,27.024v0.008c0.178,1.058,0.374,1.965,0.597,2.759
		c0.03,0.084,0.057,0.166,0.076,0.249c0,0.076,0.008,0.122,0.008,0.212c0,1.406-0.204,2.298-0.37,2.774
		c-0.132,0.363-0.23,0.492-0.28,0.552c-0.083,0.09-0.068,0.12-0.51,0.325c-0.431,0.174-1.36,0.416-2.868,0.416H51.685
		c-1.346,0-2.226-0.189-2.706-0.363c-0.367-0.121-0.507-0.219-0.575-0.272c-0.087-0.091-0.121-0.068-0.314-0.491
		c-0.151-0.355-0.344-1.096-0.408-2.238l0.657-3.93c1.516-9.079,5.651-18.263,12.239-27.024
		c9.864-13.138,25.255-25.164,44.338-33.774c19.076-8.625,41.776-13.863,66.123-13.856
		C203.495,241.566,233.043,250.909,254.941,265.097z M296.891,476.949c-0.004,4.021-1.602,7.574-4.233,10.22
		c-2.65,2.638-6.202,4.233-10.224,4.241H59.637c-4.029-0.008-7.574-1.603-10.22-4.241c-2.634-2.646-4.233-6.198-4.237-10.22v-2.472
		c0-2.82,0.257-5.353,0.711-7.393c0.344-1.527,0.79-2.774,1.262-3.689c0.351-0.695,0.71-1.202,1.047-1.587
		c0.521-0.582,0.96-0.9,1.663-1.209c0.703-0.303,1.758-0.574,3.473-0.582h235.458c2.048,0.008,3.118,0.378,3.825,0.748
		c0.533,0.295,0.93,0.604,1.391,1.156c0.665,0.801,1.436,2.23,1.992,4.407c0.567,2.147,0.896,4.974,0.888,8.149V476.949z"/>
</g>
</svg>