<?xml version="1.0" encoding="utf-8"?>
<!-- Uploaded to: SVG Repo, www.svgrepo.com, Generator: SVG Repo Mixer Tools -->
<svg width="800px" height="800px" viewBox="0 0 1024 1024" class="icon"  version="1.1" xmlns="http://www.w3.org/2000/svg"><path d="M709.696 703.722667l-1.066667-0.021334-432.341333-21.056a21.333333 21.333333 0 0 1-19.754667-16.554666l-71.317333-311.466667a21.333333 21.333333 0 0 1 33.28-22.037333c50.901333 36.842667 118.101333 61.76 211.562667 78.4 261.973333 46.656 395.52-22.250667 439.402666-44.906667l4.608-2.368c21.44-10.922667 46.592-6.656 67.392 11.52 31.104 27.2 51.584 86.122667 30.485334 146.112-23.744 67.413333-116.778667 133.482667-255.296 181.205333a21.504 21.504 0 0 1-6.954667 1.173334z" fill="#D8BC48" /><path d="M588.757333 946.901333a1185.706667 1185.706667 0 0 1-32.618666-0.448c-220.672-5.973333-469.781333-122.56-518.826667-333.845333-36.8-158.250667 3.2-322.730667 9.984-348.608l-5.205333-151.466667a21.312 21.312 0 0 1 18.666666-21.909333l106.666667-13.333333c5.781333-0.810667 11.669333 0.96 16.170667 4.693333s7.317333 9.109333 7.744 14.933333c18.304 256.128 38.101333 384.128 286.037333 494.037334 243.264 107.861333 389.418667 72.789333 437.418667 61.269333l5.034666-1.194667c23.552-5.482667 46.869333 4.672 62.698667 27.242667 23.722667 33.856 29.525333 95.957333-5.269333 149.205333-48.149333 73.642667-198.805333 119.424-388.501334 119.424z" fill="#EFD358" /></svg>