<?xml version="1.0" encoding="utf-8"?>
<!-- Uploaded to: SVG Repo, www.svgrepo.com, Generator: SVG Repo Mixer Tools -->
<svg width="800px" height="800px" viewBox="0 0 1024 1024" class="icon"  version="1.1" xmlns="http://www.w3.org/2000/svg"><path d="M946.432 829.226667L530.922667 32.768c-7.36-14.08-30.485333-14.08-37.845334 0L354.133333 299.093333c2.837333-0.192 5.653333-0.426667 8.533334-0.426666a128 128 0 1 1 0 256 127.786667 127.786667 0 0 1-109.525334-61.994667l-175.573333 336.533333a21.376 21.376 0 0 0 9.237333 28.906667C219.584 925.717333 362.645333 960 512 960s292.416-34.282667 425.194667-101.888a21.376 21.376 0 0 0 9.237333-28.885333z" fill="#EA9860" /><path d="M362.666667 554.666667a128 128 0 1 0 0-256c-2.88 0-5.696 0.234667-8.533334 0.426666l-100.992 193.578667A127.786667 127.786667 0 0 0 362.666667 554.666667z" fill="#C94F49" /><path d="M576 640m-85.333333 0a85.333333 85.333333 0 1 0 170.666666 0 85.333333 85.333333 0 1 0-170.666666 0Z" fill="#C94F49" /><path d="M512 1002.666667c-156.16 0-305.706667-35.84-444.565333-106.538667a64 64 0 0 1 58.090666-114.090667C246.186667 843.52 376.234667 874.666667 512 874.666667s265.792-31.146667 386.474667-92.629334a64 64 0 1 1 58.090666 114.090667C817.706667 966.805333 668.138667 1002.666667 512 1002.666667z" fill="#DDBE99" /></svg>