<?xml version="1.0" encoding="utf-8"?>
<!-- Uploaded to: SVG Repo, www.svgrepo.com, Generator: SVG Repo Mixer Tools -->
<svg width="800px" height="800px" viewBox="0 0 1024 1024" class="icon"  version="1.1" xmlns="http://www.w3.org/2000/svg"><path d="M548.897755 535.191003m-347.776985 0a347.776985 347.776985 0 1 0 695.55397 0 347.776985 347.776985 0 1 0-695.55397 0Z" fill="#FFFFFF" /><path d="M548.899803 893.131073c-197.368231 0-357.942118-160.568768-357.942118-357.938023s160.573888-357.942118 357.942118-357.942118S906.837826 337.82482 906.837826 535.19305 746.268034 893.131073 548.899803 893.131073z m0-695.556017c-186.163854 0-337.617995 151.454141-337.617995 337.617994 0 186.158734 151.454141 337.612875 337.617995 337.612876 186.158734 0 337.612875-151.454141 337.612876-337.612876 0-186.163854-151.454141-337.617995-337.612876-337.617994z" fill="#4D5152" /><path d="M548.897755 535.191003m-296.37487 0a296.37487 296.37487 0 1 0 592.74974 0 296.37487 296.37487 0 1 0-592.74974 0Z" fill="#FFFFFF" /><path d="M548.899803 841.727934c-169.025037 0-306.540004-137.509847-306.540003-306.534884S379.874766 228.653047 548.899803 228.653047s306.534884 137.514966 306.534884 306.540003-137.510871 306.534884-306.534884 306.534884z m0-592.74974c-157.82066 0-286.214856 128.39522-286.214856 286.214856 0 157.815541 128.39522 286.209737 286.214856 286.209737 157.815541 0 286.209737-128.39522 286.209737-286.209737 0-157.82066-128.394196-286.214856-286.209737-286.214856z" fill="#4D5152" /><path d="M433.635913 432.607932s14.181836-126.157006 90.839106-78.940535c59.913674 36.903899 146.299902-23.207385 166.070104 0 19.770202 23.207385 46.770058 20.234022 0 114.150927-1.763131 3.539572-2.514662 69.312941 43.494649 59.310606 38.830851-8.441935 30.655127 146.153487-19.48761 133.134784-53.338282-13.849073-51.16355 17.316972-77.255219 39.784089-26.930232 23.189979-81.78796-4.508167-105.09159-14.495145-30.440111-13.046347-36.963284 25.366759-59.132449 39.278289-14.978418 9.399267-102.805254-7.90849-98.851009-55.35636 2.267906-27.21692 21.197498-91.779033-2.434799-134.277441-20.774633-37.359528 4.763115-66.85664 18.250756-75.287312 31.631913-19.770202 43.968708 7.92692 43.598061-27.301902z" fill="#FDF3E1" /><path d="M459.030317 737.468763c-19.213208 0-45.71648-7.031021-64.607164-18.533348-21.491353-13.085254-31.981058-30.48209-30.328508-50.305534 0.516038-6.187339 1.776441-13.809141 3.235478-22.63708 4.961748-30.05513 12.46478-75.483898-4.426256-105.856432-22.622746-40.678964 1.335146-76.083895 21.744252-88.846625 16.444622-10.266498 29.113155-9.745341 36.705265-9.472987 0.531396 0.019454 1.141632 0.045051 1.727295 0.059385 0.228326-1.617739 0.441295-4.416017 0.392148-9.159678l-0.005119-0.625594 0.069624-0.620475c0.341978-3.031724 8.807462-74.526565 48.261858-93.748988 17.114243-8.331355 36.620283-5.869935 58.0072 7.294159 30.869119 19.009455 71.563441 8.737837 104.26941 0.470988 28.899163-7.299278 51.720543-13.069896 64.204777 1.593165 2.858688 3.354248 6.073688 6.237509 9.180155 9.030669 23.396804 21.010127 30.343865 39.275217-7.234773 115.057065-0.615355 6.157646 0.43208 30.978674 11.790039 41.850289 3.106468 2.977459 8.57504 6.649111 19.868495 4.182572 10.092438-2.222855 19.55109 2.098965 25.917609 11.790039 17.496152 26.606684 12.921433 95.713824-8.296543 125.328683-9.938855 13.883885-23.277009 19.481466-37.509015 15.779097-31.604268-8.212584-37.890924 0.416721-49.293935 16.077047-4.937175 6.78836-10.534756 14.479786-18.777033 21.575312-29.415201 25.326827-81.155199 2.41125-108.953685-9.889708l-6.767882-2.97234c-11.333387-4.832739-16.03302-0.212968-27.594733 15.442239-5.944678 8.053882-12.682868 17.178748-22.136401 23.109092-4.387349 2.754252-11.254547 4.028989-19.442558 4.028988z m-42.256772-275.442558c-5.567888 0-12.355224 0.878494-21.352104 6.500648-9.44739 5.904747-32.44283 29.92612-14.75214 61.734142 20.339482 36.566017 12.137137 86.201929 6.713616 119.046123-1.389412 8.39074-2.58531 15.640872-3.031724 21.009103-0.908186 10.867519 4.966868 20.691699 17.456221 29.207352 23.277009 15.869199 59.178524 19.982146 65.986337 16.627898 6.068568-3.810901 11.35284-10.970931 16.458957-17.8883 10.494825-14.211528 24.854816-33.653063 51.958084-22.051419l6.991089 3.066537c21.997152 9.740221 67.773017 30.000864 87.462333 13.069896 6.455597-5.55765 11.10506-11.948742 15.60606-18.131985 12.693106-17.441887 25.827507-35.474555 70.834434-23.787928 3.989057 1.021838 9.413602 1.077127 15.874318-7.944326 17.783864-24.821028 19.92788-83.944262 7.83989-102.329147-2.362103-3.582575-3.716704-3.305102-4.61977-3.09623-22.289984 4.848097-35.399811-4.971987-42.470764-14.057945-14.990705-19.258259-15.506743-53.238965-12.281504-59.714016 35.518582-71.325899 26.334331-79.572272 12.429968-92.05753-3.434111-3.081895-7.328971-6.579487-11.070248-10.970931-4.287008-5.017038-26.170509 0.491465-43.760859 4.932056-34.491625 8.713264-81.74598 20.637433-119.900043-2.867903-15.288656-9.422817-27.852752-11.486969-38.446894-6.331707-24.225127 11.805398-34.754763 59.1089-36.89878 77.155903 0.079863 11.223831-0.997264 19.237781-6.307133 24.394067-5.195194 5.046731-11.720415 4.778473-16.950422 4.584959a90.296447 90.296447 0 0 0-3.768922-0.099317z" fill="#4D5152" /><path d="M561.201785 535.191003m-86.989297 0a86.989297 86.989297 0 1 0 173.978595 0 86.989297 86.989297 0 1 0-173.978595 0Z" fill="#FFB957" /><path d="M561.200762 632.341338c-53.565585 0-97.148287-43.582703-97.148288-97.148288 0-53.570704 43.582703-97.153407 97.148288-97.153406 53.570704 0 97.153407 43.582703 97.153406 97.153406 0 53.565585-43.582703 97.148287-97.153406 97.148288z m0-173.976547c-42.361208 0-76.82314 34.467052-76.82314 76.828259s34.461932 76.82314 76.82314 76.82314 76.828259-34.461932 76.828259-76.82314-34.467052-76.828259-76.828259-76.828259z" fill="#4D5152" /><path d="M516.104756 535.19305h-11.859663c0-22.741517 6.589726-39.711392 19.589997-50.434543 20.23095-16.687283 48.172781-11.516662 49.353321-11.293455l-2.238213 11.650791c-0.238565-0.045051-23.778713-4.297247-39.627434 8.842274-10.096533 8.370263-15.218008 22.244933-15.218008 41.234933z" fill="#4D5152" /><path d="M262.274369 892.702065c0 13.102661-8.864799 23.724447-19.799894 23.724447H207.462716c-10.935095 0-19.799894-10.621786-19.799894-23.724447V504.951573c0-13.102661 8.864799-23.724447 19.799894-23.724446h35.012783c10.935095 0 19.799894 10.621786 19.799894 23.724446v387.750492z" fill="#FFFFFF" /><path d="M242.473451 926.590622h-35.012783c-16.519366 0-29.960932-15.198554-29.960932-33.886509V504.953621c0-18.686931 13.44259-33.891628 29.960932-33.891628h35.012783c16.519366 0 29.960932 15.203673 29.960932 33.891628v387.750492c0.001024 18.686931-13.441567 33.886509-29.960932 33.886509z m-35.012783-435.203481c-5.224887 0-9.636809 6.212936-9.636808 13.56648v387.750492c0 7.348425 4.410898 13.561361 9.636808 13.561361h35.012783c5.224887 0 9.636809-6.212936 9.636809-13.561361V504.953621c0-7.353544-4.410898-13.566481-9.636809-13.56648h-35.012783z" fill="#4D5152" /><path d="M106.046875 336.161006a166.994673 118.921209 90 1 0 237.842417 0 166.994673 118.921209 90 1 0-237.842417 0Z" fill="#FFFFFF" /><path d="M224.96706 513.319788c-71.176412 0-129.079175-79.472955-129.079175-177.157758s57.902763-177.157758 129.079175-177.157758 129.085318 79.473979 129.085318 177.157758-57.907882 177.157758-129.085318 177.157758z m0-333.990369c-59.966916 0-108.755051 70.353208-108.755052 156.832611s48.787112 156.832611 108.755052 156.832611c59.972035 0 108.760171-70.353208 108.760171-156.832611s-48.788136-156.832611-108.760171-156.832611z" fill="#4D5152" /><path d="M823.748508 121.71744l4.296223 454.278464c-0.164846 1.130369-0.668597 2.13992-0.668597 3.316365V894.530725c0 13.102661 10.620762 23.724447 23.724447 23.724446h23.396803c13.102661 0 23.724447-10.620762 23.724447-23.724446V643.965508c7.634089-4.604412 14.929272-10.633049 14.929272-19.218328 0.002048-234.886461 4.1109-196.101685-3.603052-399.925512 3.231382 18.737101 1.101701-83.249044-85.799543-103.104228z" fill="#FFFFFF" /><path d="M874.499432 928.416209H851.097509c-18.686931 0-33.886509-15.198554-33.886509-33.886508V579.311245c0-1.91057 0.381909-3.448446 0.660406-4.44571l-4.406802-465.917993 12.544643 2.862783c82.579423 18.866111 95.525429 104.283744 94.454445 115.775833l-0.456653 4.932056c4.952533 132.106804 4.719087 158.633625 4.044347 234.474859-0.312285 35.023021-0.739245 82.98181-0.739245 157.756155 0 12.126898-8.634425 20.240165-14.9262 24.736046v245.044427c-0.001024 18.687955-15.199578 33.886509-33.886509 33.886508z m-36.963284-348.41077v314.524262c0 7.477435 6.083927 13.561361 13.561361 13.561361h23.400899c7.477435 0 13.561361-6.083927 13.561361-13.561361V638.23175l4.912602-2.96722c6.643992-4.009535 10.013598-7.547059 10.013599-10.514278 0-74.868543 0.42696-122.876478 0.739245-157.934311 0.684979-77.007439 0.913306-102.949622-4.337178-241.610316l0.739245-0.074744c-0.887709-8.008831-9.933735-69.23615-66.090774-89.799862l4.173356 441.350889-0.109555 0.768938a20.303646 20.303646 0 0 1-0.564161 2.554593z" fill="#4D5152" /></svg>